{"glyphs":{"0":{"ha":776,"x_min":63,"x_max":714,"o":"m 389 -14 q 203 50 275 -14 q 97 229 131 114 q 63 499 63 344 q 97 767 63 653 q 203 943 131 881 q 390 1006 275 1006 q 571 943 499 1006 q 678 766 643 881 q 714 497 714 651 q 678 228 714 343 q 570 50 642 114 q 389 -14 499 -14 m 389 61 q 496 113 457 61 q 552 263 535 165 q 569 497 569 360 q 552 732 569 635 q 496 880 535 829 q 390 931 457 931 q 282 880 322 931 q 224 732 242 829 q 207 497 207 635 q 224 263 207 360 q 282 113 242 165 q 389 61 322 61 z "},"1":{"ha":776,"x_min":92,"x_max":663,"o":"m 133 0 l 133 58 l 226 58 q 284 65 258 58 q 325 94 310 72 q 340 158 340 115 l 340 888 q 245 783 288 824 q 161 743 203 743 q 111 764 131 743 q 92 818 92 785 q 180 851 133 829 q 294 925 226 874 l 392 997 l 481 997 l 481 158 q 496 94 481 115 q 538 65 511 72 q 594 58 564 58 l 663 58 l 663 0 l 133 0 z "},"2":{"ha":776,"x_min":85,"x_max":689,"o":"m 85 0 l 85 101 l 317 369 q 433 519 390 456 q 495 639 476 582 q 514 760 514 696 q 499 852 514 813 q 452 914 483 892 q 372 936 421 936 q 276 907 310 936 q 231 831 243 878 q 219 729 219 785 q 159 737 186 729 q 116 765 132 744 q 100 819 100 785 q 131 915 100 874 q 222 981 161 957 q 372 1006 283 1006 q 523 977 460 1006 q 620 897 586 949 q 654 774 654 844 q 644 697 654 735 q 614 622 633 660 q 567 545 594 585 q 503 463 539 506 q 422 371 467 419 l 188 111 l 508 111 q 593 143 571 111 q 625 215 615 175 l 631 240 l 689 240 l 682 0 l 85 0 z "},"3":{"ha":776,"x_min":81,"x_max":696,"o":"m 343 -14 q 193 8 251 -14 q 108 65 135 29 q 81 140 81 100 q 105 206 81 182 q 168 229 129 229 q 214 109 168 157 q 344 61 260 61 q 447 83 400 61 q 522 153 493 104 q 551 285 551 201 q 484 425 551 372 q 300 478 417 478 l 256 478 l 256 549 l 300 549 q 410 575 361 549 q 489 650 460 601 q 518 764 518 699 q 484 891 518 846 q 369 936 450 936 q 274 907 307 936 q 228 831 240 878 q 217 729 217 785 q 132 748 167 729 q 97 819 97 767 q 128 915 97 874 q 219 981 158 957 q 369 1006 281 1006 q 581 948 501 1006 q 661 785 661 890 q 632 670 661 722 q 553 581 603 618 q 439 529 503 544 q 522 512 478 525 q 606 471 567 499 q 671 398 646 443 q 696 283 696 353 q 664 142 696 200 q 579 51 632 85 q 465 1 526 17 q 343 -14 403 -14 z "},"4":{"ha":776,"x_min":24,"x_max":757,"o":"m 299 0 l 299 58 l 338 58 q 395 65 369 58 q 436 94 421 72 q 451 158 451 115 l 451 272 l 24 272 l 24 329 l 453 992 l 585 992 l 585 350 l 757 350 l 757 272 l 585 272 l 585 158 q 600 94 585 115 q 642 65 615 72 q 699 58 668 58 l 717 58 l 717 0 l 299 0 m 124 350 l 451 350 l 451 607 q 452 698 451 647 q 456 800 453 749 q 461 894 458 851 q 439 853 454 881 q 404 792 424 825 q 367 730 385 760 q 336 681 349 700 l 124 350 z "},"5":{"ha":776,"x_min":76,"x_max":675,"o":"m 339 -14 q 179 8 236 -14 q 99 63 122 31 q 76 126 76 96 q 98 187 76 165 q 164 208 119 208 q 183 138 164 169 q 239 87 201 106 q 332 68 276 68 q 434 90 389 68 q 505 164 479 113 q 531 303 531 215 q 473 466 531 413 q 319 519 415 519 q 211 510 247 519 q 149 489 175 500 l 115 499 l 160 992 l 624 992 l 631 782 l 572 782 l 567 824 q 558 856 564 843 q 536 874 551 868 q 492 881 521 881 l 222 881 l 196 574 q 232 584 210 579 q 286 592 254 589 q 358 596 318 596 q 520 563 449 596 q 633 466 592 531 q 675 303 675 401 q 660 197 675 246 q 618 110 646 149 q 549 43 590 71 q 456 1 508 15 q 339 -14 403 -14 z "},"6":{"ha":776,"x_min":85,"x_max":706,"o":"m 407 -14 q 242 38 315 -14 q 127 203 169 90 q 85 500 85 317 q 107 690 85 599 q 174 852 129 781 q 287 965 218 924 q 447 1006 356 1006 q 576 985 525 1006 q 651 931 626 964 q 676 860 676 897 q 649 799 676 821 q 569 776 622 776 q 558 859 569 822 q 519 917 546 896 q 447 939 492 939 q 331 892 378 939 q 258 756 283 846 q 228 531 233 665 q 310 581 263 558 q 426 603 358 603 q 630 527 554 603 q 706 318 706 451 q 670 146 706 221 q 568 28 635 71 q 407 -14 501 -14 m 411 63 q 495 88 461 63 q 547 167 529 114 q 564 304 564 221 q 522 478 564 424 q 399 532 479 532 q 331 520 363 532 q 272 490 299 508 q 226 451 246 471 q 278 153 229 243 q 411 63 328 63 z "},"7":{"ha":776,"x_min":82,"x_max":710,"o":"m 264 0 l 592 881 l 226 881 q 169 863 189 881 q 146 810 149 844 l 140 740 l 82 740 l 89 992 l 710 992 l 710 951 l 368 0 l 264 0 z "},"8":{"ha":776,"x_min":64,"x_max":713,"o":"m 379 -14 q 205 22 275 -14 q 99 117 135 57 q 64 249 64 176 q 92 361 64 315 q 167 440 119 407 q 275 503 215 474 q 182 569 222 533 q 119 652 142 606 q 96 757 96 699 q 126 878 96 821 q 223 970 157 935 q 396 1006 289 1006 q 544 975 483 1006 q 638 890 606 944 q 669 767 669 836 q 618 624 669 675 q 482 532 567 574 q 603 461 551 500 q 683 374 654 422 q 713 265 713 326 q 622 60 713 133 q 379 -14 532 -14 m 386 50 q 531 102 476 50 q 586 235 586 154 q 563 321 586 282 q 485 395 539 360 q 342 469 432 431 q 238 378 276 435 q 199 243 199 321 q 246 103 199 157 q 386 50 293 50 m 414 564 q 519 650 492 603 q 546 769 546 697 q 531 851 546 813 q 481 915 515 890 q 388 940 446 940 q 268 893 310 940 q 226 774 226 846 q 247 688 226 724 q 310 622 268 651 q 414 564 351 593 z "},"9":{"ha":776,"x_min":71,"x_max":692,"o":"m 315 -15 q 193 3 238 -15 q 131 48 149 21 q 114 104 114 75 q 127 148 114 131 q 156 171 140 165 q 213 94 175 128 q 317 61 251 61 q 487 164 432 61 q 549 476 542 267 q 468 411 518 440 q 344 382 418 382 q 202 413 264 382 q 106 508 140 444 q 71 664 71 571 q 106 841 71 764 q 208 962 142 918 q 368 1006 275 1006 q 535 957 463 1006 q 650 806 608 908 q 692 539 692 703 q 671 330 692 429 q 605 153 650 231 q 488 30 560 75 q 315 -15 417 -15 m 375 464 q 488 498 443 464 q 550 576 532 532 q 525 778 549 700 q 462 892 501 856 q 368 929 422 929 q 285 900 319 929 q 232 815 250 871 q 214 678 214 760 q 254 514 214 564 q 375 464 294 464 z "},"\u0000":{"ha":0,"x_min":0,"x_max":0,"o":""},"\r":{"ha":322,"x_min":0,"x_max":0,"o":""}," ":{"ha":322,"x_min":0,"x_max":0,"o":""}," ":{"ha":322,"x_min":0,"x_max":0,"o":""},"ಀ":{"ha":811,"x_min":63,"x_max":749,"o":"m 406 39 q 227 78 303 39 q 109 208 151 117 q 63 454 67 299 l 135 456 q 213 234 139 303 q 406 165 286 165 q 597 235 525 165 q 676 456 668 304 l 749 454 q 700 208 743 299 q 583 78 657 117 q 406 39 508 39 m 406 331 q 348 352 369 331 q 326 407 326 374 q 349 463 326 440 q 406 485 371 485 q 463 463 440 485 q 485 407 485 440 q 463 352 485 374 q 406 331 442 331 z "},"ಁ":{"ha":0,"x_min":-672,"x_max":-151,"o":"m -412 829 q -540 860 -489 829 q -623 944 -592 890 q -672 1068 -654 999 l -624 1090 q -578 1008 -603 1044 q -514 952 -553 972 q -412 932 -475 932 q -311 952 -350 932 q -247 1008 -272 972 q -201 1090 -221 1044 l -151 1068 q -199 944 -169 999 q -281 860 -229 890 q -412 829 -332 829 m -412 1010 q -459 1026 -439 1010 q -479 1074 -479 1043 q -459 1120 -479 1103 q -412 1138 -439 1138 q -367 1120 -386 1138 q -349 1074 -349 1103 q -368 1026 -349 1043 q -412 1010 -387 1010 z "},"ಂ":{"ha":840,"x_min":69,"x_max":771,"o":"m 421 -17 q 242 30 322 -17 q 116 165 163 76 q 69 379 69 254 q 116 594 69 506 q 242 730 163 683 q 421 776 322 776 q 599 730 519 776 q 724 594 678 683 q 771 379 771 506 q 724 165 771 254 q 599 30 678 76 q 421 -17 519 -17 m 421 110 q 568 142 506 110 q 665 235 631 175 q 700 379 700 296 q 665 524 700 464 q 568 617 631 585 q 421 650 506 650 q 274 617 338 650 q 176 524 211 585 q 140 379 140 464 q 176 234 140 294 q 274 142 211 174 q 421 110 338 110 z "},"ಃ":{"ha":465,"x_min":69,"x_max":396,"o":"m 396 592 q 348 456 396 506 q 232 407 300 407 q 117 456 164 407 q 69 592 69 506 q 117 727 69 678 q 232 776 164 776 q 348 727 300 776 q 396 592 396 678 m 396 168 q 348 33 396 83 q 232 -17 300 -17 q 117 33 164 -17 q 69 168 69 83 q 117 303 69 254 q 232 353 164 353 q 348 303 300 353 q 396 168 396 254 m 119 168 q 150 100 119 128 q 232 72 181 72 q 315 100 285 72 q 344 168 344 128 q 315 237 344 210 q 232 264 285 264 q 150 237 181 264 q 119 168 119 210 m 119 592 q 150 522 119 550 q 232 494 181 494 q 315 522 285 494 q 344 592 344 550 q 315 660 344 632 q 232 688 285 688 q 150 660 181 688 q 119 592 119 632 z "},"಄":{"ha":1436,"x_min":67,"x_max":1369,"o":"m 167 729 q 151 619 156 674 q 146 506 146 565 q 190 215 146 336 q 315 16 235 93 q 504 -98 396 -61 q 739 -135 613 -135 q 1022 -75 900 -135 q 1212 106 1143 -15 q 1281 414 1281 228 q 1226 693 1281 579 q 1073 866 1171 807 q 843 925 975 925 q 634 881 728 925 q 486 747 540 836 q 432 518 432 657 q 477 330 432 400 q 592 228 522 260 q 739 197 663 197 q 940 262 875 197 q 1004 436 1004 326 q 957 588 1004 538 q 835 639 910 639 q 717 592 758 639 q 675 474 675 546 l 629 493 q 677 528 653 514 q 732 543 701 543 q 800 519 783 543 q 817 458 817 494 q 795 391 817 414 q 725 368 774 368 q 639 403 669 368 q 608 500 608 439 q 636 608 608 560 q 716 684 664 656 q 839 713 768 713 q 1020 640 951 713 q 1089 438 1089 567 q 1053 274 1089 349 q 941 156 1018 200 q 739 111 864 111 q 543 158 631 111 q 405 296 456 204 q 354 519 354 388 q 417 777 354 669 q 592 943 481 885 q 843 1001 703 1001 q 1110 935 992 1001 q 1299 739 1229 869 q 1369 414 1369 608 q 1288 45 1369 190 q 1063 -170 1206 -100 q 736 -240 921 -240 q 388 -158 539 -240 q 152 88 238 -76 q 67 499 67 251 q 72 613 67 554 q 89 735 78 671 l 167 729 z "},"ಅ":{"ha":1151,"x_min":75,"x_max":1076,"o":"m 1076 433 q 1023 182 1076 282 q 858 33 969 82 q 574 -17 747 -17 q 296 33 407 -17 q 130 181 185 83 q 75 422 75 279 q 111 607 75 528 q 210 731 147 686 q 354 775 274 775 q 447 749 411 775 q 501 678 483 722 q 518 581 518 633 q 479 442 518 496 q 363 389 440 389 q 245 438 286 389 q 204 571 204 488 q 209 619 204 599 q 222 651 214 639 l 231 647 q 181 588 201 621 q 149 513 160 554 q 139 419 139 472 q 161 302 139 357 q 233 206 183 247 q 367 142 283 165 q 574 119 451 119 q 788 144 703 119 q 922 213 872 169 q 993 313 972 257 q 1014 433 1014 369 q 997 558 1014 504 q 947 643 979 613 q 867 674 914 674 q 803 651 828 674 q 778 589 778 629 q 800 523 778 550 q 860 482 822 496 q 942 468 897 468 l 942 365 l 544 365 l 551 474 l 681 474 q 735 474 708 474 q 788 471 763 474 q 713 536 740 497 q 685 626 685 575 q 730 733 685 692 q 844 775 775 775 q 970 728 918 775 q 1049 605 1022 682 q 1076 433 1076 528 m 260 581 q 285 517 260 542 q 358 493 311 493 q 434 519 411 493 q 457 582 457 544 q 434 643 457 617 q 361 669 411 669 q 285 644 311 669 q 260 581 260 619 z "},"ಆ":{"ha":1089,"x_min":75,"x_max":1019,"o":"m 979 244 q 960 158 979 203 q 897 73 942 113 q 774 8 853 33 q 575 -17 696 -17 q 296 33 407 -17 q 130 181 185 83 q 75 422 75 279 q 111 607 75 528 q 210 731 147 686 q 354 775 274 775 q 447 749 411 775 q 501 678 483 722 q 518 581 518 633 q 479 442 518 496 q 363 389 440 389 q 245 438 286 389 q 204 571 204 488 q 209 619 204 599 q 222 651 214 639 l 231 647 q 181 588 201 621 q 149 513 160 554 q 139 419 139 472 q 161 302 139 357 q 233 206 183 247 q 367 142 283 165 q 575 119 451 119 q 741 133 676 119 q 841 169 806 147 q 890 217 876 190 q 903 268 903 243 q 883 334 903 306 q 814 389 863 363 l 849 429 q 948 342 917 383 q 979 244 979 301 m 260 581 q 285 517 260 542 q 358 493 311 493 q 434 519 411 493 q 457 582 457 544 q 434 643 457 617 q 361 669 411 669 q 285 644 311 669 q 260 581 260 619 m 543 365 l 550 474 l 636 474 q 686 474 661 474 q 736 471 711 474 l 844 471 q 919 501 896 471 q 943 571 943 531 q 921 640 943 610 q 847 669 899 669 q 777 641 801 669 q 753 576 753 613 q 780 503 753 533 q 850 450 807 474 l 811 428 q 742 470 772 444 q 694 532 711 496 q 676 614 676 568 q 721 727 676 679 q 842 775 765 775 q 942 749 903 775 q 1000 676 981 722 q 1019 571 1019 631 q 973 423 1019 481 q 832 365 926 365 l 543 365 z "},"ಇ":{"ha":964,"x_min":61,"x_max":881,"o":"m 881 -82 q 856 -171 881 -139 q 792 -203 832 -203 q 733 -179 754 -203 q 713 -122 713 -156 q 767 -79 749 -107 q 786 -7 786 -51 q 760 105 786 50 q 687 205 733 160 q 578 276 640 250 q 442 303 515 303 q 330 278 369 303 q 290 208 290 253 q 307 160 290 182 q 358 127 324 139 q 444 115 393 115 q 590 141 524 115 q 704 212 656 167 q 779 317 753 257 q 806 449 806 378 q 787 554 806 508 q 732 626 768 600 q 640 651 696 651 q 533 612 574 651 q 493 506 493 572 l 424 506 q 406 583 424 550 q 356 633 389 615 q 274 651 322 651 q 169 619 206 651 q 132 538 132 586 q 144 481 132 506 q 179 429 156 456 l 142 397 q 82 480 103 435 q 61 583 61 525 q 88 683 61 639 q 160 751 114 726 q 265 776 206 776 q 366 753 324 776 q 435 691 408 731 q 471 599 461 651 l 450 599 q 481 695 456 656 q 549 756 507 735 q 642 776 590 776 q 772 734 722 776 q 846 622 822 692 q 869 468 869 553 q 835 274 869 363 q 743 121 801 186 q 610 19 685 56 q 451 -17 535 -17 q 322 9 376 -17 q 238 79 268 35 q 208 179 208 124 q 272 312 208 260 q 440 364 335 364 q 622 321 540 364 q 760 209 703 278 q 849 63 818 140 q 881 -82 881 -14 z "},"ಈ":{"ha":1300,"x_min":33,"x_max":1231,"o":"m 1096 -17 q 1039 -3 1061 -17 q 1006 35 1017 11 q 994 89 994 58 q 1060 113 1040 92 q 1079 168 1079 133 q 1064 234 1079 200 q 1026 305 1049 268 q 981 382 1004 342 q 943 466 958 422 q 928 557 928 510 q 969 691 928 642 q 1078 740 1010 740 q 1167 713 1133 740 q 1215 642 1200 686 q 1231 549 1231 599 q 1203 433 1231 485 q 1123 350 1176 381 q 990 319 1069 319 l 33 319 l 43 424 l 986 424 q 1121 458 1072 424 q 1169 554 1169 492 q 1149 617 1169 594 q 1092 640 1129 640 q 1025 609 1050 640 q 1000 515 1000 578 q 1019 422 1000 467 q 1068 336 1039 378 q 1126 254 1097 294 q 1175 172 1156 214 q 1194 88 1194 131 q 1168 12 1194 40 q 1096 -17 1142 -17 m 490 -17 q 297 31 378 -17 q 172 158 215 78 q 128 333 128 238 q 178 519 128 443 q 310 639 229 596 l 135 639 l 144 760 l 592 760 q 694 767 661 760 q 747 792 728 775 q 779 872 779 819 q 760 953 779 913 q 703 1033 740 994 l 753 1071 q 826 963 800 1021 q 851 840 851 904 q 842 766 851 803 q 801 699 832 729 q 730 656 775 672 q 586 639 685 639 l 568 639 l 646 653 q 797 529 742 610 q 851 333 851 449 q 810 158 851 238 q 690 31 769 79 q 490 -17 610 -17 m 490 107 q 640 143 579 107 q 733 240 701 179 q 764 376 764 301 q 727 517 764 457 q 628 609 690 576 q 492 642 567 642 q 350 608 413 642 q 252 515 288 575 q 217 376 217 456 q 248 240 217 301 q 340 143 279 179 q 490 107 401 107 z "},"ಉ":{"ha":1536,"x_min":75,"x_max":1461,"o":"m 710 261 q 676 107 710 168 q 578 15 642 46 q 429 -15 515 -15 q 242 38 321 -15 q 119 186 163 90 q 75 408 75 282 q 92 537 75 472 q 142 656 108 601 q 228 743 175 710 q 354 776 282 776 q 448 749 411 776 q 502 678 485 722 q 519 582 519 635 q 480 443 519 496 q 363 390 440 390 q 245 439 286 390 q 204 572 204 488 q 209 619 204 599 q 222 651 214 639 l 232 647 q 161 549 185 608 q 138 406 138 490 q 172 256 138 321 q 269 153 207 190 q 414 117 331 117 q 585 167 528 117 q 642 293 642 217 q 633 383 642 340 q 615 467 624 425 q 606 557 606 510 q 662 715 606 654 q 811 776 718 776 q 931 742 883 776 q 1003 644 979 708 q 1026 488 1026 581 q 1025 423 1026 451 q 1023 367 1024 394 q 1022 306 1022 340 q 1073 164 1022 211 q 1203 117 1124 117 q 1305 141 1261 117 q 1374 215 1349 165 q 1399 339 1399 264 q 1369 506 1399 432 q 1280 633 1340 581 q 1122 713 1219 686 q 1135 758 1122 740 q 1182 776 1149 776 q 1282 745 1232 776 q 1372 656 1332 714 q 1437 517 1413 597 q 1461 339 1461 436 q 1433 147 1461 226 q 1349 26 1404 68 q 1208 -15 1293 -15 q 1018 64 1086 -15 q 950 288 950 143 q 951 349 950 319 q 953 408 951 378 q 954 468 954 438 q 919 603 954 554 q 810 651 885 651 q 712 614 750 651 q 674 511 674 576 q 683 431 674 471 q 701 350 692 392 q 710 261 710 308 m 261 582 q 287 517 261 542 q 360 493 313 493 q 435 519 413 493 q 458 582 458 544 q 435 643 458 617 q 361 669 411 669 q 287 644 313 669 q 261 582 261 619 z "},"ಊ":{"ha":2028,"x_min":75,"x_max":1953,"o":"m 724 264 q 689 110 724 172 q 591 17 654 49 q 440 -14 528 -14 q 243 39 325 -14 q 118 187 161 92 q 75 408 75 282 q 91 537 75 472 q 140 655 107 601 q 224 741 172 708 q 346 774 275 774 q 444 747 406 774 q 501 677 482 721 q 519 581 519 633 q 480 442 519 496 q 363 389 440 389 q 245 438 286 389 q 204 571 204 488 q 209 619 204 599 q 222 651 214 639 l 232 647 q 161 549 185 608 q 138 406 138 490 q 174 249 138 313 q 274 151 210 185 q 426 118 339 118 q 599 169 542 118 q 656 297 656 219 q 647 385 656 343 q 628 468 638 426 q 619 557 619 510 q 676 714 619 654 q 825 774 732 774 q 987 699 933 774 q 1040 488 1040 625 q 1039 424 1040 451 q 1037 369 1038 396 q 1036 306 1036 342 q 1076 164 1036 211 q 1183 117 1115 117 q 1267 148 1236 117 q 1297 242 1297 179 q 1288 350 1297 299 q 1278 457 1278 401 q 1317 622 1278 550 q 1428 733 1356 693 q 1599 774 1500 774 q 1789 719 1710 774 q 1910 569 1868 664 q 1953 354 1953 475 q 1927 169 1953 253 q 1846 36 1901 86 q 1701 -14 1790 -14 q 1583 13 1633 -14 q 1507 89 1533 40 q 1481 201 1481 138 q 1503 303 1481 261 q 1563 369 1526 346 q 1642 392 1600 392 q 1712 366 1688 392 q 1736 300 1736 340 q 1717 247 1736 269 q 1657 224 1697 224 q 1605 240 1626 224 q 1583 296 1583 257 l 1583 333 l 1604 315 q 1558 274 1575 303 q 1542 208 1542 244 q 1580 122 1542 154 q 1690 89 1618 89 q 1797 121 1753 89 q 1865 212 1842 153 q 1889 353 1889 271 q 1857 508 1889 443 q 1763 609 1825 574 q 1611 644 1701 644 q 1417 582 1485 644 q 1350 421 1350 519 q 1361 298 1350 354 q 1372 183 1372 242 q 1326 38 1372 90 q 1189 -14 1281 -14 q 1024 65 1083 -14 q 964 289 964 143 q 965 349 964 319 q 967 408 965 379 q 968 468 968 438 q 933 601 968 553 q 824 649 899 649 q 726 612 764 649 q 688 511 688 575 q 697 433 688 472 q 715 352 706 393 q 724 264 724 311 m 261 581 q 287 517 261 542 q 360 493 313 493 q 435 519 413 493 q 458 582 458 544 q 435 642 458 615 q 361 668 411 668 q 287 644 313 668 q 261 581 261 619 z "},"ಋ":{"ha":1661,"x_min":56,"x_max":1589,"o":"m 294 -15 q 117 35 179 -15 q 56 160 56 86 q 101 269 56 228 q 221 310 147 310 q 337 272 294 310 q 379 169 379 233 q 350 81 379 114 q 274 33 321 47 l 231 47 q 256 44 243 46 q 283 43 269 43 q 416 83 357 43 q 510 199 475 124 q 544 381 544 275 q 478 628 544 538 q 294 718 411 718 q 267 717 281 718 q 240 713 254 715 l 281 726 q 353 678 326 713 q 379 592 379 643 q 339 490 379 528 q 219 451 299 451 q 101 492 147 451 q 56 601 56 533 q 122 728 56 679 q 307 776 189 776 q 503 724 421 776 q 630 583 585 672 q 675 383 675 494 q 625 168 675 257 q 490 32 575 79 q 294 -15 404 -15 m 210 74 q 280 99 256 74 q 304 163 304 124 q 279 224 304 200 q 210 247 254 247 q 139 222 161 247 q 117 160 117 196 q 140 101 117 128 q 210 74 163 74 m 217 514 q 281 538 257 514 q 304 599 304 561 q 282 663 304 638 q 215 688 260 688 q 140 660 164 688 q 117 601 117 633 q 140 539 117 564 q 217 514 164 514 m 888 -15 q 789 3 833 -15 q 707 53 744 21 q 636 129 669 86 q 572 222 603 172 l 625 261 q 729 157 674 197 q 874 117 785 117 q 972 142 931 117 q 1036 215 1014 167 q 1058 332 1058 264 q 1022 490 1058 421 q 916 599 985 560 q 751 639 847 639 l 881 694 l 922 654 q 1046 569 996 625 q 1121 445 1096 514 q 1146 307 1146 376 q 1121 150 1146 224 q 1040 31 1096 76 q 888 -15 983 -15 m 746 639 l 754 760 l 883 760 q 986 767 953 760 q 1039 792 1019 775 q 1071 872 1071 819 q 1051 953 1071 913 q 994 1033 1032 994 l 1044 1071 q 1117 963 1092 1021 q 1143 840 1143 904 q 1133 766 1143 803 q 1093 699 1124 729 q 1022 656 1067 672 q 878 639 976 639 l 746 639 m 1354 -15 q 1235 15 1288 -15 q 1142 97 1183 46 q 1068 207 1101 147 l 1110 251 q 1201 158 1149 200 q 1343 117 1254 117 q 1449 144 1410 117 q 1507 216 1489 172 q 1525 310 1525 260 q 1458 497 1525 431 q 1272 601 1390 563 q 1267 624 1269 610 q 1265 653 1265 639 q 1276 702 1265 681 q 1311 724 1286 724 q 1392 692 1346 724 q 1484 603 1439 660 q 1559 469 1529 546 q 1589 304 1589 393 q 1565 144 1589 217 q 1488 28 1540 71 q 1354 -15 1436 -15 z "},"ೠ":{"ha":2154,"x_min":56,"x_max":2082,"o":"m 1349 -17 q 1253 10 1299 -17 q 1164 93 1207 36 q 1075 239 1121 150 l 1106 274 q 1222 153 1163 190 q 1339 115 1282 115 q 1406 140 1385 115 q 1432 202 1426 164 q 1438 283 1438 240 q 1436 351 1438 311 q 1435 450 1435 392 q 1472 622 1435 549 q 1580 735 1510 694 q 1746 775 1650 775 q 1925 724 1850 775 q 2041 576 2000 672 q 2082 346 2082 479 q 2054 165 2082 247 q 1970 33 2026 82 q 1829 -17 1914 -17 q 1712 10 1761 -17 q 1635 87 1663 38 q 1608 201 1608 136 q 1631 303 1608 261 q 1691 369 1654 346 q 1769 392 1728 392 q 1840 366 1817 392 q 1864 300 1864 340 q 1845 247 1864 269 q 1786 224 1826 224 q 1733 240 1754 224 q 1711 296 1711 257 q 1711 315 1711 306 q 1711 333 1711 324 l 1732 315 q 1688 274 1704 303 q 1671 208 1671 246 q 1709 120 1671 153 q 1818 88 1747 88 q 1925 119 1881 88 q 1994 208 1969 150 q 2018 344 2018 265 q 1983 515 2018 447 q 1887 616 1947 582 q 1750 650 1826 650 q 1627 624 1678 650 q 1546 550 1576 599 q 1513 467 1524 515 q 1503 338 1503 419 q 1504 263 1503 303 q 1506 179 1506 224 q 1468 35 1506 86 q 1349 -17 1431 -17 m 210 72 q 280 97 256 72 q 304 161 304 122 q 279 222 304 199 q 210 244 254 244 q 139 219 161 244 q 117 158 117 194 q 140 99 117 126 q 210 72 163 72 m 294 -17 q 117 34 179 -17 q 56 158 56 85 q 101 267 56 226 q 221 308 147 308 q 337 270 294 308 q 379 168 379 232 q 350 79 379 113 q 274 32 321 46 l 231 46 q 256 43 243 44 q 283 42 269 42 q 416 82 357 42 q 510 199 475 122 q 544 381 544 275 q 478 627 544 536 q 294 718 411 718 q 267 717 281 718 q 240 714 254 717 l 281 726 q 353 678 326 713 q 379 592 379 643 q 339 490 379 528 q 219 451 299 451 q 101 492 147 451 q 56 601 56 533 q 122 728 56 679 q 307 776 189 776 q 503 724 421 776 q 630 583 585 672 q 675 382 675 493 q 625 167 675 256 q 490 31 575 78 q 294 -17 404 -17 m 217 515 q 281 538 257 515 q 304 600 304 561 q 282 663 304 638 q 215 688 260 688 q 140 660 164 688 q 117 601 117 633 q 140 540 117 564 q 217 515 164 515 m 888 -14 q 790 4 835 -14 q 708 54 746 22 q 637 129 669 86 q 574 222 604 172 l 625 261 q 729 158 674 197 q 874 118 785 118 q 972 143 931 118 q 1036 216 1014 168 q 1058 332 1058 264 q 1022 490 1058 421 q 916 599 985 560 q 751 639 847 639 l 881 694 l 922 654 q 1046 569 996 625 q 1121 445 1096 514 q 1146 307 1146 376 q 1121 150 1146 224 q 1040 31 1096 76 q 888 -14 983 -14 m 746 639 l 754 760 l 883 760 q 986 767 953 760 q 1039 792 1019 775 q 1071 872 1071 819 q 1051 953 1071 913 q 994 1033 1032 994 l 1044 1071 q 1117 963 1092 1021 q 1143 840 1143 904 q 1133 766 1143 803 q 1093 699 1124 729 q 1022 656 1067 672 q 878 639 976 639 l 746 639 z "},"ಌ":{"ha":1025,"x_min":56,"x_max":969,"o":"m 718 -15 q 577 33 629 -15 q 525 157 525 81 q 542 240 525 204 q 588 306 560 276 q 647 361 617 335 q 706 414 678 388 q 752 472 735 440 q 769 543 769 503 q 736 619 769 589 q 636 650 703 650 q 522 611 560 650 q 483 506 483 572 l 414 506 q 397 582 414 550 q 349 632 381 614 q 268 650 317 650 q 163 618 200 650 q 126 538 126 586 q 138 481 126 506 q 175 429 150 456 l 136 399 q 76 480 97 435 q 56 583 56 525 q 82 682 56 639 q 154 750 108 725 q 260 775 200 775 q 361 752 319 775 q 428 690 403 729 q 463 599 454 650 l 440 599 q 476 695 450 656 q 544 755 503 735 q 639 775 586 775 q 751 747 706 775 q 818 673 796 719 q 840 571 840 626 q 824 474 840 515 q 781 401 807 432 q 726 344 756 369 q 670 294 696 318 q 628 246 644 271 q 611 189 611 221 q 641 126 611 150 q 722 101 671 101 q 818 127 781 101 q 878 195 856 153 q 911 289 900 238 l 969 281 q 926 129 956 196 q 846 24 896 63 q 718 -15 796 -15 z "},"ೡ":{"ha":1025,"x_min":56,"x_max":997,"o":"m 718 -15 q 577 33 629 -15 q 525 157 525 81 q 542 240 525 204 q 588 306 560 276 q 647 361 617 335 q 706 414 678 388 q 752 472 735 440 q 769 543 769 503 q 736 619 769 589 q 636 650 703 650 q 522 611 560 650 q 483 506 483 572 l 414 506 q 397 582 414 550 q 349 632 381 614 q 268 650 317 650 q 163 618 200 650 q 126 538 126 586 q 138 481 126 506 q 175 429 150 456 l 136 399 q 76 480 97 435 q 56 583 56 525 q 82 682 56 639 q 154 750 108 725 q 260 775 200 775 q 361 752 319 775 q 428 690 403 729 q 463 599 454 650 l 440 599 q 476 695 450 656 q 544 755 503 735 q 639 775 586 775 q 751 747 706 775 q 818 673 796 719 q 840 571 840 626 q 824 474 840 515 q 781 401 807 432 q 726 344 756 369 q 670 294 696 318 q 628 246 644 271 q 611 189 611 221 q 641 126 611 150 q 722 101 671 101 q 818 127 781 101 q 878 195 856 153 q 911 289 900 238 l 969 281 q 926 129 956 196 q 846 24 896 63 q 718 -15 796 -15 m 722 4 q 663 -54 688 -25 q 639 -122 639 -83 q 669 -185 639 -161 q 750 -210 699 -210 q 846 -184 808 -210 q 906 -116 883 -158 q 939 -22 928 -74 l 997 -31 q 953 -182 983 -115 q 874 -287 924 -249 q 746 -326 824 -326 q 605 -278 657 -326 q 553 -154 553 -231 q 570 -73 553 -108 q 615 -8 588 -37 q 671 46 642 21 l 722 4 z "},"ಎ":{"ha":1058,"x_min":67,"x_max":986,"o":"m 522 193 q 476 83 506 131 q 400 10 446 36 q 286 -17 354 -17 q 165 18 214 -17 q 92 110 117 53 q 67 232 67 167 q 88 340 67 292 q 150 415 110 388 q 246 443 190 443 q 347 408 311 443 q 382 318 382 372 q 349 235 382 265 q 257 196 315 204 l 247 247 q 284 266 271 253 q 297 304 297 279 q 281 345 297 329 q 231 361 264 361 q 156 331 183 361 q 129 251 129 301 q 149 176 129 207 q 208 131 169 146 q 301 115 246 115 q 370 126 339 115 q 425 156 401 136 q 466 207 449 176 q 494 278 483 238 l 542 278 q 578 190 553 226 q 644 134 604 153 q 733 115 683 115 q 817 137 783 115 q 869 198 851 158 q 888 290 888 238 q 831 488 888 408 q 676 607 775 567 q 446 647 576 647 q 360 643 404 647 q 269 631 317 639 q 257 662 260 647 q 254 685 254 676 q 292 756 254 733 q 400 778 329 778 q 599 747 508 778 q 762 661 690 715 q 883 539 833 607 q 960 396 933 471 q 986 249 986 321 q 956 108 986 168 q 874 16 926 49 q 753 -17 821 -17 q 642 9 692 -17 q 558 82 592 35 q 511 193 525 129 l 522 193 z "},"ಏ":{"ha":1063,"x_min":67,"x_max":990,"o":"m 522 193 q 476 83 506 131 q 400 10 446 36 q 286 -17 354 -17 q 165 18 214 -17 q 92 110 117 53 q 67 232 67 167 q 88 340 67 292 q 150 415 110 388 q 246 443 190 443 q 347 408 311 443 q 382 318 382 372 q 349 235 382 265 q 257 196 315 204 l 247 247 q 284 266 271 253 q 297 304 297 279 q 281 345 297 329 q 231 361 264 361 q 156 331 183 361 q 129 251 129 301 q 149 176 129 206 q 208 131 169 146 q 301 115 246 115 q 370 126 339 115 q 425 156 401 136 q 466 207 449 176 q 494 278 483 238 l 542 278 q 580 190 553 226 q 648 134 607 153 q 739 115 689 115 q 822 138 788 115 q 876 203 857 161 q 894 306 894 246 q 861 471 894 393 q 755 608 828 549 q 565 696 682 667 l 594 713 q 533 572 581 626 q 414 517 486 517 q 282 574 336 517 q 213 750 228 632 l 271 772 q 318 675 286 708 q 411 642 350 642 q 506 673 472 642 q 554 774 540 704 q 801 670 706 742 q 944 503 897 599 q 990 300 990 407 q 964 137 990 208 q 885 24 938 65 q 758 -17 833 -17 q 646 9 697 -17 q 560 82 594 35 q 511 193 525 129 l 522 193 z "},"ಐ":{"ha":1043,"x_min":75,"x_max":968,"o":"m 529 196 q 482 85 511 133 q 408 11 453 38 q 294 -15 363 -15 q 173 19 222 -15 q 99 112 124 54 q 75 235 75 169 q 97 342 75 294 q 158 417 118 389 q 254 446 199 446 q 355 410 319 446 q 390 319 390 374 q 357 237 390 267 q 264 199 324 207 l 256 249 q 292 267 279 254 q 306 306 306 281 q 289 347 306 331 q 238 363 272 363 q 165 331 192 363 q 138 249 138 300 q 156 177 138 207 q 211 132 175 147 q 297 117 247 117 q 370 127 338 117 q 428 158 403 138 q 472 208 454 178 q 503 279 490 239 l 550 279 q 584 194 564 231 q 638 137 604 157 q 722 117 671 117 q 792 133 761 117 q 847 180 824 149 q 882 259 869 211 q 894 369 894 307 q 881 488 894 436 q 844 576 868 540 q 786 630 819 611 q 714 649 753 649 q 631 631 665 649 q 576 580 597 613 q 544 501 556 547 l 507 501 q 470 578 494 546 q 411 630 446 611 q 333 649 376 649 q 256 634 292 649 q 197 591 221 619 q 161 521 172 563 l 111 539 q 149 655 121 601 q 221 741 176 708 q 326 774 265 774 q 420 749 379 774 q 490 684 461 725 q 533 590 519 643 l 514 590 q 578 721 529 668 q 711 774 628 774 q 824 740 776 774 q 904 648 872 706 q 952 517 936 590 q 968 367 968 444 q 953 224 968 292 q 910 101 939 156 q 837 16 881 47 q 735 -15 793 -15 q 631 10 674 -15 q 560 84 588 36 q 517 197 532 132 l 529 196 z "},"ಒ":{"ha":1022,"x_min":47,"x_max":950,"o":"m 950 244 q 942 160 950 206 q 911 75 933 115 q 850 10 889 35 q 750 -15 811 -15 q 640 11 686 -15 q 565 85 594 38 q 519 194 535 133 l 533 197 q 481 81 513 128 q 403 9 449 33 q 294 -15 357 -15 q 150 39 206 -15 q 94 174 94 93 q 128 287 94 235 q 225 399 161 339 q 305 482 278 447 q 332 563 332 517 q 307 631 332 601 q 228 660 282 660 q 149 635 178 660 q 121 565 121 610 q 128 521 121 539 q 146 483 136 503 l 106 457 q 64 524 81 486 q 47 610 47 563 q 94 725 47 675 q 233 775 140 775 q 373 722 329 775 q 417 593 417 669 q 404 523 417 556 q 366 457 392 490 q 301 386 340 424 q 242 324 267 353 q 203 269 217 296 q 189 215 189 243 q 220 142 189 168 q 307 117 251 117 q 376 127 344 117 q 431 158 407 138 q 474 210 456 179 q 506 279 493 240 l 551 279 q 586 195 565 232 q 642 138 607 158 q 732 117 676 117 q 851 160 817 117 q 886 257 886 203 q 867 338 886 301 q 808 404 847 374 q 831 440 815 426 q 864 453 846 453 q 912 422 893 453 q 940 344 931 392 q 950 244 950 297 z "},"ಓ":{"ha":1022,"x_min":47,"x_max":950,"o":"m 294 -15 q 150 39 206 -15 q 94 174 94 93 q 128 287 94 235 q 225 399 161 339 q 283 458 260 432 q 319 508 307 483 q 332 564 332 533 q 307 632 332 603 q 228 661 282 661 q 149 636 178 661 q 121 567 121 611 q 128 522 121 540 q 146 483 136 503 l 106 457 q 64 524 81 486 q 47 608 47 561 q 94 724 47 674 q 233 775 140 775 q 263 773 249 775 q 290 768 278 771 l 329 743 q 245 782 285 758 q 181 840 206 806 q 156 924 156 875 q 215 1038 156 990 q 388 1086 274 1085 l 399 1031 q 306 988 342 1021 q 271 906 271 954 q 294 822 271 854 q 343 758 317 789 q 394 693 371 728 q 417 606 417 658 q 388 495 417 546 q 301 386 358 444 q 242 324 268 353 q 203 269 217 296 q 189 214 189 243 q 220 142 189 168 q 307 117 251 117 q 376 127 344 117 q 431 158 407 138 q 474 210 456 179 q 506 279 493 240 l 551 279 q 586 195 565 232 q 642 138 607 158 q 732 117 676 117 q 851 160 817 117 q 886 257 886 203 q 867 338 886 301 q 808 404 847 374 q 831 440 815 426 q 864 453 846 453 q 912 422 893 453 q 940 344 931 392 q 950 244 950 297 q 942 159 950 204 q 911 74 933 114 q 850 10 889 35 q 750 -15 811 -15 q 640 11 686 -15 q 565 85 594 38 q 519 196 535 133 l 533 197 q 481 81 513 128 q 403 9 449 33 q 294 -15 357 -15 z "},"ಔ":{"ha":1028,"x_min":47,"x_max":950,"o":"m 950 242 q 942 158 950 203 q 911 73 933 113 q 850 8 889 33 q 750 -17 811 -17 q 642 10 688 -17 q 566 84 596 36 q 518 194 536 132 l 533 196 q 481 79 513 126 q 403 8 449 32 q 294 -17 357 -17 q 150 38 206 -17 q 94 172 94 92 q 128 286 94 233 q 225 399 161 339 q 285 459 261 433 q 320 510 308 485 q 332 567 332 536 q 307 637 332 607 q 228 667 282 667 q 149 641 178 667 q 121 569 121 615 q 128 522 121 542 q 146 483 136 503 l 106 457 q 64 524 81 486 q 47 610 47 563 q 68 692 47 654 q 130 752 89 729 q 233 775 171 775 q 338 751 297 775 q 397 685 378 726 q 417 594 417 644 q 404 524 417 557 q 366 457 392 490 q 301 386 340 424 q 219 297 250 336 q 189 214 189 257 q 220 141 189 167 q 307 115 251 115 q 376 126 344 115 q 431 157 407 136 q 474 208 456 178 q 506 278 493 239 l 551 278 q 586 194 565 231 q 642 136 607 157 q 732 115 676 115 q 851 158 817 115 q 886 254 886 200 q 867 335 886 299 q 808 401 847 371 q 831 437 815 424 q 864 450 846 450 q 912 419 893 450 q 940 342 931 389 q 950 242 950 294 m 75 756 l 85 849 l 254 849 q 328 865 301 849 q 356 917 356 881 q 337 978 356 949 q 281 1038 318 1007 l 318 1061 q 390 982 365 1024 q 415 896 415 940 q 369 792 415 828 q 246 756 324 756 l 75 756 m 949 788 q 921 645 949 707 q 840 549 893 583 q 713 514 788 514 q 569 570 619 514 q 519 707 519 626 q 544 808 519 771 q 601 860 568 844 q 660 875 633 875 q 729 854 708 875 q 750 797 750 833 q 732 746 750 767 q 679 725 714 725 q 633 741 653 725 q 614 788 614 757 l 614 800 l 618 796 q 594 773 607 789 q 581 724 581 757 q 618 653 581 678 q 719 629 656 629 q 838 674 793 629 q 883 788 883 718 q 830 917 883 869 q 646 965 776 965 l 58 965 l 68 1086 l 622 1086 q 808 1048 736 1086 q 914 943 879 1010 q 949 788 949 876 z "},"ಕ":{"ha":803,"x_min":81,"x_max":725,"o":"m 399 -14 q 266 17 324 -14 q 176 99 208 47 q 144 215 144 151 q 178 338 144 286 q 267 421 213 390 l 267 413 q 200 409 232 410 q 119 408 168 408 l 82 408 l 88 501 l 354 501 q 383 535 372 517 q 393 579 393 553 q 387 618 393 600 q 372 647 381 636 l 451 647 q 465 612 460 629 q 469 575 469 594 q 465 535 469 554 q 453 501 460 517 l 718 501 l 718 408 l 689 408 q 601 409 633 408 q 533 413 568 410 l 532 421 q 622 338 589 390 q 656 215 656 286 q 623 99 656 151 q 533 17 590 47 q 399 -14 475 -14 m 399 111 q 496 131 458 111 q 551 183 533 150 q 568 254 568 215 q 547 336 568 301 q 488 390 526 371 q 400 410 450 410 q 308 390 346 410 q 251 335 271 371 q 232 254 232 300 q 251 179 232 211 q 308 129 271 147 q 399 111 344 111 m 81 639 l 89 760 l 465 760 q 568 767 535 760 q 621 792 601 775 q 653 872 653 819 q 633 953 653 913 q 576 1033 614 994 l 626 1071 q 699 963 674 1021 q 725 840 725 904 q 715 766 725 803 q 675 699 706 729 q 603 656 649 672 q 460 639 558 639 l 81 639 z "},"ಖ":{"ha":1147,"x_min":56,"x_max":1075,"o":"m 264 -15 q 112 34 168 -15 q 56 171 56 83 q 104 289 56 240 q 242 338 153 338 q 337 323 293 338 q 422 283 381 308 q 510 225 464 257 q 614 163 568 186 q 703 129 660 139 q 797 119 747 119 q 951 172 892 119 q 1011 340 1011 224 q 965 533 1011 447 q 836 679 919 619 q 639 767 753 739 q 634 787 636 778 q 632 806 632 796 q 644 850 632 833 q 679 867 657 867 q 763 845 713 867 q 867 781 813 824 q 968 675 921 739 q 1045 526 1015 611 q 1075 335 1075 440 q 1047 148 1075 226 q 959 27 1018 69 q 808 -15 900 -15 q 697 3 749 -15 q 594 57 646 21 q 478 147 542 93 q 391 219 431 190 q 315 262 351 247 q 242 276 279 276 q 167 252 190 276 q 143 193 143 228 q 173 130 143 154 q 267 106 203 106 q 419 150 360 106 q 506 267 478 194 q 533 421 533 339 q 483 602 533 544 q 350 660 432 660 q 263 635 297 660 q 229 565 229 611 q 243 515 229 531 q 271 492 257 499 l 289 458 q 269 477 275 465 q 263 500 263 489 q 282 547 263 532 q 328 563 301 563 q 381 542 364 563 q 399 490 399 521 q 380 434 399 456 q 315 413 361 413 q 253 428 288 413 q 192 480 218 443 q 167 581 167 517 q 189 679 167 635 q 255 749 211 724 q 360 775 299 775 q 496 726 443 775 q 574 596 549 676 q 600 421 600 515 q 584 284 600 350 q 539 163 568 218 q 425 31 493 78 q 264 -15 357 -15 z "},"ಗ":{"ha":861,"x_min":83,"x_max":781,"o":"m 83 0 l 83 158 q 105 345 83 257 q 171 506 126 433 q 238 589 200 551 q 325 651 276 626 l 338 639 l 83 639 l 92 760 l 521 760 q 624 767 590 760 q 676 792 657 775 q 708 872 708 819 q 689 953 708 913 q 632 1033 669 994 l 682 1071 q 755 963 729 1021 q 781 840 781 904 q 771 766 781 803 q 731 699 761 729 q 659 656 704 672 q 515 639 614 639 l 507 639 l 538 651 q 619 597 583 631 q 683 524 654 564 q 758 356 736 450 q 781 163 781 261 l 781 0 l 649 0 l 649 144 q 645 278 649 221 q 635 378 642 335 q 619 456 629 422 q 547 589 596 539 q 433 639 499 639 q 310 583 358 639 q 240 442 263 526 q 226 368 232 410 q 217 274 221 326 q 214 154 214 221 l 214 0 l 83 0 z "},"ಘ":{"ha":1244,"x_min":75,"x_max":1183,"o":"m 294 -15 q 173 19 222 -15 q 99 111 124 54 q 75 233 75 168 q 97 340 75 293 q 158 415 118 388 q 254 443 199 443 q 355 408 319 443 q 390 318 390 372 q 357 235 390 265 q 264 196 324 204 l 256 247 q 292 266 279 253 q 306 304 306 279 q 289 345 306 329 q 238 361 272 361 q 165 331 192 361 q 138 253 138 301 q 158 178 138 208 q 216 132 178 147 q 310 117 254 117 q 378 127 347 117 q 433 158 410 138 q 474 208 457 178 q 503 278 492 239 l 550 278 q 585 195 564 232 q 643 138 607 158 q 735 117 679 117 q 819 138 786 117 q 869 198 853 160 q 886 286 886 236 q 875 367 886 332 q 841 434 864 401 q 785 504 818 467 l 839 551 q 931 460 888 494 q 1029 426 974 426 q 1098 451 1074 426 q 1122 515 1122 476 q 1092 596 1122 565 q 1006 633 1063 626 q 1023 678 1010 660 q 1058 696 1036 696 q 1117 668 1089 696 q 1165 596 1146 640 q 1183 499 1183 551 q 1143 374 1183 421 q 1032 326 1103 326 q 976 335 1006 326 q 919 361 947 343 l 936 375 q 947 330 943 351 q 951 285 951 308 q 942 185 951 238 q 910 88 933 133 q 847 13 888 42 q 742 -15 806 -15 q 636 11 681 -15 q 563 85 592 38 q 517 193 533 132 l 529 193 q 482 85 511 132 q 408 11 453 38 q 294 -15 363 -15 m 522 -272 q 472 -260 490 -272 q 454 -217 454 -247 q 462 -160 454 -196 q 481 -85 469 -125 q 503 -12 492 -46 l 542 -12 q 565 -83 554 -44 q 583 -158 576 -122 q 590 -217 590 -193 q 572 -260 590 -247 q 522 -272 554 -272 m 529 422 q 472 444 494 422 q 450 500 450 467 q 472 556 450 533 q 529 578 494 578 q 587 556 565 578 q 608 500 608 533 q 587 444 608 467 q 529 422 565 422 m 83 639 l 93 760 l 692 760 q 794 767 761 760 q 847 792 828 775 q 871 826 863 806 q 879 872 879 846 q 860 953 879 913 q 803 1033 840 994 l 853 1071 q 926 963 900 1021 q 951 840 951 904 q 942 765 951 803 q 901 699 933 728 q 858 668 883 682 q 793 647 833 654 q 686 639 753 639 l 83 639 z "},"ಙ":{"ha":1025,"x_min":47,"x_max":953,"o":"m 533 197 q 481 81 513 128 q 403 9 449 33 q 294 -15 357 -15 q 150 39 206 -15 q 94 174 94 93 q 122 272 94 226 q 201 369 150 318 l 281 451 q 319 505 306 478 q 332 563 332 532 q 307 631 332 601 q 228 660 282 660 q 149 635 178 660 q 121 565 121 610 q 128 521 121 539 q 146 483 136 503 l 106 457 q 64 524 81 486 q 47 610 47 563 q 94 725 47 675 q 233 775 140 775 q 373 722 329 775 q 417 592 417 668 q 416 577 417 583 q 414 564 415 571 l 397 561 l 468 632 q 590 735 531 694 q 724 776 649 776 q 838 737 799 776 q 878 649 878 697 q 858 588 878 614 q 804 554 839 563 q 763 629 796 597 q 671 661 729 661 q 574 635 617 661 q 482 561 531 610 l 244 325 q 203 271 217 299 q 189 215 189 243 q 220 142 189 168 q 307 117 251 117 q 376 127 344 117 q 431 158 407 138 q 474 210 456 179 q 506 279 493 240 l 551 279 q 590 190 567 226 q 651 135 614 154 q 738 117 688 117 q 851 160 815 117 q 886 268 886 204 q 867 366 886 321 q 807 435 847 411 q 828 469 814 456 q 861 483 843 483 q 912 451 892 483 q 942 368 932 418 q 953 265 953 318 q 931 122 953 186 q 865 22 910 58 q 746 -15 819 -15 q 640 11 686 -15 q 564 85 594 38 q 519 196 533 133 l 533 197 m 604 418 q 584 366 604 388 q 528 344 564 344 q 474 366 494 344 q 453 418 453 388 q 474 472 453 450 q 528 493 494 493 q 583 472 563 493 q 604 418 604 450 z "},"ಚ":{"ha":1072,"x_min":47,"x_max":992,"o":"m 294 -15 q 150 38 206 -15 q 94 172 94 92 q 128 286 94 233 q 225 399 161 339 q 305 482 278 447 q 332 563 332 517 q 307 631 332 601 q 228 660 282 660 q 149 635 178 660 q 121 565 121 610 q 128 521 121 539 q 146 483 136 503 l 106 457 q 64 524 81 486 q 47 610 47 563 q 94 725 47 675 q 233 775 140 775 q 373 722 329 775 q 417 593 417 669 q 404 523 417 556 q 366 457 392 490 q 301 386 340 424 q 242 324 267 353 q 203 269 217 296 q 189 214 189 243 q 220 142 189 167 q 307 117 251 117 q 376 127 344 117 q 431 158 407 138 q 474 210 456 179 q 506 279 493 240 l 551 279 q 586 195 565 232 q 640 138 607 158 q 722 117 672 117 q 823 154 789 117 q 857 251 857 192 q 838 333 857 296 q 778 394 818 371 q 675 418 738 418 l 758 461 q 865 403 822 442 q 930 315 908 365 q 951 206 951 264 q 929 99 951 150 q 863 17 907 49 q 750 -15 818 -15 q 642 10 688 -15 q 566 83 596 36 q 519 194 536 131 l 533 197 q 481 81 513 128 q 403 9 449 33 q 294 -15 357 -15 m 586 418 l 592 513 l 724 513 q 748 540 739 524 q 757 579 757 557 q 751 615 757 599 q 733 642 744 631 l 800 661 q 826 622 817 643 q 835 578 835 600 q 814 513 835 540 l 986 513 l 986 418 l 586 418 m 583 639 l 593 760 l 732 760 q 835 767 801 760 q 888 792 868 775 q 919 872 919 819 q 900 953 919 913 q 843 1033 881 994 l 893 1071 q 966 963 940 1021 q 992 840 992 904 q 982 766 992 803 q 942 699 972 729 q 870 656 915 672 q 726 639 825 639 l 583 639 z "},"ಛ":{"ha":1113,"x_min":72,"x_max":1038,"o":"m 338 -17 q 199 24 260 -17 q 106 144 139 65 q 72 333 72 222 q 109 564 72 464 q 210 720 146 664 q 354 776 274 776 q 447 749 411 776 q 501 678 483 722 q 518 582 518 635 q 478 443 518 496 q 361 390 439 390 q 244 440 285 390 q 204 572 204 489 q 209 619 204 599 q 222 651 214 639 l 231 647 q 161 532 185 606 q 138 363 138 458 q 162 226 138 282 q 233 143 186 171 q 343 115 279 115 q 438 133 399 115 q 504 186 478 150 q 544 278 531 222 l 592 278 q 656 160 613 206 q 779 115 699 115 q 904 165 857 115 q 951 308 951 214 q 926 444 951 383 q 857 549 901 504 q 753 617 813 593 q 626 640 694 640 l 764 693 l 803 647 q 903 587 860 625 q 976 501 946 549 q 1022 400 1007 453 q 1038 296 1038 347 q 1015 142 1038 214 q 939 27 992 71 q 797 -17 886 -17 q 684 10 732 -17 q 606 86 636 38 q 558 199 575 135 l 572 197 q 527 88 554 136 q 455 11 500 39 q 338 -17 410 -17 m 569 -268 q 518 -255 536 -268 q 500 -211 500 -242 q 507 -156 500 -190 q 526 -81 514 -121 q 549 -8 538 -42 l 588 -8 q 610 -79 599 -40 q 628 -153 621 -118 q 636 -211 636 -187 q 619 -255 636 -242 q 569 -268 601 -268 m 358 493 q 434 519 411 493 q 457 582 457 544 q 433 643 457 617 q 360 669 410 669 q 285 644 311 669 q 260 582 260 619 q 285 517 260 542 q 358 493 311 493 m 603 639 l 613 760 l 778 760 q 881 767 847 760 q 933 792 914 775 q 965 872 965 819 q 946 953 965 913 q 889 1033 926 994 l 939 1071 q 1012 963 986 1021 q 1038 840 1038 904 q 1028 765 1038 803 q 988 699 1019 728 q 944 668 969 682 q 879 647 919 654 q 772 639 839 639 l 603 639 z "},"ಜ":{"ha":1022,"x_min":47,"x_max":950,"o":"m 533 197 q 481 81 513 128 q 403 9 449 33 q 294 -15 357 -15 q 150 39 206 -15 q 94 174 94 93 q 128 287 94 235 q 225 399 161 339 q 305 482 278 447 q 332 563 332 517 q 307 631 332 601 q 228 660 282 660 q 149 635 178 660 q 121 565 121 610 q 128 520 121 539 q 146 483 136 501 l 106 457 q 64 524 81 486 q 47 608 47 561 q 94 724 47 674 q 233 775 140 775 q 331 753 289 775 q 411 697 374 731 q 486 631 449 664 q 567 575 524 597 q 669 553 611 553 q 744 573 717 553 q 772 628 772 593 q 748 683 772 660 q 667 717 724 707 q 689 762 674 749 q 726 775 704 775 q 783 750 758 775 q 821 685 807 725 q 835 600 835 646 q 797 484 835 526 q 692 442 760 442 q 531 501 606 442 q 382 651 456 561 l 414 651 q 419 635 417 643 q 422 619 422 628 q 410 533 422 571 q 370 461 397 496 q 301 386 343 426 q 242 324 267 353 q 203 269 217 296 q 189 214 189 243 q 220 142 189 167 q 307 117 251 117 q 376 127 344 117 q 431 158 407 138 q 474 210 456 179 q 506 279 493 240 l 551 279 q 586 197 565 233 q 642 138 607 160 q 732 117 676 117 q 851 159 817 117 q 886 257 886 201 q 867 338 886 301 q 808 404 847 374 q 831 440 815 426 q 864 453 846 453 q 912 422 893 453 q 940 344 931 392 q 950 243 950 296 q 942 159 950 204 q 911 74 933 114 q 850 10 889 35 q 750 -15 811 -15 q 640 11 686 -15 q 565 85 594 38 q 519 196 535 133 l 533 197 z "},"ಝ":{"ha":1750,"x_min":75,"x_max":1678,"o":"m 439 -15 q 245 30 326 -15 q 119 154 164 75 q 75 333 75 233 q 130 529 75 449 q 281 653 185 610 l 282 639 l 82 639 l 92 760 l 539 760 q 642 767 608 760 q 694 792 675 775 q 726 872 726 819 q 707 953 726 913 q 650 1033 688 994 l 700 1071 q 773 963 747 1021 q 799 840 799 904 q 789 766 799 803 q 749 699 779 729 q 677 656 722 672 q 533 639 632 639 l 511 639 l 593 653 q 744 529 689 610 q 799 333 799 449 q 756 160 799 239 q 633 33 713 81 q 439 -15 553 -15 m 438 117 q 585 152 525 117 q 674 247 644 188 q 704 376 704 306 q 669 510 704 450 q 575 605 635 569 q 438 640 515 640 q 301 604 361 640 q 206 508 240 568 q 171 376 171 449 q 201 248 171 307 q 291 153 232 189 q 438 117 350 117 m 1204 -268 q 1153 -256 1171 -268 q 1135 -212 1135 -243 q 1142 -157 1135 -192 q 1162 -82 1150 -122 q 1185 -8 1174 -42 l 1222 -8 q 1244 -79 1233 -40 q 1263 -153 1256 -118 q 1271 -212 1271 -189 q 1253 -256 1271 -243 q 1204 -268 1236 -268 m 982 -14 q 868 15 917 -14 q 781 94 819 44 q 703 208 742 144 l 743 253 q 835 160 782 201 q 978 118 889 118 q 1083 145 1043 118 q 1140 216 1122 172 q 1158 310 1158 260 q 1128 446 1158 390 q 1042 539 1099 501 q 906 601 985 576 q 901 624 904 610 q 899 653 899 639 q 910 702 899 681 q 946 724 921 724 q 1026 692 979 724 q 1118 603 1074 660 q 1192 469 1163 546 q 1222 304 1222 393 q 1197 144 1222 217 q 1117 29 1171 72 q 982 -14 1064 -14 m 1436 -14 q 1322 15 1371 -14 q 1234 94 1274 44 q 1157 208 1194 144 l 1197 253 q 1290 160 1238 201 q 1432 118 1343 118 q 1538 145 1497 118 q 1596 216 1578 172 q 1614 310 1614 260 q 1583 446 1614 390 q 1496 539 1553 501 q 1360 601 1439 576 q 1356 624 1358 610 q 1353 653 1353 639 q 1364 702 1353 681 q 1400 724 1375 724 q 1481 692 1433 724 q 1573 603 1528 660 q 1648 469 1618 546 q 1678 304 1678 393 q 1651 144 1678 217 q 1572 29 1625 72 q 1436 -14 1518 -14 z "},"ಞ":{"ha":1278,"x_min":61,"x_max":1222,"o":"m 1142 396 l 1104 428 q 1140 479 1128 454 q 1153 536 1153 504 q 1117 617 1153 585 q 1015 650 1082 650 q 937 632 969 650 q 887 581 904 614 q 869 504 869 549 l 826 504 l 822 597 q 858 690 832 650 q 925 752 883 729 q 1024 775 967 775 q 1127 750 1082 775 q 1197 681 1172 725 q 1222 582 1222 638 q 1201 478 1222 524 q 1142 396 1181 433 m 881 -82 q 856 -171 881 -139 q 792 -203 832 -203 q 733 -179 754 -203 q 713 -122 713 -156 q 767 -79 749 -107 q 786 -7 786 -51 q 760 105 786 50 q 687 205 733 160 q 578 276 640 250 q 442 303 515 303 q 330 278 369 303 q 290 208 290 253 q 307 160 290 182 q 358 127 324 139 q 444 115 393 115 q 590 141 524 115 q 704 212 656 167 q 779 317 753 257 q 806 449 806 378 q 787 554 806 508 q 732 626 768 600 q 640 651 696 651 q 533 612 574 651 q 493 506 493 572 l 424 506 q 406 583 424 550 q 356 633 389 615 q 274 651 322 651 q 169 619 206 651 q 132 538 132 586 q 144 481 132 506 q 179 429 156 456 l 142 397 q 82 480 103 435 q 61 583 61 525 q 88 683 61 639 q 160 751 114 726 q 265 776 206 776 q 366 753 324 776 q 435 691 408 731 q 471 599 461 651 l 450 599 q 481 695 456 656 q 549 756 507 735 q 642 776 590 776 q 772 734 722 776 q 846 622 822 692 q 869 468 869 553 q 835 274 869 363 q 743 121 801 186 q 610 19 685 56 q 451 -17 535 -17 q 322 9 376 -17 q 238 79 268 35 q 208 179 208 124 q 272 312 208 260 q 440 364 335 364 q 622 321 540 364 q 760 209 703 278 q 849 63 818 140 q 881 -82 881 -14 z "},"ಟ":{"ha":1115,"x_min":75,"x_max":1040,"o":"m 340 -17 q 203 21 263 -17 q 109 130 143 58 q 75 303 75 201 q 112 517 75 425 q 213 663 149 610 q 357 715 276 715 l 411 688 q 303 728 354 701 q 222 795 253 754 q 190 890 190 836 q 249 1013 190 963 q 422 1065 308 1064 l 433 1010 q 340 963 374 1000 q 306 872 306 925 q 322 805 306 832 q 367 755 339 778 q 431 704 396 732 q 502 622 483 664 q 521 522 521 581 q 481 392 521 442 q 364 342 442 342 q 247 390 288 342 q 206 518 206 438 q 211 560 206 542 q 225 592 217 579 l 239 582 q 171 485 196 544 q 146 344 146 425 q 169 218 146 269 q 238 141 193 167 q 346 115 283 115 q 441 133 401 115 q 507 186 481 150 q 547 278 533 222 l 594 278 q 658 160 615 206 q 782 115 701 115 q 907 165 860 115 q 954 307 954 214 q 926 448 954 385 q 848 556 897 511 q 733 619 799 600 l 742 668 q 824 735 794 690 q 853 832 853 781 q 817 948 853 900 q 719 1010 781 996 l 731 1065 q 867 1032 814 1065 q 944 949 919 999 q 968 849 968 900 q 940 748 968 794 q 869 669 913 701 q 778 626 825 638 l 776 654 q 912 578 853 633 q 1006 449 971 524 q 1040 293 1040 374 q 1017 142 1040 213 q 942 27 994 71 q 800 -17 889 -17 q 687 10 735 -17 q 608 86 639 38 q 561 199 578 135 l 575 197 q 530 88 557 136 q 458 11 503 39 q 340 -17 413 -17 m 361 446 q 437 469 414 446 q 460 528 460 493 q 436 585 460 560 q 363 610 413 610 q 288 587 314 610 q 263 528 263 564 q 288 468 263 490 q 361 446 314 446 z "},"ಠ":{"ha":874,"x_min":75,"x_max":799,"o":"m 439 -17 q 245 28 326 -17 q 119 153 164 74 q 75 332 75 232 q 130 528 75 447 q 281 653 185 610 l 282 639 l 82 639 l 92 760 l 539 760 q 642 767 608 760 q 694 792 675 775 q 726 872 726 819 q 707 953 726 913 q 650 1033 688 994 l 700 1071 q 773 963 747 1021 q 799 840 799 904 q 789 766 799 803 q 749 699 779 729 q 677 656 722 672 q 533 639 632 639 l 521 639 l 593 653 q 744 528 689 610 q 799 332 799 447 q 756 159 799 239 q 633 31 713 79 q 439 -17 553 -17 m 438 115 q 585 151 525 115 q 674 246 644 186 q 704 376 704 306 q 669 510 704 450 q 575 605 635 569 q 438 640 515 640 q 301 604 361 640 q 206 508 240 568 q 171 376 171 449 q 201 247 171 307 q 291 151 232 188 q 438 115 350 115 m 436 308 q 380 331 401 308 q 358 385 358 353 q 380 440 358 418 q 436 463 401 463 q 494 441 472 463 q 517 385 517 419 q 494 331 517 353 q 436 308 472 308 z "},"ಡ":{"ha":1057,"x_min":75,"x_max":982,"o":"m 308 -17 q 174 24 226 -17 q 99 131 122 65 q 75 265 75 196 q 138 492 75 393 q 304 639 200 592 l 78 639 l 88 760 l 722 760 q 825 767 792 760 q 878 792 858 775 q 910 872 910 819 q 890 953 910 913 q 833 1033 871 994 l 883 1071 q 956 963 931 1021 q 982 840 982 904 q 973 765 982 803 q 932 699 964 728 q 889 668 914 682 q 824 647 864 654 q 717 639 783 639 l 697 639 l 728 661 q 830 615 793 647 q 882 542 867 582 q 897 465 897 503 q 889 434 893 450 q 881 403 885 418 q 822 317 864 354 q 707 279 781 279 q 601 315 643 279 q 558 411 558 351 q 599 505 558 469 q 710 540 640 540 q 796 527 754 540 q 858 490 838 514 l 889 482 q 958 381 933 442 q 982 258 982 319 q 915 53 982 124 q 740 -17 847 -17 q 628 10 672 -17 q 556 85 583 38 q 510 197 528 133 l 521 197 q 484 86 513 135 q 411 10 456 38 q 308 -17 367 -17 m 322 115 q 410 136 378 115 q 462 194 443 157 q 493 278 481 231 l 540 278 q 576 191 554 228 q 635 135 599 154 q 726 115 671 115 q 817 133 779 115 q 877 189 856 151 q 899 283 899 226 q 881 376 899 329 q 824 453 864 422 q 719 483 785 483 q 656 470 681 483 q 631 424 631 457 q 651 384 631 399 q 710 369 671 369 q 795 397 764 369 q 826 479 826 424 q 763 600 826 560 q 588 640 699 640 l 517 640 q 332 593 410 640 q 213 469 254 546 q 171 301 171 392 q 189 200 171 242 q 241 137 207 158 q 322 115 275 115 z "},"ಢ":{"ha":1057,"x_min":75,"x_max":982,"o":"m 519 -272 q 468 -260 486 -272 q 450 -217 450 -247 q 457 -160 450 -196 q 476 -85 464 -125 q 499 -12 488 -46 l 538 -12 q 560 -83 549 -44 q 578 -158 571 -122 q 585 -217 585 -193 q 568 -260 585 -247 q 519 -272 551 -272 m 308 -17 q 174 24 226 -17 q 99 131 122 65 q 75 265 75 196 q 138 492 75 393 q 304 639 200 592 l 78 639 l 88 760 l 722 760 q 825 767 792 760 q 878 792 858 775 q 910 872 910 819 q 890 953 910 913 q 833 1033 871 994 l 883 1071 q 956 963 931 1021 q 982 840 982 904 q 973 765 982 803 q 932 699 964 728 q 889 668 914 682 q 824 647 864 654 q 717 639 783 639 l 697 639 l 728 661 q 830 615 793 647 q 882 542 867 582 q 897 465 897 503 q 889 434 893 450 q 881 403 885 418 q 822 317 864 354 q 707 279 781 279 q 601 315 643 279 q 558 411 558 351 q 599 505 558 469 q 710 540 640 540 q 796 527 754 540 q 858 490 838 514 l 889 482 q 958 381 933 442 q 982 258 982 319 q 915 53 982 124 q 740 -17 847 -17 q 628 10 672 -17 q 556 85 583 38 q 510 197 528 133 l 521 197 q 484 86 513 135 q 411 10 456 38 q 308 -17 367 -17 m 322 115 q 410 136 378 115 q 462 194 443 157 q 493 278 481 231 l 540 278 q 576 191 554 228 q 635 135 599 154 q 726 115 671 115 q 817 133 779 115 q 877 189 856 151 q 899 283 899 226 q 881 376 899 329 q 824 453 864 422 q 719 483 785 483 q 656 470 681 483 q 631 424 631 457 q 651 384 631 399 q 710 369 671 369 q 795 397 764 369 q 826 479 826 424 q 763 600 826 560 q 588 640 699 640 l 517 640 q 332 593 410 640 q 213 469 254 546 q 171 301 171 392 q 189 200 171 242 q 241 137 207 158 q 322 115 275 115 z "},"ಣ":{"ha":1175,"x_min":75,"x_max":1103,"o":"m 285 -15 q 178 10 226 -15 q 103 81 131 35 q 75 189 75 126 q 132 335 75 279 q 271 410 189 392 l 271 382 q 134 453 186 403 q 82 581 82 504 q 111 681 82 638 q 191 750 140 725 q 306 775 242 775 q 471 719 406 775 q 560 578 536 664 l 543 578 q 600 676 564 632 q 689 748 636 721 q 810 775 742 775 q 971 720 906 775 q 1069 575 1036 665 q 1103 375 1103 485 q 1071 172 1103 260 q 978 34 1039 83 q 826 -15 917 -15 q 701 16 754 -15 q 618 101 647 47 q 589 219 589 154 q 638 374 589 314 q 767 433 688 433 q 865 394 832 433 q 913 303 899 354 l 874 282 q 830 323 857 307 q 763 339 803 339 q 681 310 711 339 q 651 232 651 281 q 694 146 651 176 q 806 115 738 115 q 917 146 865 115 q 999 235 968 176 q 1031 378 1031 293 q 1004 516 1031 454 q 926 614 978 578 q 799 650 875 650 q 701 634 744 650 q 627 588 658 618 q 579 513 596 557 l 526 513 q 491 585 515 554 q 431 633 467 617 q 343 650 394 650 q 235 619 275 650 q 196 536 196 589 q 238 455 196 483 q 346 426 281 426 l 346 358 q 235 324 281 358 q 189 229 189 290 q 224 143 189 174 q 314 113 258 113 q 401 130 363 113 q 468 174 439 147 l 513 136 q 418 26 472 68 q 285 -15 364 -15 z "},"ತ":{"ha":853,"x_min":69,"x_max":778,"o":"m 432 -15 q 264 13 333 -15 q 151 90 194 42 q 89 194 108 138 q 69 308 69 251 q 70 338 69 324 q 74 369 71 351 l 128 369 q 145 274 129 319 q 196 194 161 229 q 288 138 231 158 q 429 117 346 117 q 626 172 561 117 q 690 310 690 228 q 660 415 690 374 q 579 476 631 456 q 464 496 528 496 q 376 476 404 496 q 347 424 347 456 q 375 375 347 393 q 444 357 403 357 q 540 390 503 357 q 578 478 578 424 q 551 568 578 531 q 484 626 525 606 q 400 649 443 647 l 540 649 q 617 573 586 622 q 647 471 647 524 q 594 323 647 381 q 449 265 542 265 q 351 283 393 265 q 286 334 310 301 q 263 410 263 367 q 316 514 263 475 q 464 553 369 553 q 624 517 553 553 q 736 419 694 482 q 778 274 778 357 q 739 128 778 194 q 624 24 700 63 q 432 -15 547 -15 m 71 639 l 81 760 l 518 760 q 621 767 588 760 q 674 792 654 775 q 706 872 706 819 q 686 953 706 913 q 629 1033 667 994 l 679 1071 q 752 963 726 1021 q 778 840 778 904 q 769 765 778 803 q 728 699 760 728 q 685 668 710 682 q 619 647 660 654 q 513 639 579 639 l 71 639 z "},"ಥ":{"ha":1035,"x_min":75,"x_max":960,"o":"m 519 376 q 462 398 483 376 q 440 453 440 419 q 463 508 440 486 q 519 531 485 531 q 576 508 554 531 q 599 453 599 486 q 577 398 599 419 q 519 376 556 376 m 308 -15 q 174 26 226 -15 q 99 131 122 67 q 75 265 75 196 q 106 430 75 354 q 192 561 136 506 q 322 647 249 617 l 335 639 l 78 639 l 88 760 l 700 760 q 803 767 769 760 q 856 792 836 775 q 888 872 888 819 q 868 953 888 913 q 811 1033 849 994 l 861 1071 q 934 963 908 1021 q 960 840 960 904 q 951 765 960 803 q 910 699 942 728 q 867 668 892 682 q 801 647 842 654 q 694 639 761 639 l 676 639 l 713 647 q 843 561 788 617 q 929 431 899 506 q 960 265 960 356 q 949 171 960 219 q 910 80 938 122 q 839 11 883 38 q 728 -15 794 -15 q 623 11 665 -15 q 553 85 581 38 q 511 199 526 133 l 522 197 q 485 87 513 135 q 413 12 457 39 q 308 -15 368 -15 m 314 118 q 407 139 372 118 q 462 196 442 160 q 494 278 482 232 l 542 278 q 578 193 557 229 q 633 138 599 157 q 722 118 668 118 q 804 142 774 118 q 849 206 835 165 q 864 301 864 247 q 823 470 864 393 q 706 594 782 547 q 521 640 629 640 l 515 640 q 331 593 408 640 q 212 469 253 546 q 171 301 171 392 q 188 202 171 243 q 236 140 204 161 q 314 118 268 118 m 519 -268 q 468 -256 486 -268 q 450 -212 450 -243 q 457 -157 450 -192 q 476 -82 464 -122 q 499 -8 488 -42 l 538 -8 q 560 -79 549 -40 q 578 -153 571 -118 q 585 -212 585 -189 q 568 -256 585 -243 q 519 -268 551 -268 z "},"ದ":{"ha":1035,"x_min":75,"x_max":960,"o":"m 308 -15 q 174 26 226 -15 q 99 131 122 67 q 75 265 75 196 q 106 430 75 354 q 192 561 136 506 q 322 647 249 617 l 335 639 l 78 639 l 88 760 l 700 760 q 803 767 769 760 q 856 792 836 775 q 888 872 888 819 q 868 953 888 913 q 811 1033 849 994 l 861 1071 q 934 963 908 1021 q 960 840 960 904 q 951 765 960 803 q 910 699 942 728 q 867 668 892 682 q 801 647 842 654 q 694 639 761 639 l 676 639 l 713 647 q 843 561 788 617 q 929 431 899 506 q 960 265 960 356 q 949 171 960 219 q 910 80 938 122 q 839 11 883 38 q 728 -15 794 -15 q 623 11 665 -15 q 553 85 581 38 q 511 199 526 133 l 522 197 q 485 87 513 135 q 413 12 457 39 q 308 -15 368 -15 m 314 118 q 407 139 372 118 q 462 196 442 160 q 494 278 482 232 l 542 278 q 578 193 557 229 q 633 138 599 157 q 722 118 668 118 q 804 142 774 118 q 849 206 835 165 q 864 301 864 247 q 823 470 864 393 q 706 594 782 547 q 521 640 629 640 l 515 640 q 331 593 408 640 q 212 469 253 546 q 171 301 171 392 q 188 202 171 243 q 236 140 204 161 q 314 118 268 118 z "},"ಧ":{"ha":1035,"x_min":75,"x_max":960,"o":"m 519 -268 q 468 -256 486 -268 q 450 -212 450 -243 q 457 -157 450 -192 q 476 -82 464 -122 q 499 -8 488 -42 l 538 -8 q 560 -79 549 -40 q 578 -153 571 -118 q 585 -212 585 -189 q 568 -256 585 -243 q 519 -268 551 -268 m 308 -15 q 174 26 226 -15 q 99 131 122 67 q 75 265 75 196 q 106 430 75 354 q 192 561 136 506 q 322 647 249 617 l 335 639 l 78 639 l 88 760 l 700 760 q 803 767 769 760 q 856 792 836 775 q 888 872 888 819 q 868 953 888 913 q 811 1033 849 994 l 861 1071 q 934 963 908 1021 q 960 840 960 904 q 951 765 960 803 q 910 699 942 728 q 867 668 892 682 q 801 647 842 654 q 694 639 761 639 l 676 639 l 713 647 q 843 561 788 617 q 929 431 899 506 q 960 265 960 356 q 949 171 960 219 q 910 80 938 122 q 839 11 883 38 q 728 -15 794 -15 q 623 11 665 -15 q 553 85 581 38 q 511 199 526 133 l 522 197 q 485 87 513 135 q 413 12 457 39 q 308 -15 368 -15 m 314 118 q 407 139 372 118 q 462 196 442 160 q 494 278 482 232 l 542 278 q 578 193 557 229 q 633 138 599 157 q 722 118 668 118 q 804 142 774 118 q 849 206 835 165 q 864 301 864 247 q 823 470 864 393 q 706 594 782 547 q 521 640 629 640 l 515 640 q 331 593 408 640 q 212 469 253 546 q 171 301 171 392 q 188 202 171 243 q 236 140 204 161 q 314 118 268 118 z "},"ನ":{"ha":947,"x_min":75,"x_max":872,"o":"m 215 -72 q 153 -39 186 -72 q 98 57 121 -6 q 75 206 75 119 q 123 374 75 315 q 240 433 171 433 q 317 413 285 433 q 382 351 349 393 q 461 242 415 308 q 515 172 490 200 q 567 129 539 143 q 635 115 596 115 q 717 138 686 115 q 762 199 747 160 q 776 286 776 238 q 751 426 776 363 q 679 538 726 490 q 567 613 632 586 q 424 639 503 639 l 442 686 q 634 647 553 686 q 768 544 715 608 q 847 405 821 481 q 872 257 872 329 q 863 168 872 215 q 832 78 854 121 q 769 10 810 36 q 663 -17 728 -17 q 560 9 601 -17 q 487 77 518 35 q 422 169 456 119 q 369 242 396 211 q 314 289 343 272 q 249 306 285 306 q 169 276 199 306 q 139 189 139 246 q 170 83 139 133 q 272 14 201 33 q 269 -23 272 -3 q 253 -58 265 -43 q 215 -72 240 -72 m 78 639 l 88 760 l 613 760 q 715 767 682 760 q 768 792 749 775 q 800 872 800 817 q 781 953 800 913 q 724 1033 761 994 l 774 1071 q 847 963 821 1021 q 872 840 872 904 q 863 765 872 803 q 822 699 854 728 q 779 668 804 682 q 714 647 754 654 q 607 639 674 639 l 78 639 z "},"ಪ":{"ha":1026,"x_min":75,"x_max":951,"o":"m 294 -15 q 173 19 222 -15 q 99 111 124 54 q 75 233 75 168 q 97 340 75 293 q 158 415 118 388 q 254 443 199 443 q 355 408 319 443 q 390 318 390 372 q 357 235 390 265 q 264 196 324 204 l 256 247 q 292 266 279 253 q 306 304 306 279 q 289 345 306 329 q 238 361 272 361 q 165 331 192 361 q 138 253 138 301 q 158 178 138 208 q 216 132 178 147 q 310 117 254 117 q 378 127 347 117 q 433 158 410 138 q 474 208 457 178 q 503 278 492 239 l 550 278 q 585 195 564 232 q 643 138 607 158 q 735 117 679 117 q 802 130 774 117 q 849 166 831 143 q 877 221 868 189 q 886 290 886 253 q 850 429 886 372 q 769 528 814 486 q 791 563 776 549 q 825 576 806 576 q 887 538 858 576 q 933 433 915 499 q 951 289 951 368 q 942 189 951 242 q 910 90 933 136 q 847 14 888 43 q 742 -15 806 -15 q 636 11 681 -15 q 563 85 592 38 q 517 193 533 132 l 529 193 q 482 85 511 132 q 408 11 453 38 q 294 -15 363 -15 m 529 422 q 472 444 494 422 q 450 500 450 467 q 472 556 450 533 q 529 578 494 578 q 587 556 565 578 q 608 500 608 533 q 587 444 608 467 q 529 422 565 422 m 82 639 l 90 760 l 692 760 q 794 767 761 760 q 847 792 828 775 q 879 872 879 817 q 860 953 879 913 q 803 1033 840 994 l 853 1071 q 926 963 900 1021 q 951 840 951 904 q 942 765 951 803 q 901 699 933 728 q 858 668 883 682 q 793 647 833 654 q 686 639 753 639 l 82 639 z "},"ಫ":{"ha":1029,"x_min":75,"x_max":951,"o":"m 524 -272 q 474 -260 492 -272 q 456 -217 456 -247 q 463 -160 456 -196 q 481 -85 469 -125 q 504 -12 493 -46 l 543 -12 q 565 -83 554 -44 q 583 -158 576 -122 q 590 -217 590 -193 q 573 -260 590 -247 q 524 -272 556 -272 m 294 -15 q 173 19 222 -15 q 99 111 124 54 q 75 233 75 168 q 97 340 75 293 q 158 415 118 388 q 254 443 199 443 q 355 408 319 443 q 390 318 390 372 q 357 235 390 265 q 264 196 324 204 l 256 247 q 292 266 279 253 q 306 304 306 279 q 289 345 306 329 q 238 361 272 361 q 165 331 192 361 q 138 253 138 301 q 158 178 138 208 q 216 132 178 147 q 310 117 254 117 q 378 127 347 117 q 433 158 410 138 q 474 208 457 178 q 503 278 492 239 l 550 278 q 585 195 564 232 q 643 138 607 158 q 735 117 679 117 q 802 130 774 117 q 849 166 831 143 q 877 221 868 189 q 886 290 886 253 q 850 429 886 372 q 769 528 814 486 q 791 563 776 549 q 825 576 806 576 q 887 538 858 576 q 933 433 915 499 q 951 289 951 368 q 942 189 951 242 q 910 90 933 136 q 847 14 888 43 q 742 -15 806 -15 q 636 11 681 -15 q 563 85 592 38 q 517 193 533 132 l 529 193 q 482 85 511 132 q 408 11 453 38 q 294 -15 363 -15 m 529 422 q 472 444 494 422 q 450 500 450 467 q 472 556 450 533 q 529 578 494 578 q 587 556 565 578 q 608 500 608 533 q 587 444 608 467 q 529 422 565 422 m 82 639 l 90 760 l 692 760 q 794 767 761 760 q 847 792 828 775 q 879 872 879 817 q 860 953 879 913 q 803 1033 840 994 l 853 1071 q 926 963 900 1021 q 951 840 951 904 q 942 765 951 803 q 901 699 933 728 q 858 668 883 682 q 793 647 833 654 q 686 639 753 639 l 82 639 z "},"ಬ":{"ha":1043,"x_min":47,"x_max":968,"o":"m 294 -15 q 150 38 206 -15 q 94 172 94 92 q 128 286 94 233 q 225 399 161 339 q 305 482 278 447 q 332 563 332 517 q 307 631 332 601 q 228 660 282 660 q 149 635 178 660 q 121 565 121 610 q 128 520 121 539 q 146 483 136 501 l 106 457 q 64 524 81 486 q 47 608 47 561 q 94 724 47 674 q 233 775 140 775 q 373 722 329 775 q 417 593 417 669 q 404 522 417 556 q 366 456 392 489 q 301 386 340 424 q 242 324 267 353 q 203 269 217 296 q 189 214 189 243 q 220 142 189 167 q 307 117 251 117 q 376 127 344 117 q 431 158 407 138 q 474 209 456 179 q 506 278 493 239 l 551 278 q 586 197 565 233 q 641 138 607 160 q 725 115 675 115 q 855 173 807 115 q 903 336 903 231 q 876 488 903 418 q 801 614 850 558 q 683 708 751 669 q 529 767 614 747 q 523 787 525 778 q 521 806 521 796 q 534 849 521 833 q 568 865 547 865 q 655 844 604 865 q 760 778 706 822 q 863 671 815 735 q 939 522 910 607 q 968 332 968 438 q 938 126 968 201 q 855 17 907 50 q 740 -15 803 -15 q 637 14 682 -15 q 562 91 592 43 q 519 194 532 139 l 533 196 q 481 81 513 128 q 403 9 449 33 q 294 -15 357 -15 z "},"ಭ":{"ha":1046,"x_min":47,"x_max":971,"o":"m 294 -15 q 150 38 206 -15 q 94 172 94 92 q 128 286 94 233 q 225 399 161 339 q 305 482 278 447 q 332 563 332 517 q 307 631 332 601 q 228 660 282 660 q 149 635 178 660 q 121 565 121 610 q 128 521 121 539 q 146 483 136 503 l 106 457 q 64 524 81 486 q 47 610 47 563 q 94 725 47 675 q 233 775 140 775 q 373 722 329 775 q 417 593 417 669 q 404 523 417 556 q 366 457 392 490 q 301 386 340 424 q 242 324 267 353 q 203 269 217 296 q 189 214 189 243 q 220 142 189 167 q 307 117 251 117 q 376 127 344 117 q 431 158 407 138 q 474 210 456 179 q 506 279 493 240 l 551 279 q 586 195 565 232 q 641 138 607 158 q 731 117 675 117 q 844 165 804 117 q 883 307 883 214 q 858 442 883 382 q 788 547 832 503 q 684 615 743 592 q 558 639 625 639 l 697 693 l 735 647 q 835 587 792 625 q 909 497 879 549 q 955 388 939 446 q 971 268 971 329 q 944 119 971 183 q 867 20 917 56 q 750 -15 818 -15 q 642 10 688 -15 q 567 83 597 36 q 519 194 536 131 l 533 197 q 481 81 513 128 q 403 9 449 33 q 294 -15 357 -15 m 525 -268 q 474 -256 492 -268 q 456 -212 456 -243 q 463 -157 456 -192 q 482 -82 471 -122 q 504 -8 493 -42 l 543 -8 q 567 -79 556 -40 q 585 -153 578 -118 q 592 -212 592 -189 q 574 -256 592 -243 q 525 -268 557 -268 m 550 639 l 558 760 l 710 760 q 813 767 781 760 q 867 793 846 775 q 897 874 897 819 q 878 954 897 914 q 822 1035 858 994 l 872 1071 q 944 963 918 1022 q 971 840 971 904 q 961 766 971 804 q 921 699 951 728 q 878 668 903 682 q 813 647 853 654 q 706 639 772 639 l 550 639 z "},"ಮ":{"ha":1501,"x_min":75,"x_max":1429,"o":"m 294 -15 q 173 19 222 -15 q 99 111 124 54 q 75 233 75 168 q 97 340 75 293 q 158 415 118 388 q 254 443 199 443 q 355 408 319 443 q 390 318 390 372 q 357 235 390 265 q 264 196 324 204 l 256 247 q 292 266 279 253 q 306 304 306 279 q 289 345 306 329 q 238 361 272 361 q 165 331 192 361 q 138 253 138 301 q 158 178 138 208 q 216 132 178 147 q 310 117 254 117 q 378 127 347 117 q 433 158 410 138 q 474 208 457 178 q 503 278 492 239 l 550 278 q 585 193 565 229 q 639 137 606 157 q 724 117 672 117 q 792 131 764 117 q 838 169 821 144 q 863 227 856 194 q 871 299 871 260 q 846 431 871 369 q 775 540 821 493 q 665 613 729 586 q 521 639 600 639 l 521 682 q 726 644 640 682 q 865 544 811 606 q 943 412 918 483 q 968 272 968 340 q 957 174 968 225 q 919 81 946 124 q 847 11 892 38 q 735 -15 801 -15 q 631 10 674 -15 q 560 83 588 36 q 517 194 532 131 l 529 193 q 482 85 511 132 q 408 11 453 38 q 294 -15 363 -15 m 82 639 l 90 760 l 708 760 q 811 767 778 760 q 864 792 844 775 q 896 872 896 817 q 876 953 896 913 q 819 1033 857 994 l 869 1071 q 942 963 917 1021 q 968 840 968 904 q 959 765 968 803 q 918 699 950 728 q 875 668 900 682 q 810 647 850 654 q 703 639 769 639 l 82 639 m 1188 -15 q 1069 17 1119 -15 q 976 111 1018 50 q 892 257 935 172 l 919 275 q 985 198 949 235 q 1069 139 1021 161 q 1183 117 1117 117 q 1290 144 1250 117 q 1347 216 1329 172 q 1365 310 1365 260 q 1298 497 1365 431 q 1113 601 1231 563 q 1107 624 1110 610 q 1104 653 1104 639 q 1115 702 1104 681 q 1151 724 1126 724 q 1232 692 1185 724 q 1324 603 1279 660 q 1399 469 1369 546 q 1429 304 1429 393 q 1403 144 1429 217 q 1324 28 1378 71 q 1188 -15 1271 -15 z "},"ಯ":{"ha":1736,"x_min":75,"x_max":1664,"o":"m 399 -15 q 215 40 286 -15 q 109 186 143 96 q 75 379 75 276 q 117 594 75 506 q 231 728 158 682 q 397 775 304 775 q 569 726 497 775 q 681 590 642 678 q 719 379 719 501 q 692 194 719 269 q 617 72 664 118 q 514 6 571 26 q 399 -15 457 -15 m 400 117 q 535 149 478 117 q 624 240 592 181 q 656 376 656 299 q 590 569 656 496 q 399 642 525 642 q 263 612 322 642 q 172 524 204 582 q 139 383 139 467 q 172 240 139 300 q 265 149 206 181 q 400 117 324 117 m 954 -15 q 853 4 899 -15 q 772 58 808 24 q 702 138 735 92 q 639 236 669 183 l 692 275 q 796 161 740 206 q 940 117 851 117 q 1038 140 997 117 q 1101 207 1079 163 q 1124 314 1124 251 q 1081 484 1124 411 q 967 598 1039 557 q 804 639 894 639 l 947 696 l 988 646 q 1110 557 1061 614 q 1185 433 1160 500 q 1211 300 1211 365 q 1187 147 1211 219 q 1106 30 1163 75 q 954 -15 1050 -15 m 778 639 l 786 760 l 951 760 q 1054 767 1021 760 q 1107 792 1088 775 q 1131 825 1122 804 q 1139 872 1139 846 q 1119 953 1139 913 q 1063 1033 1100 994 l 1113 1071 q 1185 963 1160 1021 q 1211 840 1211 904 q 1202 765 1211 803 q 1161 699 1193 728 q 1118 668 1143 682 q 1053 647 1093 654 q 946 639 1013 639 l 778 639 m 1422 -15 q 1309 14 1358 -15 q 1220 94 1260 43 q 1143 208 1181 144 l 1185 253 q 1276 158 1224 200 q 1418 117 1329 117 q 1523 144 1483 117 q 1581 217 1563 172 q 1599 311 1599 261 q 1569 447 1599 392 q 1483 540 1539 503 q 1347 603 1426 576 q 1342 626 1344 611 q 1339 654 1339 640 q 1350 703 1339 682 q 1386 725 1361 725 q 1467 693 1421 725 q 1559 604 1514 661 q 1634 471 1604 547 q 1664 306 1664 394 q 1638 144 1664 217 q 1558 28 1611 71 q 1422 -15 1504 -15 z "},"ರ":{"ha":874,"x_min":75,"x_max":799,"o":"m 439 -15 q 245 30 326 -15 q 119 154 164 75 q 75 333 75 233 q 130 529 75 449 q 281 653 185 610 l 282 639 l 82 639 l 92 760 l 539 760 q 642 767 608 760 q 694 792 675 775 q 726 872 726 817 q 707 953 726 913 q 650 1033 688 994 l 700 1071 q 773 963 747 1021 q 799 840 799 904 q 790 765 799 803 q 749 699 781 728 q 706 668 731 682 q 640 647 681 654 q 533 639 600 639 l 511 639 l 593 653 q 744 529 689 610 q 799 333 799 449 q 756 160 799 239 q 633 33 713 81 q 439 -15 553 -15 m 438 117 q 585 152 525 117 q 674 247 644 188 q 704 376 704 306 q 669 510 704 450 q 575 605 635 569 q 438 640 515 640 q 301 604 361 640 q 206 508 240 568 q 171 376 171 449 q 201 248 171 307 q 291 153 232 189 q 438 117 350 117 z "},"ಱ":{"ha":1144,"x_min":72,"x_max":1072,"o":"m 338 -15 q 199 31 260 -15 q 106 160 139 78 q 72 347 72 242 q 111 567 72 471 q 217 719 150 664 q 367 775 283 775 q 490 728 443 775 q 536 610 536 682 q 519 527 536 565 q 454 457 501 489 l 447 476 l 699 476 l 692 457 q 627 527 644 489 q 610 610 610 565 q 656 728 610 682 q 779 775 703 775 q 930 719 864 775 q 1034 567 996 664 q 1072 347 1072 471 q 1039 160 1072 242 q 946 31 1006 78 q 808 -15 886 -15 q 693 13 744 -15 q 610 92 642 42 q 569 208 578 143 l 576 208 q 535 92 568 143 q 452 13 503 42 q 338 -15 401 -15 m 356 117 q 450 138 413 117 q 511 196 488 158 q 547 281 535 233 l 599 281 q 634 196 611 233 q 694 138 657 158 q 789 117 732 117 q 895 147 847 117 q 972 238 943 178 q 1000 389 1000 299 q 971 526 1000 463 q 893 630 942 590 q 783 669 844 669 q 706 643 732 669 q 679 579 679 617 q 711 502 679 532 q 801 472 743 472 l 906 472 l 897 378 l 243 378 l 253 472 l 344 472 q 434 502 403 472 q 465 579 465 532 q 440 643 465 617 q 363 669 414 669 q 252 630 301 669 q 174 526 203 590 q 146 389 146 463 q 174 238 146 299 q 251 147 203 178 q 356 117 299 117 z "},"ಲ":{"ha":1014,"x_min":72,"x_max":942,"o":"m 508 -15 q 273 33 371 -15 q 124 177 175 82 q 72 408 72 272 q 110 603 72 521 q 212 730 147 685 q 356 775 276 775 q 452 749 415 775 q 506 678 489 722 q 524 582 524 635 q 484 444 524 496 q 367 392 444 392 q 249 440 290 392 q 208 572 208 488 q 213 617 208 597 q 224 649 218 636 l 228 646 q 160 550 183 604 q 136 419 136 496 q 176 265 136 332 q 297 159 215 197 q 503 121 379 121 q 716 156 633 121 q 838 253 799 192 q 878 393 878 315 q 859 497 878 449 q 794 588 840 546 q 664 660 747 629 q 658 682 660 671 q 656 704 656 693 q 668 756 656 736 q 703 775 681 775 q 777 746 736 775 q 856 665 818 717 q 917 546 893 613 q 942 404 942 479 q 894 179 942 274 q 750 35 846 85 q 508 -15 654 -15 m 364 494 q 440 520 417 494 q 463 582 463 546 q 439 642 463 615 q 365 669 415 669 q 291 644 317 669 q 265 582 265 619 q 291 519 265 543 q 364 494 317 494 z "},"ಳ":{"ha":918,"x_min":56,"x_max":857,"o":"m 461 -15 q 330 26 376 -15 q 283 138 283 68 q 303 206 283 168 q 379 263 324 244 l 376 240 q 365 238 369 239 q 346 238 360 238 q 224 256 278 238 q 132 310 169 275 q 75 393 94 344 q 56 501 56 442 q 85 637 56 575 q 169 737 114 699 q 304 775 225 775 q 424 726 386 775 q 463 608 463 678 q 426 487 463 533 q 319 440 389 440 q 213 483 250 440 q 176 597 176 525 q 182 641 176 622 q 192 665 188 660 l 196 665 q 135 596 153 635 q 118 521 118 557 q 128 455 118 483 q 165 406 139 426 q 238 374 192 386 q 353 356 283 361 q 482 338 432 350 q 567 296 532 325 l 581 275 q 626 219 610 253 q 642 144 642 185 q 601 31 642 76 q 461 -15 561 -15 m 464 88 q 544 108 517 88 q 572 165 572 129 q 544 224 572 203 q 465 244 517 244 q 385 222 411 244 q 360 164 360 200 q 386 109 360 131 q 464 88 413 88 m 318 535 q 382 555 361 535 q 403 607 403 575 q 381 656 403 635 q 318 676 360 676 q 253 657 275 676 q 232 606 232 638 q 253 553 232 571 q 318 535 275 535 m 574 247 l 490 311 q 626 330 564 314 q 725 381 688 346 q 763 478 763 417 q 724 577 763 535 q 603 643 686 619 l 682 661 q 809 584 767 636 q 851 471 851 532 q 815 351 851 397 q 717 282 779 306 q 574 247 654 258 m 540 639 l 550 760 l 597 760 q 700 767 667 760 q 753 792 733 775 q 785 872 785 817 q 765 953 785 913 q 708 1033 746 994 l 758 1071 q 831 963 806 1021 q 857 840 857 904 q 848 765 857 803 q 807 699 839 728 q 764 668 789 682 q 699 647 739 654 q 592 639 658 639 l 540 639 z "},"ವ":{"ha":1043,"x_min":75,"x_max":968,"o":"m 294 -15 q 173 19 222 -15 q 99 111 124 54 q 75 233 75 168 q 97 340 75 293 q 158 415 118 388 q 254 443 199 443 q 355 408 319 443 q 390 318 390 372 q 357 235 390 265 q 264 196 324 204 l 256 247 q 292 266 279 253 q 306 304 306 279 q 289 345 306 329 q 238 361 272 361 q 165 331 192 361 q 138 253 138 301 q 158 178 138 208 q 216 132 178 147 q 310 117 254 117 q 378 127 347 117 q 433 158 410 138 q 474 208 457 178 q 503 278 492 239 l 550 278 q 585 193 565 229 q 639 137 606 157 q 724 117 672 117 q 792 131 764 117 q 838 169 821 144 q 863 227 856 194 q 871 299 871 260 q 846 431 871 369 q 775 540 821 493 q 665 613 729 586 q 521 639 600 639 l 521 682 q 726 644 640 682 q 865 544 811 606 q 943 412 918 483 q 968 272 968 340 q 957 174 968 225 q 919 81 946 124 q 847 11 892 38 q 735 -15 801 -15 q 631 10 674 -15 q 560 83 588 36 q 517 194 532 131 l 529 193 q 482 85 511 132 q 408 11 453 38 q 294 -15 363 -15 m 82 639 l 90 760 l 708 760 q 811 767 778 760 q 864 792 844 775 q 896 872 896 817 q 876 953 896 913 q 819 1033 857 994 l 869 1071 q 942 963 917 1021 q 968 840 968 904 q 959 765 968 803 q 918 699 950 728 q 875 668 900 682 q 810 647 850 654 q 703 639 769 639 l 82 639 z "},"ಶ":{"ha":904,"x_min":72,"x_max":829,"o":"m 357 -15 q 147 35 221 -15 q 72 168 72 86 q 97 251 72 218 q 161 305 121 283 q 249 341 201 326 q 344 369 297 356 q 432 402 392 383 q 497 450 472 421 q 521 525 521 479 q 485 613 521 582 q 383 644 449 644 q 294 620 328 644 q 261 554 261 596 q 275 507 261 524 q 315 483 289 490 l 313 453 q 290 475 297 461 q 283 506 283 489 q 303 552 283 535 q 349 569 322 569 q 400 549 382 569 q 418 497 418 528 q 394 443 418 463 q 331 424 371 424 q 239 460 278 424 q 200 551 200 497 q 244 656 200 613 q 382 699 288 699 q 541 646 485 699 q 597 521 597 593 q 566 419 597 460 q 485 354 535 379 q 380 313 435 329 q 275 281 325 296 q 194 247 225 267 q 163 194 163 226 q 210 137 163 157 q 349 117 258 117 q 499 136 429 117 q 623 192 569 156 q 707 278 676 228 q 738 393 738 329 q 713 505 738 457 q 638 587 688 553 q 518 643 589 621 l 608 656 q 770 531 711 613 q 829 347 829 450 q 796 200 829 267 q 701 85 763 133 q 552 11 639 38 q 357 -15 465 -15 m 79 639 l 88 760 l 569 760 q 672 767 639 760 q 725 792 706 775 q 757 872 757 817 q 738 953 757 913 q 681 1033 718 994 l 731 1071 q 803 963 778 1021 q 829 840 829 904 q 820 765 829 803 q 779 699 811 728 q 736 668 761 682 q 671 647 711 654 q 564 639 631 639 l 494 639 l 404 664 l 304 639 l 79 639 z "},"ಷ":{"ha":1049,"x_min":75,"x_max":1007,"o":"m 294 -15 q 173 19 222 -15 q 99 111 124 54 q 75 233 75 168 q 97 340 75 293 q 158 415 118 388 q 254 443 199 443 q 355 408 319 443 q 390 318 390 372 q 357 235 390 265 q 264 196 324 204 l 256 247 q 292 266 279 253 q 306 304 306 279 q 289 345 306 329 q 238 361 272 361 q 165 331 192 361 q 138 253 138 301 q 158 178 138 208 q 216 132 178 147 q 310 117 254 117 q 378 127 347 117 q 433 158 410 138 q 474 208 457 178 q 503 278 492 239 l 550 278 q 585 195 564 232 q 643 138 607 158 q 735 117 679 117 q 802 130 774 117 q 849 166 831 143 q 877 221 868 189 q 886 290 886 253 q 850 429 886 372 q 769 528 814 486 q 791 563 776 549 q 825 576 806 576 q 887 538 858 576 q 933 433 915 499 q 951 289 951 368 q 941 195 951 247 q 906 95 931 143 q 842 16 882 47 q 742 -15 801 -15 q 636 11 681 -15 q 563 85 592 38 q 517 193 533 132 l 529 193 q 482 85 511 132 q 408 11 453 38 q 294 -15 363 -15 m 922 -93 l 644 360 l 690 389 l 1007 -37 l 922 -93 m 526 422 q 469 444 490 422 q 447 500 447 467 q 469 556 447 533 q 526 578 492 578 q 584 556 563 578 q 606 500 606 533 q 584 445 606 468 q 526 422 563 422 m 82 639 l 90 760 l 692 760 q 794 767 761 760 q 847 792 828 775 q 879 872 879 817 q 860 953 879 913 q 803 1033 840 994 l 853 1071 q 926 963 900 1021 q 951 840 951 904 q 942 765 951 803 q 901 699 933 728 q 858 668 883 682 q 793 647 833 654 q 686 639 753 639 l 82 639 z "},"ಸ":{"ha":915,"x_min":69,"x_max":840,"o":"m 85 -15 q 74 33 79 6 q 69 90 69 60 q 101 231 69 171 q 191 324 133 290 q 325 357 249 357 q 428 339 385 357 q 505 291 472 321 q 563 224 538 261 q 611 151 589 188 q 638 120 625 131 q 675 110 651 110 q 740 154 719 110 q 761 260 761 199 q 743 403 761 340 q 693 528 725 467 l 749 553 q 811 417 782 493 q 840 238 840 340 q 798 48 840 111 q 694 -15 756 -15 q 631 8 654 -15 q 583 68 607 31 q 538 134 561 104 q 487 185 515 164 q 422 218 458 207 q 335 229 385 229 q 188 182 242 229 q 135 54 135 135 q 137 22 135 39 q 143 -10 139 6 l 85 -15 m 418 419 q 361 443 383 419 q 339 497 339 467 q 361 553 339 531 q 418 576 383 576 q 474 553 453 576 q 494 497 494 531 q 473 443 494 467 q 418 419 451 419 m 76 639 l 86 760 l 581 760 q 683 767 650 760 q 736 792 717 775 q 768 872 768 817 q 749 953 768 913 q 692 1033 729 994 l 742 1071 q 815 963 789 1021 q 840 840 840 904 q 831 765 840 803 q 790 699 822 728 q 747 668 772 682 q 682 647 722 654 q 575 639 642 639 l 76 639 z "},"ಹ":{"ha":1108,"x_min":75,"x_max":1033,"o":"m 75 639 l 85 760 l 753 760 q 856 767 822 760 q 908 792 889 775 q 940 872 940 817 q 921 953 940 913 q 864 1033 901 994 l 914 1071 q 987 963 961 1021 q 1013 840 1013 904 q 1003 765 1013 803 q 963 699 994 728 q 919 668 944 682 q 854 647 894 654 q 747 639 814 639 l 75 639 m 340 -15 q 234 5 282 -15 q 152 62 186 25 q 99 148 118 99 q 81 257 81 197 q 115 397 81 336 q 206 491 149 457 q 331 525 263 525 q 456 490 401 525 q 542 399 511 456 q 572 275 572 342 l 579 261 q 552 119 579 182 q 472 21 525 57 q 340 -15 418 -15 m 339 111 q 428 133 389 111 q 490 194 467 156 q 513 279 513 232 q 490 368 513 329 q 428 429 468 407 q 339 451 389 451 q 251 429 290 451 q 188 368 211 407 q 165 279 165 329 q 188 194 165 232 q 251 133 211 156 q 339 111 290 111 m 574 318 l 518 333 q 500 453 518 397 q 442 550 482 508 q 336 615 401 592 q 176 639 271 639 l 374 653 q 459 608 422 639 q 522 535 496 578 q 560 437 547 492 q 574 318 574 382 m 792 -15 q 683 6 731 -15 q 602 65 635 28 q 552 153 569 103 q 535 261 535 203 q 565 393 535 333 q 651 489 596 453 q 783 525 707 525 q 917 488 861 525 q 1003 390 972 451 q 1033 253 1033 328 q 1002 115 1033 175 q 917 19 971 54 q 792 -15 863 -15 m 776 111 q 865 133 826 111 q 926 194 904 156 q 949 279 949 232 q 926 368 949 329 q 865 429 904 407 q 776 451 826 451 q 687 429 726 451 q 624 368 647 407 q 601 279 601 329 q 624 194 601 232 q 687 133 647 156 q 776 111 726 111 z "},"ೞ":{"ha":1144,"x_min":72,"x_max":1072,"o":"m 338 -15 q 199 31 260 -15 q 106 160 139 78 q 72 347 72 242 q 110 567 72 471 q 211 719 147 664 q 356 775 275 775 q 488 721 440 775 q 536 582 536 667 q 492 451 536 506 q 365 397 447 397 q 251 440 294 397 q 208 558 208 482 q 217 614 208 586 q 240 661 225 642 l 239 640 q 172 535 199 601 q 146 389 146 468 q 174 238 146 299 q 251 147 203 178 q 356 117 299 117 q 450 138 413 117 q 511 195 488 158 q 547 278 535 232 l 599 278 q 634 195 611 232 q 694 138 657 158 q 789 117 732 117 q 895 147 847 117 q 972 238 943 178 q 1000 389 1000 299 q 974 535 1000 468 q 906 640 947 601 l 904 661 q 929 614 921 642 q 938 558 938 586 q 894 440 938 482 q 781 397 851 397 q 653 451 697 397 q 610 582 610 506 q 658 721 610 667 q 789 775 706 775 q 935 719 871 775 q 1035 567 999 664 q 1072 347 1072 471 q 1039 160 1072 242 q 946 31 1006 78 q 808 -15 886 -15 q 693 13 744 -15 q 610 90 642 40 q 569 206 578 140 l 576 206 q 535 90 568 140 q 452 13 503 40 q 338 -15 401 -15 m 367 493 q 442 519 419 493 q 465 582 465 544 q 442 642 465 615 q 369 669 418 669 q 294 644 319 669 q 268 582 268 619 q 294 517 268 542 q 367 493 319 493 m 779 493 q 851 517 826 493 q 876 582 876 542 q 851 644 876 619 q 776 669 825 669 q 703 642 726 669 q 681 582 681 615 q 703 519 681 544 q 779 493 726 493 z "},"಼":{"ha":0,"x_min":-647,"x_max":-178,"o":"m -240 -232 q -286 -215 -267 -232 q -306 -168 -306 -197 q -286 -121 -306 -137 q -240 -104 -267 -104 q -196 -122 -214 -104 q -178 -168 -178 -139 q -197 -215 -178 -199 q -240 -232 -215 -232 m -582 -232 q -628 -215 -608 -232 q -647 -168 -647 -197 q -628 -121 -647 -137 q -582 -104 -608 -104 q -537 -122 -556 -104 q -519 -168 -519 -139 q -538 -215 -519 -199 q -582 -232 -557 -232 z "},"ಽ":{"ha":632,"x_min":-7,"x_max":611,"o":"m 376 -8 q 213 31 283 -8 q 88 132 142 71 q -7 257 35 193 l 39 286 q 135 178 86 224 q 237 106 183 132 q 349 81 290 81 q 442 113 404 81 q 479 200 479 144 q 456 278 479 242 q 394 347 432 314 q 315 412 357 379 q 235 479 272 444 q 174 553 197 514 q 150 640 150 593 q 185 724 150 688 q 294 760 221 760 l 611 760 l 601 639 l 333 639 q 282 625 299 639 q 265 588 265 611 q 290 530 265 558 q 351 472 314 501 q 431 410 389 443 q 511 342 474 378 q 573 264 549 306 q 597 172 597 222 q 535 42 597 92 q 376 -8 472 -8 z "},"ಾ":{"ha":539,"x_min":-332,"x_max":467,"o":"m 214 -15 q 97 12 146 -15 q 21 88 47 39 q -6 199 -6 136 q 17 301 -6 258 q 78 368 40 344 q 157 392 115 392 q 225 367 201 392 q 249 301 249 342 q 230 247 249 269 q 171 224 211 224 q 118 240 139 224 q 97 296 97 257 q 97 315 97 307 q 99 333 97 324 l 117 315 q 72 274 89 303 q 56 207 56 244 q 94 121 56 153 q 203 89 133 89 q 310 119 265 89 q 379 207 356 150 q 403 343 403 264 q 309 571 403 503 q 32 639 215 639 l -332 639 l -322 760 l 44 760 q 363 658 260 760 q 467 340 467 556 q 439 160 467 240 q 355 32 411 79 q 214 -15 299 -15 z "},"ಿ":{"ha":0,"x_min":-557,"x_max":-165,"o":"m -331 722 q -384 739 -365 722 q -403 789 -403 756 q -278 865 -328 819 q -228 985 -228 911 q -251 1074 -228 1036 q -332 1135 -275 1113 l -281 1122 q -266 1084 -271 1107 q -261 1042 -261 1061 q -296 928 -261 969 q -404 888 -331 888 q -515 933 -472 888 q -557 1050 -557 978 q -511 1169 -557 1118 q -378 1221 -465 1221 q -259 1185 -306 1221 q -189 1090 -212 1149 q -165 965 -165 1032 q -190 843 -165 899 q -253 755 -215 788 q -331 722 -290 722 m -408 983 q -342 1003 -364 983 q -319 1054 -319 1022 q -342 1105 -319 1083 q -408 1126 -364 1126 q -476 1104 -457 1126 q -496 1057 -496 1082 q -476 1005 -496 1026 q -408 983 -456 983 z "},"ೀ":{"ha":554,"x_min":-557,"x_max":485,"o":"m 379 -15 q 265 13 324 -15 q 157 97 207 42 q 76 229 107 151 q 46 404 46 307 q 81 599 46 515 q 178 728 117 682 q 317 775 240 775 q 445 718 406 775 q 485 579 485 661 q 445 443 485 496 q 326 390 406 390 q 208 442 251 390 q 164 571 164 493 q 169 618 164 597 q 182 651 175 639 l 201 643 q 152 585 172 618 q 121 510 132 551 q 110 421 110 469 q 149 263 110 336 q 263 140 188 190 q 451 71 339 90 q 434 8 451 32 q 379 -15 417 -15 m 325 494 q 397 519 369 494 q 424 582 424 543 q 397 646 424 622 q 325 669 369 669 q 254 646 282 669 q 226 582 226 622 q 253 519 226 543 q 325 494 281 494 m -331 721 q -384 738 -365 721 q -403 788 -403 754 q -278 864 -328 818 q -228 983 -228 910 q -251 1073 -228 1035 q -332 1133 -275 1111 l -281 1121 q -266 1083 -271 1106 q -261 1040 -261 1060 q -296 927 -261 968 q -404 886 -331 886 q -515 931 -472 886 q -557 1049 -557 976 q -511 1168 -557 1117 q -378 1219 -465 1219 q -259 1183 -306 1219 q -189 1089 -212 1147 q -165 964 -165 1031 q -190 842 -165 897 q -253 753 -215 786 q -331 721 -290 721 m -408 982 q -342 1001 -364 982 q -319 1053 -319 1021 q -342 1103 -319 1082 q -408 1125 -364 1125 q -476 1103 -457 1125 q -496 1056 -496 1081 q -476 1003 -496 1025 q -408 982 -456 982 z "},"ು":{"ha":467,"x_min":-143,"x_max":394,"o":"m 153 -15 q 34 17 85 -15 q -58 111 -17 50 q -143 257 -100 172 l -115 275 q -50 198 -86 235 q 34 139 -14 161 q 149 117 82 117 q 255 144 215 117 q 313 216 294 172 q 331 310 331 260 q 263 497 331 431 q 78 601 196 563 q 72 624 75 610 q 69 653 69 639 q 81 702 69 681 q 117 724 92 724 q 197 692 150 724 q 290 603 244 660 q 365 469 335 546 q 394 304 394 393 q 369 144 394 217 q 290 28 343 71 q 153 -15 236 -15 z "},"ೂ":{"ha":939,"x_min":-143,"x_max":867,"o":"m 144 -15 q 42 16 92 -15 q -54 108 -8 47 q -143 260 -100 169 l -115 278 q 6 155 -56 193 q 124 117 67 117 q 203 149 179 117 q 228 243 228 181 q 226 332 228 283 q 224 432 224 381 q 263 612 224 535 q 372 732 301 689 q 536 775 442 775 q 677 745 615 775 q 781 659 739 715 q 845 524 824 603 q 867 347 867 444 q 839 165 867 247 q 755 33 811 82 q 614 -15 699 -15 q 497 12 546 -15 q 421 88 447 39 q 394 201 394 138 q 417 303 394 261 q 476 369 439 346 q 556 392 513 392 q 625 367 601 392 q 649 301 649 342 q 628 246 649 268 q 572 224 608 224 q 519 243 540 224 q 497 297 497 263 q 497 316 497 308 q 499 333 497 324 l 517 315 q 473 274 490 301 q 456 207 456 246 q 494 121 456 153 q 603 89 532 89 q 749 157 696 89 q 803 346 803 225 q 772 510 803 443 q 684 614 742 578 q 542 650 626 650 q 353 579 418 650 q 288 386 288 508 q 289 288 288 342 q 290 176 290 235 q 256 35 290 85 q 144 -15 221 -15 z "},"ೃ":{"ha":0,"x_min":-376,"x_max":181,"o":"m -106 -614 q -246 -578 -185 -614 q -342 -478 -307 -542 q -376 -333 -376 -414 q -354 -208 -376 -261 q -292 -124 -332 -154 q -199 -93 -251 -93 q -99 -138 -133 -93 q -65 -244 -65 -183 q -100 -353 -65 -312 q -197 -394 -135 -394 q -292 -357 -256 -394 q -329 -257 -329 -319 q -319 -206 -329 -231 q -292 -162 -310 -182 l -307 -242 q -319 -274 -315 -256 q -324 -318 -324 -292 q -267 -447 -324 -394 q -106 -500 -211 -500 q 58 -432 1 -500 q 115 -249 115 -364 q 92 -114 115 -172 q 26 -14 69 -56 q -79 51 -18 28 q -64 87 -79 72 q -19 101 -49 101 q 57 73 21 101 q 121 -5 93 44 q 165 -118 149 -54 q 181 -253 181 -182 q 147 -438 181 -357 q 50 -567 114 -519 q -106 -614 -14 -614 m -201 -306 q -138 -290 -160 -306 q -117 -244 -117 -275 q -139 -198 -117 -214 q -201 -182 -161 -182 q -262 -199 -240 -182 q -285 -244 -285 -215 q -263 -290 -285 -275 q -201 -306 -242 -306 z "},"ೄ":{"ha":603,"x_min":-376,"x_max":638,"o":"m -106 -614 q -246 -578 -185 -614 q -342 -478 -307 -542 q -376 -333 -376 -414 q -354 -208 -376 -261 q -292 -124 -332 -154 q -199 -93 -251 -93 q -99 -138 -133 -93 q -65 -244 -65 -183 q -100 -353 -65 -312 q -197 -394 -135 -394 q -292 -357 -256 -394 q -329 -257 -329 -319 q -319 -206 -329 -231 q -292 -162 -310 -182 l -307 -242 q -319 -274 -315 -256 q -324 -318 -324 -292 q -267 -447 -324 -394 q -106 -500 -211 -500 q 58 -432 1 -500 q 115 -249 115 -364 q 92 -114 115 -172 q 26 -14 69 -56 q -79 51 -18 28 q -62 89 -76 76 q -8 101 -47 101 l 335 101 q 508 62 442 101 q 606 -44 575 22 q 638 -189 638 -110 q 610 -330 638 -271 q 535 -421 582 -389 q 429 -453 488 -453 q 299 -400 353 -453 q 246 -258 246 -347 q 267 -170 246 -207 q 322 -113 288 -133 q 394 -93 356 -93 q 458 -115 436 -93 q 479 -176 479 -136 q 462 -226 479 -206 q 408 -247 444 -247 q 359 -229 376 -247 q 342 -181 342 -211 q 347 -157 342 -167 q 361 -142 351 -147 l 360 -162 q 317 -196 332 -174 q 301 -249 301 -218 q 335 -322 301 -296 q 429 -349 369 -349 q 507 -329 474 -349 q 560 -274 540 -310 q 579 -189 579 -237 q 528 -59 579 -110 q 349 -8 476 -8 l 53 -8 l 24 65 q 105 -12 69 36 q 160 -122 140 -61 q 181 -253 181 -183 q 147 -438 181 -357 q 50 -567 114 -519 q -106 -614 -14 -614 m -201 -306 q -138 -290 -160 -306 q -117 -244 -117 -275 q -139 -198 -117 -214 q -201 -182 -161 -182 q -262 -199 -240 -182 q -285 -244 -285 -215 q -263 -290 -285 -275 q -201 -306 -242 -306 z "},"ೆ":{"ha":0,"x_min":-375,"x_max":0,"o":"m -344 639 l -335 760 l -290 760 q -164 769 -206 760 q -100 801 -122 779 q -73 843 -82 818 q -64 900 -64 868 q -100 998 -64 956 q -207 1040 -136 1040 q -287 1015 -260 1040 q -314 951 -314 989 q -306 913 -314 928 q -283 888 -299 899 l -299 888 l -299 904 q -283 944 -299 928 q -242 960 -268 960 q -198 942 -212 960 q -183 900 -183 924 q -203 854 -183 872 q -258 836 -222 836 q -315 851 -289 836 q -358 894 -342 865 q -375 963 -375 922 q -358 1033 -375 999 q -302 1092 -340 1068 q -204 1115 -264 1115 q -94 1081 -140 1115 q -24 994 -49 1047 q 0 881 0 940 q -31 749 0 803 q -126 667 -61 694 q -296 639 -190 639 l -344 639 z "},"ೇ":{"ha":768,"x_min":-72,"x_max":699,"o":"m -42 639 l -32 760 l 13 760 q 139 769 97 760 q 203 801 181 779 q 230 843 221 818 q 239 900 239 868 q 203 998 239 956 q 96 1040 167 1040 q 16 1015 43 1040 q -11 951 -11 989 q -3 913 -11 928 q 19 888 4 899 l 4 888 l 4 904 q 19 944 4 928 q 61 960 35 960 q 105 942 90 960 q 119 900 119 924 q 100 854 119 872 q 44 836 81 836 q -12 851 14 836 q -56 894 -39 865 q -72 963 -72 922 q -55 1033 -72 999 q 1 1092 -37 1068 q 99 1115 39 1115 q 208 1081 163 1115 q 278 994 254 1047 q 303 881 303 940 q 272 749 303 803 q 177 667 242 694 q 7 639 113 639 l -42 639 m 593 -15 q 479 13 538 -15 q 371 97 421 42 q 290 229 321 151 q 260 404 260 307 q 295 599 260 515 q 392 728 331 682 q 531 775 454 775 q 659 718 619 775 q 699 579 699 661 q 659 443 699 496 q 540 390 619 390 q 422 442 465 390 q 378 571 378 493 q 383 618 378 597 q 396 651 389 639 l 415 643 q 366 585 386 618 q 335 510 346 551 q 324 421 324 469 q 363 263 324 336 q 477 140 401 190 q 665 71 553 90 q 648 8 665 32 q 593 -15 631 -15 m 539 494 q 610 519 583 494 q 638 582 638 543 q 610 646 638 622 q 539 669 583 669 q 468 646 496 669 q 440 582 440 622 q 467 519 440 543 q 539 494 494 494 z "},"ೈ":{"ha":622,"x_min":-131,"x_max":593,"o":"m 310 -614 q 157 -577 221 -614 q 59 -476 93 -540 q 25 -329 25 -411 q 46 -206 25 -258 q 107 -123 67 -153 q 203 -93 147 -93 q 302 -138 268 -93 q 336 -244 336 -183 q 302 -353 336 -312 q 204 -394 268 -394 q 109 -357 146 -394 q 72 -257 72 -319 q 82 -206 72 -231 q 110 -162 92 -182 l 94 -242 q 81 -274 85 -256 q 78 -318 78 -292 q 138 -447 78 -394 q 304 -500 199 -500 q 463 -446 403 -500 q 522 -306 522 -392 q 496 -204 522 -247 q 413 -139 469 -161 l 415 -106 q 474 -41 457 -68 q 492 17 492 -14 q 463 76 492 56 q 382 97 435 97 q 409 144 386 126 q 471 163 432 163 q 550 130 522 163 q 578 53 578 97 q 548 -48 578 -6 q 463 -139 518 -90 l 463 -108 q 534 -159 506 -126 q 578 -235 563 -192 q 593 -328 593 -278 q 557 -474 593 -408 q 457 -576 521 -539 q 310 -614 393 -614 m 200 -306 q 263 -290 240 -306 q 285 -244 285 -275 q 263 -198 285 -214 q 201 -182 242 -182 q 139 -199 161 -182 q 117 -244 117 -215 q 139 -290 117 -275 q 200 -306 161 -306 m -100 639 l -90 760 l -46 760 q 81 769 39 760 q 144 801 122 779 q 172 843 163 818 q 181 900 181 868 q 144 998 181 956 q 38 1040 108 1040 q -42 1015 -15 1040 q -69 951 -69 989 q -62 913 -69 928 q -39 888 -54 899 l -54 888 l -54 904 q -39 944 -54 928 q 3 960 -24 960 q 47 942 32 960 q 61 900 61 924 q 42 854 61 872 q -14 836 22 836 q -71 851 -44 836 q -114 894 -97 865 q -131 963 -131 922 q -113 1033 -131 999 q -58 1092 -96 1068 q 40 1115 -19 1115 q 150 1081 104 1115 q 220 994 196 1047 q 244 881 244 940 q 214 749 244 803 q 119 667 183 694 q -51 639 54 639 l -100 639 z "},"ೊ":{"ha":1122,"x_min":-72,"x_max":1050,"o":"m 328 -15 q 225 16 275 -15 q 129 108 175 47 q 40 260 83 169 l 68 278 q 189 155 128 193 q 307 117 250 117 q 387 149 363 117 q 411 243 411 181 q 409 332 411 283 q 407 432 407 381 q 446 612 407 535 q 555 732 485 689 q 719 775 625 775 q 860 745 799 775 q 965 659 922 715 q 1028 524 1007 603 q 1050 347 1050 444 q 1022 165 1050 247 q 938 33 994 82 q 797 -15 882 -15 q 680 12 729 -15 q 604 88 631 39 q 578 201 578 138 q 600 303 578 261 q 659 369 622 346 q 739 392 696 392 q 808 367 785 392 q 832 301 832 342 q 812 246 832 268 q 756 224 792 224 q 702 243 724 224 q 681 297 681 263 q 681 316 681 308 q 682 333 681 324 l 700 315 q 656 274 674 301 q 639 207 639 246 q 677 121 639 153 q 786 89 715 89 q 933 157 879 89 q 986 346 986 225 q 956 510 986 443 q 867 614 925 578 q 725 650 810 650 q 536 579 601 650 q 471 386 471 508 q 472 288 471 342 q 474 176 474 235 q 439 35 474 85 q 328 -15 404 -15 m -42 639 l -32 760 l 13 760 q 139 769 97 760 q 203 801 181 779 q 230 843 221 818 q 239 900 239 868 q 203 998 239 956 q 96 1040 167 1040 q 16 1015 43 1040 q -11 951 -11 989 q -3 913 -11 928 q 19 888 4 899 l 4 888 l 4 904 q 19 944 4 928 q 61 960 35 960 q 105 942 90 960 q 119 900 119 924 q 100 854 119 872 q 44 836 81 836 q -12 851 14 836 q -56 894 -39 865 q -72 963 -72 922 q -55 1033 -72 999 q 1 1092 -37 1068 q 99 1115 39 1115 q 208 1081 163 1115 q 278 994 254 1047 q 303 881 303 940 q 272 749 303 803 q 177 667 242 694 q 7 639 113 639 l -42 639 z "},"ೋ":{"ha":1676,"x_min":-72,"x_max":1607,"o":"m 328 -15 q 225 16 275 -15 q 129 108 175 47 q 40 260 83 169 l 68 278 q 189 155 128 193 q 307 117 250 117 q 387 149 363 117 q 411 243 411 181 q 409 332 411 283 q 407 432 407 381 q 446 612 407 535 q 555 732 485 689 q 719 775 625 775 q 860 745 799 775 q 965 659 922 715 q 1028 524 1007 603 q 1050 347 1050 444 q 1022 165 1050 247 q 938 33 994 82 q 797 -15 882 -15 q 680 12 729 -15 q 604 88 631 39 q 578 201 578 138 q 600 303 578 261 q 659 369 622 346 q 739 392 696 392 q 808 367 785 392 q 832 301 832 342 q 812 246 832 268 q 756 224 792 224 q 702 243 724 224 q 681 297 681 263 q 681 316 681 308 q 682 333 681 324 l 700 315 q 656 274 674 301 q 639 207 639 246 q 677 121 639 153 q 786 89 715 89 q 933 157 879 89 q 986 346 986 225 q 956 510 986 443 q 867 614 925 578 q 725 650 810 650 q 536 579 601 650 q 471 386 471 508 q 472 288 471 342 q 474 176 474 235 q 439 35 474 85 q 328 -15 404 -15 m -42 639 l -32 760 l 13 760 q 139 769 97 760 q 203 801 181 779 q 230 843 221 818 q 239 900 239 868 q 203 998 239 956 q 96 1040 167 1040 q 16 1015 43 1040 q -11 951 -11 989 q -3 913 -11 928 q 19 888 4 899 l 4 888 l 4 904 q 19 944 4 928 q 61 960 35 960 q 105 942 90 960 q 119 900 119 924 q 100 854 119 872 q 44 836 81 836 q -12 851 14 836 q -56 894 -39 865 q -72 963 -72 922 q -55 1033 -72 999 q 1 1092 -37 1068 q 99 1115 39 1115 q 208 1081 163 1115 q 278 994 254 1047 q 303 881 303 940 q 272 749 303 803 q 177 667 242 694 q 7 639 113 639 l -42 639 m 1501 -15 q 1388 13 1446 -15 q 1279 97 1329 42 q 1199 229 1229 151 q 1168 404 1168 307 q 1203 599 1168 515 q 1301 728 1239 682 q 1439 775 1363 775 q 1567 718 1528 775 q 1607 579 1607 661 q 1567 443 1607 496 q 1449 390 1528 390 q 1330 442 1374 390 q 1286 571 1286 493 q 1292 618 1286 597 q 1304 651 1297 639 l 1324 643 q 1274 585 1294 618 q 1243 510 1254 551 q 1232 421 1232 469 q 1271 263 1232 336 q 1385 140 1310 190 q 1574 71 1461 90 q 1556 8 1574 32 q 1501 -15 1539 -15 m 1447 494 q 1519 519 1492 494 q 1546 582 1546 543 q 1519 646 1546 622 q 1447 669 1492 669 q 1376 646 1404 669 q 1349 582 1349 622 q 1376 519 1349 543 q 1447 494 1403 494 z "},"ೌ":{"ha":626,"x_min":-292,"x_max":594,"o":"m 342 318 q 224 345 274 318 q 147 422 174 372 q 121 535 121 471 q 170 674 121 624 q 283 725 219 725 q 353 700 329 725 q 376 635 376 675 q 356 578 376 600 q 300 556 336 556 q 247 576 268 556 q 225 631 225 596 q 225 649 225 640 q 226 665 225 657 l 244 649 q 199 606 217 635 q 182 540 182 578 q 220 454 182 486 q 331 422 258 422 q 476 490 424 422 q 529 676 529 557 q 503 817 529 756 q 422 918 476 879 q 365 950 396 938 q 285 969 333 963 q 160 976 236 976 l -289 976 l -279 1096 l 172 1096 q 324 1083 264 1096 q 426 1044 385 1071 q 501 978 467 1018 q 571 849 547 924 q 594 678 594 775 q 567 497 594 578 q 483 367 539 415 q 342 318 426 318 m -292 639 l -282 760 l -129 760 q -37 767 -65 760 q 10 792 -8 774 q 36 868 36 818 q 17 953 36 913 q -40 1036 -1 993 l 10 1061 q 83 952 57 1008 q 110 833 110 896 q 99 762 110 797 q 61 699 89 726 q -4 657 38 675 q -128 639 -46 639 l -292 639 z "},"್":{"ha":0,"x_min":-649,"x_max":0,"o":"m -211 399 q -338 461 -296 399 q -381 654 -381 524 l -381 735 q -328 917 -381 851 q -185 982 -276 982 q -95 960 -133 982 q -33 899 -57 939 q 0 800 -8 858 l -56 793 q -101 861 -69 836 q -186 886 -133 886 q -281 844 -244 886 q -318 722 -318 801 l -318 642 q -310 568 -318 603 q -278 513 -301 533 q -210 492 -256 492 q -149 511 -171 492 q -126 565 -126 531 q -159 624 -126 610 q -244 639 -192 639 l -649 639 l -639 760 l -297 760 q -166 739 -217 760 q -90 676 -115 718 q -65 571 -65 635 q -102 450 -65 501 q -211 399 -139 399 z "},"ೕ":{"ha":554,"x_min":46,"x_max":485,"o":"m 379 -15 q 265 13 324 -15 q 157 97 207 42 q 76 229 107 151 q 46 404 46 307 q 81 599 46 515 q 178 728 117 682 q 317 775 240 775 q 445 718 406 775 q 485 579 485 661 q 445 443 485 496 q 326 390 406 390 q 208 442 251 390 q 164 571 164 493 q 169 618 164 597 q 182 651 175 639 l 201 643 q 152 585 172 618 q 121 510 132 551 q 110 421 110 469 q 149 263 110 336 q 263 140 188 190 q 451 71 339 90 q 434 8 451 32 q 379 -15 417 -15 m 325 494 q 397 519 369 494 q 424 582 424 543 q 397 646 424 622 q 325 669 369 669 q 254 646 282 669 q 226 582 226 622 q 253 519 226 543 q 325 494 281 494 z "},"ೖ":{"ha":0,"x_min":-424,"x_max":144,"o":"m -139 -614 q -292 -577 -228 -614 q -390 -476 -356 -540 q -424 -329 -424 -411 q -403 -206 -424 -258 q -342 -123 -382 -153 q -246 -93 -301 -93 q -147 -138 -181 -93 q -112 -244 -112 -183 q -147 -353 -112 -312 q -244 -394 -181 -394 q -340 -357 -303 -394 q -376 -257 -376 -319 q -367 -206 -376 -231 q -339 -162 -357 -182 l -354 -242 q -367 -274 -364 -256 q -371 -318 -371 -292 q -310 -447 -371 -394 q -144 -500 -250 -500 q 14 -446 -46 -500 q 74 -306 74 -392 q 47 -204 74 -247 q -36 -139 21 -161 l -33 -106 q 26 -41 8 -68 q 43 17 43 -14 q 15 76 43 56 q -67 97 -14 97 q -40 144 -62 126 q 22 163 -17 163 q 101 130 74 163 q 129 53 129 97 q 99 -48 129 -6 q 14 -139 69 -90 l 14 -108 q 85 -159 57 -126 q 129 -235 114 -192 q 144 -328 144 -278 q 108 -474 144 -408 q 8 -576 72 -539 q -139 -614 -56 -614 m -249 -306 q -186 -290 -208 -306 q -164 -244 -164 -275 q -185 -198 -164 -214 q -247 -182 -207 -182 q -310 -199 -287 -182 q -332 -244 -332 -215 q -310 -290 -332 -275 q -249 -306 -287 -306 z "},"ೢ":{"ha":0,"x_min":-424,"x_max":308,"o":"m 115 -660 q 17 -623 56 -660 q -22 -531 -22 -586 q -6 -467 -22 -493 q 36 -420 11 -440 q 86 -381 61 -400 q 128 -340 111 -362 q 144 -285 144 -317 q 119 -222 144 -244 q 51 -199 94 -199 q -37 -235 -3 -199 q -79 -332 -72 -271 l -131 -332 q -168 -237 -137 -276 q -258 -199 -199 -199 q -330 -223 -304 -199 q -356 -286 -356 -247 q -344 -334 -356 -312 q -314 -375 -332 -356 l -347 -410 q -401 -342 -379 -382 q -424 -250 -424 -303 q -381 -138 -424 -182 q -267 -94 -337 -94 q -154 -139 -199 -94 q -97 -257 -110 -183 l -111 -257 q -50 -139 -96 -183 q 64 -94 -4 -94 q 180 -145 142 -94 q 218 -261 218 -196 q 201 -337 218 -307 q 160 -387 185 -367 q 109 -426 135 -408 q 67 -463 83 -443 q 50 -511 50 -483 q 69 -554 50 -537 q 124 -571 89 -571 q 210 -533 179 -571 q 256 -444 242 -496 l 308 -453 q 275 -562 299 -515 q 212 -634 251 -608 q 115 -660 172 -660 z "},"ೣ":{"ha":0,"x_min":-424,"x_max":311,"o":"m 115 -618 q 24 -587 56 -618 q -8 -514 -8 -557 q 7 -449 -8 -475 q 45 -405 22 -424 q 91 -368 68 -386 q 129 -327 114 -350 q 144 -271 144 -304 q 119 -220 144 -242 q 51 -199 94 -199 q -37 -235 -3 -199 q -79 -332 -72 -271 l -131 -332 q -168 -237 -137 -276 q -258 -199 -199 -199 q -330 -223 -304 -199 q -356 -286 -356 -247 q -344 -334 -356 -312 q -314 -375 -332 -356 l -347 -410 q -401 -342 -379 -382 q -424 -250 -424 -303 q -381 -138 -424 -182 q -267 -94 -337 -94 q -154 -139 -199 -94 q -97 -257 -110 -183 l -111 -257 q -50 -139 -96 -183 q 64 -94 -4 -94 q 149 -117 115 -94 q 201 -176 183 -140 q 218 -251 218 -212 q 203 -321 218 -292 q 165 -371 188 -350 q 118 -410 142 -392 q 79 -446 94 -428 q 64 -486 64 -464 q 78 -520 64 -508 q 124 -532 93 -532 q 208 -497 179 -532 q 249 -425 236 -461 l 301 -433 q 244 -564 288 -510 q 115 -618 201 -618 m 140 -590 q 94 -633 114 -611 q 74 -683 74 -656 q 88 -717 74 -706 q 133 -729 103 -729 q 195 -712 171 -729 q 235 -669 219 -694 q 258 -619 250 -643 l 311 -628 q 254 -758 297 -704 q 125 -812 211 -812 q 33 -784 65 -812 q 1 -714 1 -756 q 31 -629 1 -660 q 99 -567 60 -599 l 140 -590 z "},"೦":{"ha":803,"x_min":72,"x_max":731,"o":"m 401 -15 q 222 35 296 -15 q 110 175 149 86 q 72 379 72 264 q 110 585 72 496 q 222 724 149 674 q 401 775 296 775 q 581 724 508 775 q 692 585 654 674 q 731 379 731 496 q 692 175 731 264 q 581 35 654 86 q 401 -15 508 -15 m 401 103 q 549 138 490 103 q 638 235 608 172 q 668 379 668 297 q 638 517 668 454 q 549 619 608 581 q 401 657 490 657 q 254 618 314 657 q 165 516 194 579 q 135 379 135 453 q 165 235 135 297 q 254 138 194 172 q 401 103 314 103 z "},"೧":{"ha":835,"x_min":72,"x_max":763,"o":"m 285 -15 q 191 24 240 -15 q 107 147 142 63 q 72 365 72 231 q 110 571 72 478 q 224 719 147 664 q 417 775 301 775 q 610 719 533 775 q 724 571 686 664 q 763 365 763 478 q 728 147 763 231 q 644 24 693 63 q 550 -15 594 -15 q 497 6 518 -15 q 475 58 475 26 q 476 76 475 68 q 479 90 478 85 q 481 90 481 90 q 483 90 482 90 q 594 128 546 90 q 671 228 643 165 q 699 365 699 292 q 665 508 699 443 q 569 613 632 574 q 417 651 507 651 q 265 613 328 651 q 169 508 201 574 q 136 365 136 443 q 164 228 136 292 q 241 128 192 165 q 351 90 290 90 q 353 90 353 90 q 356 90 354 90 q 359 76 358 85 q 360 58 360 68 q 339 6 360 26 q 285 -15 318 -15 z "},"೨":{"ha":835,"x_min":36,"x_max":763,"o":"m 36 0 l 36 119 l 336 119 q 601 194 501 119 q 701 406 701 269 q 674 540 701 481 q 597 633 647 599 q 475 667 546 667 q 356 628 403 667 q 310 529 310 589 q 338 466 310 486 q 400 446 365 446 q 471 469 444 446 q 506 531 497 493 q 557 502 540 525 q 574 456 574 479 q 542 388 574 417 q 449 358 510 358 q 341 386 388 358 q 269 460 294 414 q 243 560 243 506 q 272 674 243 625 q 351 749 300 722 q 469 776 403 776 q 624 734 558 776 q 726 613 690 692 q 763 424 763 535 q 708 201 763 297 q 550 53 653 106 q 301 0 447 0 l 36 0 z "},"೩":{"ha":824,"x_min":42,"x_max":799,"o":"m 236 -15 q 99 28 156 -15 q 42 146 42 71 q 94 261 42 219 q 224 303 146 303 q 339 281 288 303 q 438 228 390 260 q 538 166 486 197 q 652 113 589 135 q 799 92 715 92 q 791 42 799 67 q 761 1 783 17 q 696 -15 739 -15 q 589 12 636 -15 q 501 78 542 39 q 419 158 460 118 q 333 224 379 197 q 229 251 288 251 q 155 231 185 251 q 125 174 125 211 q 156 117 125 138 q 238 97 186 97 q 388 138 317 97 q 505 254 460 179 q 550 432 550 329 q 526 555 550 501 q 456 639 503 608 q 342 669 410 669 q 257 646 293 669 q 221 579 221 622 q 247 524 221 544 q 314 504 274 504 q 376 517 347 504 q 429 553 406 529 q 451 523 443 539 q 458 490 458 507 q 432 438 458 461 q 353 415 406 415 q 251 442 296 415 q 180 513 206 469 q 154 603 154 556 q 206 726 154 678 q 338 775 258 775 q 454 744 403 775 q 540 663 506 714 q 593 546 575 611 q 611 411 611 481 q 581 238 611 317 q 499 103 551 160 q 378 15 446 46 q 236 -15 311 -15 z "},"೪":{"ha":928,"x_min":67,"x_max":847,"o":"m 496 -15 q 342 24 406 -15 q 278 139 278 63 q 313 236 278 199 q 401 299 347 274 q 516 344 456 324 q 631 390 576 365 q 719 453 685 415 q 754 549 754 490 q 719 635 754 601 q 632 668 685 668 q 622 667 628 668 q 613 667 615 667 q 608 683 610 675 q 606 701 606 692 q 628 753 606 732 q 694 775 651 775 q 767 755 732 775 q 824 694 801 735 q 847 593 847 654 q 812 457 847 511 q 721 369 776 403 q 602 312 665 335 q 483 269 539 289 q 392 226 428 250 q 357 165 357 203 q 392 110 357 128 q 496 92 428 92 q 605 113 572 92 q 638 165 638 133 q 605 219 638 197 q 494 250 572 240 q 388 267 438 257 q 297 292 339 278 q 166 355 217 318 q 91 440 115 392 q 67 550 67 489 q 99 678 67 629 q 180 751 131 728 q 279 775 229 775 q 405 731 351 775 q 458 592 458 686 q 444 524 458 557 q 400 469 429 490 q 326 447 371 447 q 253 472 278 447 q 228 522 228 496 q 231 548 228 538 q 238 565 233 558 q 278 550 257 554 q 317 546 300 546 q 374 558 346 546 q 401 600 401 571 q 365 653 401 638 q 283 669 328 669 q 164 631 203 669 q 125 546 125 593 q 151 463 125 497 q 226 408 176 429 q 347 376 276 388 q 452 356 406 367 q 536 335 499 346 q 653 280 617 311 q 699 215 689 249 q 710 149 710 181 q 681 58 710 94 q 603 3 651 21 q 496 -15 554 -15 z "},"೫":{"ha":1004,"x_min":53,"x_max":935,"o":"m 807 -15 q 760 -2 781 -15 q 728 33 739 11 q 717 79 717 56 q 782 102 765 79 q 799 151 799 125 q 778 232 799 192 q 726 314 757 272 q 665 400 696 356 q 614 494 635 444 q 593 599 593 543 q 638 726 593 676 q 764 775 683 775 q 860 749 822 775 q 916 681 897 722 q 935 594 935 639 q 901 474 935 522 q 811 393 868 425 q 688 342 757 361 q 544 311 618 324 q 401 288 471 299 q 276 264 332 278 q 188 228 221 250 q 156 169 156 206 q 183 119 156 139 q 260 99 211 99 q 378 135 331 99 q 449 238 425 171 q 474 401 474 306 q 464 495 474 447 q 433 583 454 543 q 374 647 411 622 q 279 672 336 672 q 198 655 229 672 q 167 603 167 638 q 195 554 167 569 q 256 539 224 539 q 293 544 271 539 q 333 558 315 549 q 342 540 339 551 q 344 517 344 529 q 322 465 344 489 q 251 442 300 442 q 171 465 203 442 q 124 526 139 489 q 110 601 110 563 q 160 728 110 682 q 286 775 210 775 q 405 740 357 775 q 482 647 453 706 q 524 517 511 588 q 536 372 536 446 q 503 168 536 256 q 406 33 471 81 q 247 -15 342 -15 q 103 33 154 -15 q 53 143 53 81 q 99 252 53 213 q 218 313 146 292 q 346 340 276 329 q 487 360 415 350 q 624 384 558 369 q 742 422 690 399 q 824 484 793 446 q 854 581 854 522 q 833 644 854 618 q 767 671 811 671 q 698 641 724 671 q 672 563 672 611 q 695 463 672 511 q 752 369 718 415 q 821 278 786 324 q 878 186 856 233 q 901 88 901 139 q 875 13 901 42 q 807 -15 849 -15 z "},"೬":{"ha":786,"x_min":69,"x_max":750,"o":"m 429 0 q 233 44 311 0 q 115 159 154 89 q 76 306 76 229 q 122 461 76 396 q 240 561 168 526 q 393 596 313 596 q 576 542 514 596 q 638 414 638 489 q 587 298 638 342 q 458 254 536 254 q 342 281 386 254 q 274 351 299 307 q 231 447 249 394 q 196 555 214 500 q 149 657 178 610 q 69 735 119 704 q 103 763 81 750 q 156 775 125 775 q 226 750 201 775 q 265 685 251 725 q 285 596 278 644 q 300 499 293 547 q 322 410 307 450 q 364 344 336 369 q 439 319 392 319 q 509 345 482 319 q 536 418 536 371 q 498 500 536 467 q 386 533 460 533 q 262 510 317 533 q 176 441 207 486 q 146 329 146 396 q 178 219 146 267 q 278 143 211 171 q 444 115 344 115 l 750 115 l 750 0 l 429 0 z "},"೭":{"ha":799,"x_min":56,"x_max":721,"o":"m 276 0 q 110 43 165 0 q 56 158 56 86 q 78 238 56 201 q 147 310 101 274 q 258 388 192 346 q 372 462 326 431 q 440 521 417 493 q 463 581 463 549 q 435 641 463 618 q 354 664 407 664 q 273 640 301 664 q 244 578 244 615 q 251 544 244 560 q 268 514 258 528 l 232 492 q 190 545 207 514 q 172 618 172 576 q 226 731 172 688 q 369 775 281 775 q 517 728 468 775 q 565 615 565 681 q 535 525 565 565 q 453 450 504 485 q 343 376 403 415 q 250 315 292 343 q 185 261 208 288 q 161 204 161 235 q 197 138 161 160 q 304 117 232 117 l 721 117 l 721 0 l 276 0 z "},"೮":{"ha":1007,"x_min":72,"x_max":951,"o":"m 917 257 q 869 111 917 172 q 738 17 821 50 q 549 -15 656 -15 q 294 40 401 -15 q 130 192 188 94 q 72 418 72 290 q 92 549 72 486 q 147 663 111 613 q 232 744 182 714 q 342 774 282 774 q 456 725 419 774 q 492 611 492 676 q 451 495 492 539 q 346 451 411 451 q 240 493 282 451 q 199 604 199 535 q 203 644 199 626 q 217 672 208 663 l 225 668 q 176 608 197 646 q 143 524 154 569 q 132 428 132 478 q 181 264 132 338 q 322 147 229 190 q 543 104 414 104 q 761 157 692 104 q 831 290 831 210 q 813 365 831 331 q 769 431 796 399 q 717 494 743 463 q 673 560 690 526 q 656 632 656 593 q 700 727 656 694 q 813 760 744 760 l 951 760 l 951 643 l 825 643 q 767 631 788 643 q 747 589 747 618 q 765 535 747 563 q 807 476 782 507 q 857 413 832 446 q 899 340 882 379 q 917 257 917 301 m 251 613 q 275 561 251 581 q 343 542 299 542 q 413 562 392 542 q 435 613 435 582 q 413 663 435 640 q 344 685 390 685 q 275 664 299 685 q 251 613 251 643 z "},"೯":{"ha":826,"x_min":75,"x_max":788,"o":"m 446 -15 q 309 21 368 -15 q 217 116 250 57 q 185 247 185 175 q 220 384 185 325 q 316 476 256 443 q 450 510 376 510 q 574 473 532 510 q 615 382 615 436 q 563 283 615 318 q 417 247 510 247 q 224 287 300 247 q 112 388 149 326 q 75 513 75 449 q 118 645 75 590 q 238 730 161 700 q 417 760 315 760 l 788 760 l 788 643 l 414 643 q 220 603 286 643 q 154 488 154 563 q 181 403 154 444 q 264 333 207 361 q 410 306 321 306 q 517 328 488 306 q 547 382 547 350 q 523 431 547 411 q 450 451 499 451 q 360 430 401 451 q 293 371 318 408 q 268 283 268 333 q 326 154 268 199 q 475 110 385 110 q 533 114 506 110 q 583 126 560 118 q 590 106 588 117 q 592 88 592 96 q 553 10 592 36 q 446 -15 514 -15 z "},"ೱ":{"ha":747,"x_min":69,"x_max":678,"o":"m 69 42 l 69 81 l 574 665 q 531 663 554 664 q 476 663 508 663 l 299 663 q 245 663 268 663 q 203 665 222 664 l 678 81 l 678 42 l 69 42 m 156 100 q 209 103 181 103 q 272 104 238 104 l 447 104 q 510 103 482 104 q 563 100 538 103 l 88 679 l 88 718 l 660 718 l 660 679 l 156 100 z "},"ೲ":{"ha":1015,"x_min":69,"x_max":946,"o":"m 750 144 q 651 171 696 144 q 581 247 607 197 q 554 367 554 297 q 581 485 554 436 q 651 561 607 535 q 750 588 696 588 q 889 528 832 588 q 946 367 946 469 q 919 247 946 297 q 849 171 893 197 q 750 144 804 144 m 264 144 q 167 171 211 144 q 96 247 122 197 q 69 367 69 297 q 126 528 69 469 q 264 588 183 588 q 363 561 318 588 q 433 485 407 535 q 460 367 460 436 q 433 247 460 297 q 363 171 407 197 q 264 144 318 144 m 264 249 q 363 283 326 249 q 399 367 399 317 q 363 449 399 415 q 264 483 326 483 q 165 449 201 483 q 129 367 129 415 q 165 283 129 317 q 264 249 201 249 m 750 249 q 849 283 813 249 q 885 367 885 317 q 849 449 885 415 q 750 483 813 483 q 650 449 686 483 q 614 367 614 415 q 650 283 614 317 q 750 249 686 249 z "},"ೝ":{"ha":810,"x_min":63,"x_max":776,"o":"m 149 250 q 89 208 111 238 q 67 140 67 179 q 109 39 67 78 q 244 0 151 0 l 532 0 l 532 89 l 258 89 q 172 101 201 89 q 143 147 143 114 q 172 193 143 181 q 258 206 201 206 l 532 206 l 532 294 l 258 294 q 171 308 200 294 q 142 356 142 321 q 171 399 142 388 q 260 411 200 411 l 532 411 l 532 500 l 260 500 q 171 517 199 500 q 143 571 143 533 q 173 622 143 606 q 271 639 203 639 l 763 639 l 776 760 l 310 760 q 125 719 188 760 q 63 590 63 679 q 83 510 63 546 q 138 458 104 474 q 85 420 106 446 q 65 358 65 394 q 88 290 65 318 q 149 250 111 263 z "},"ೳ":{"ha":401,"x_min":33,"x_max":379,"o":"m 379 815 q 331 670 379 722 q 206 618 283 618 q 81 670 128 618 q 33 815 33 722 q 81 960 33 910 q 206 1010 128 1010 q 331 960 283 1010 q 379 815 379 910 m 86 815 q 119 747 86 774 q 206 721 151 721 q 292 747 260 721 q 325 815 325 774 q 292 881 325 856 q 206 906 260 906 q 119 881 151 906 q 86 815 86 856 z "},"।":{"ha":310,"x_min":136,"x_max":226,"o":"m 136 0 l 136 760 l 226 760 l 226 0 l 136 0 z "},"॥":{"ha":610,"x_min":136,"x_max":529,"o":"m 136 0 l 136 760 l 226 760 l 226 0 l 136 0 m 439 0 l 439 760 l 529 760 l 529 0 l 439 0 z "},"꠰":{"ha":297,"x_min":103,"x_max":194,"o":"m 115 -7 l 103 -7 l 103 806 l 182 856 l 194 856 l 194 43 l 115 -7 z "},"꠱":{"ha":551,"x_min":103,"x_max":451,"o":"m 115 -7 l 103 -7 l 103 806 l 182 856 l 194 856 l 194 43 l 115 -7 m 372 -7 l 360 -7 l 360 806 l 439 856 l 451 856 l 451 43 l 372 -7 z "},"꠲":{"ha":710,"x_min":53,"x_max":657,"o":"m 65 -7 l 53 -7 l 53 806 l 132 856 l 144 856 l 144 43 l 65 -7 m 321 -7 l 308 -7 l 308 806 l 388 856 l 400 856 l 400 43 l 321 -7 m 578 -7 l 565 -7 l 565 806 l 644 856 l 657 856 l 657 43 l 578 -7 z "},"꠳":{"ha":864,"x_min":68,"x_max":796,"o":"m 772 381 l 68 381 l 92 472 l 796 472 l 772 381 z "},"꠴":{"ha":864,"x_min":68,"x_max":796,"o":"m 772 526 l 68 526 l 92 618 l 796 618 l 772 526 m 772 235 l 68 235 l 92 326 l 796 326 l 772 235 z "},"꠵":{"ha":864,"x_min":68,"x_max":796,"o":"m 772 671 l 68 671 l 92 763 l 796 763 l 772 671 m 772 381 l 68 381 l 92 472 l 796 472 l 772 381 m 772 90 l 68 90 l 92 182 l 796 182 l 772 90 z "},"॑":{"ha":0,"x_min":-462,"x_max":-362,"o":"m -362 1124 l -362 832 l -462 832 l -462 1124 l -362 1124 z "},"॒":{"ha":0,"x_min":-708,"x_max":-117,"o":"m -708 -250 l -708 -156 l -117 -156 l -117 -250 l -708 -250 z "},"᳐":{"ha":0,"x_min":-633,"x_max":-194,"o":"m -633 863 l -468 1122 l -376 1122 l -194 857 l -261 829 l -400 1042 l -525 825 l -633 863 z "},"᳒":{"ha":0,"x_min":-640,"x_max":-185,"o":"m -640 1026 l -185 1026 l -185 933 l -640 933 l -640 1026 z "},"᳚":{"ha":0,"x_min":-550,"x_max":-275,"o":"m -456 1124 l -456 831 l -550 831 l -550 1124 l -456 1124 m -275 1124 l -275 831 l -369 831 l -369 1124 l -275 1124 z "},"ᳲ":{"ha":685,"x_min":35,"x_max":650,"o":"m 528 654 l 650 628 q 533 424 610 488 q 344 361 456 361 q 138 436 214 361 q 35 640 61 511 l 97 654 q 178 510 125 557 q 322 464 232 464 q 449 509 399 464 q 528 654 500 554 m 157 -6 l 35 19 q 152 224 75 161 q 340 288 229 288 q 547 213 471 288 q 650 7 624 138 l 588 -6 q 506 137 560 90 q 363 183 453 183 q 235 138 286 183 q 157 -6 185 93 z "},"᳴":{"ha":0,"x_min":-629,"x_max":-197,"o":"m -412 833 q -527 858 -478 833 q -603 930 -576 882 q -629 1046 -629 978 q -626 1085 -629 1065 q -618 1122 -624 1106 l -557 1108 q -562 1075 -561 1090 q -564 1049 -564 1060 q -528 953 -564 983 q -442 924 -493 924 q -345 951 -383 924 q -307 1051 -307 979 q -308 1076 -307 1063 q -312 1103 -310 1089 l -206 1122 q -199 1085 -201 1106 q -197 1046 -197 1064 q -226 931 -197 979 q -303 858 -254 883 q -412 833 -351 833 z "},"ᳵ":{"ha":747,"x_min":69,"x_max":678,"o":"m 69 42 l 69 81 l 574 665 q 531 663 554 664 q 476 663 508 663 l 299 663 q 245 663 268 663 q 203 665 222 664 l 678 81 l 678 42 l 69 42 m 156 100 q 209 103 181 103 q 272 104 238 104 l 447 104 q 510 103 482 104 q 563 100 538 103 l 88 679 l 88 718 l 660 718 l 660 679 l 156 100 z "},"!":{"ha":453,"x_min":143,"x_max":308,"o":"m 196 275 l 151 992 l 300 992 l 256 275 l 196 275 m 225 -10 q 167 10 190 -10 q 143 82 143 31 q 167 153 143 133 q 225 172 190 172 q 284 153 260 172 q 308 82 308 133 q 284 10 308 31 q 225 -10 260 -10 z "},"\"":{"ha":549,"x_min":78,"x_max":471,"o":"m 372 672 l 332 992 l 471 992 l 432 672 l 372 672 m 115 672 l 78 992 l 215 992 l 176 672 l 115 672 z "},"#":{"ha":776,"x_min":33,"x_max":742,"o":"m 111 0 l 164 285 l 33 285 l 33 361 l 178 361 l 232 639 l 79 639 l 79 717 l 246 717 l 297 992 l 376 992 l 325 717 l 524 717 l 576 992 l 656 992 l 603 717 l 742 717 l 742 639 l 588 639 l 536 361 l 696 361 l 696 285 l 521 285 l 467 0 l 388 0 l 442 285 l 243 285 l 190 0 l 111 0 m 260 361 l 458 361 l 510 639 l 311 639 l 260 361 z "},"%":{"ha":1243,"x_min":64,"x_max":1178,"o":"m 325 0 l 825 992 l 911 992 l 411 0 l 325 0 m 289 389 q 117 474 171 389 q 64 699 64 560 q 118 922 64 839 q 290 1006 172 1006 q 458 922 401 1006 q 514 699 514 839 q 489 536 514 606 q 415 428 464 467 q 289 389 365 389 m 289 443 q 353 474 329 443 q 387 562 376 504 q 397 699 397 619 q 374 884 397 818 q 289 950 350 950 q 224 920 249 950 q 190 834 200 890 q 179 699 179 778 q 204 510 179 578 q 289 443 229 443 m 953 -14 q 781 72 835 -14 q 728 296 728 157 q 781 519 728 436 q 954 603 835 603 q 1122 519 1065 603 q 1178 296 1178 436 q 1153 133 1178 203 q 1078 25 1128 64 q 953 -14 1029 -14 m 953 40 q 1017 71 993 40 q 1050 159 1040 101 q 1060 296 1060 217 q 1037 481 1060 415 q 954 547 1014 547 q 889 517 914 547 q 853 431 864 488 q 843 296 843 375 q 868 108 843 175 q 953 40 893 40 z "},"'":{"ha":293,"x_min":78,"x_max":215,"o":"m 115 672 l 78 992 l 215 992 l 176 672 l 115 672 z "},"(":{"ha":471,"x_min":79,"x_max":426,"o":"m 426 -175 q 225 -47 301 -126 q 114 151 149 32 q 79 440 79 271 q 114 728 79 610 q 225 926 149 847 q 426 1053 301 1004 l 426 993 q 311 891 354 951 q 247 758 268 831 q 219 604 226 685 q 213 440 213 524 q 219 276 213 357 q 247 122 226 196 q 311 -12 268 49 q 426 -115 354 -72 l 426 -175 z "},")":{"ha":471,"x_min":47,"x_max":394,"o":"m 47 -175 l 47 -115 q 162 -12 119 -72 q 226 122 204 49 q 254 276 247 196 q 261 440 261 357 q 254 604 261 524 q 226 758 247 685 q 162 891 204 831 q 47 993 119 951 l 47 1053 q 249 926 172 1004 q 360 728 325 847 q 394 440 394 610 q 360 151 394 271 q 249 -47 325 32 q 47 -175 172 -126 z "},"*":{"ha":683,"x_min":57,"x_max":617,"o":"m 281 525 l 314 747 l 104 615 l 57 719 l 289 790 l 57 863 l 104 967 l 315 833 l 281 1056 l 394 1056 l 358 833 l 571 963 l 617 861 l 385 790 l 617 721 l 571 618 l 358 747 l 396 525 l 281 525 z "},"+":{"ha":776,"x_min":89,"x_max":686,"o":"m 347 199 l 347 458 l 89 458 l 89 536 l 347 536 l 347 794 l 426 794 l 426 536 l 686 536 l 686 458 l 426 458 l 426 199 l 347 199 z "},",":{"ha":289,"x_min":-26,"x_max":194,"o":"m -26 -214 l -26 -158 q 48 -124 19 -143 q 90 -82 76 -106 q 104 -32 104 -58 q 90 0 104 -11 q 56 22 75 11 q 22 48 36 32 q 7 93 7 64 q 31 151 7 131 q 92 172 56 172 q 164 142 133 172 q 194 53 194 111 q 144 -106 194 -33 q -26 -214 94 -178 z "},"-":{"ha":431,"x_min":33,"x_max":396,"o":"m 33 329 l 33 428 l 396 428 l 396 329 l 33 329 z "},".":{"ha":267,"x_min":7,"x_max":172,"o":"m 89 -10 q 31 10 54 -10 q 7 82 7 31 q 31 153 7 133 q 89 172 54 172 q 148 153 124 172 q 172 82 172 133 q 148 10 172 31 q 89 -10 124 -10 z "},"/":{"ha":400,"x_min":0,"x_max":400,"o":"m 0 -168 l 324 1056 l 400 1056 l 78 -168 l 0 -168 z "},":":{"ha":389,"x_min":113,"x_max":278,"o":"m 196 567 q 137 586 161 567 q 113 657 113 606 q 137 728 113 710 q 196 747 161 747 q 253 728 229 747 q 278 657 278 710 q 253 586 278 606 q 196 567 229 567 m 196 -10 q 137 10 161 -10 q 113 82 113 31 q 137 153 113 133 q 196 172 161 172 q 253 153 229 172 q 278 82 278 133 q 253 10 278 31 q 196 -10 229 -10 z "},";":{"ha":397,"x_min":65,"x_max":286,"o":"m 65 -214 l 65 -158 q 140 -124 111 -143 q 182 -82 168 -106 q 196 -32 196 -58 q 181 0 196 -11 q 147 22 167 11 q 112 48 126 32 q 97 93 97 64 q 122 151 97 131 q 183 172 147 172 q 255 142 224 172 q 286 53 286 111 q 236 -106 286 -33 q 65 -214 186 -178 m 196 567 q 137 586 161 567 q 113 657 113 606 q 137 728 113 710 q 196 747 161 747 q 253 728 229 747 q 278 657 278 710 q 253 586 278 606 q 196 567 229 567 z "},"<":{"ha":776,"x_min":90,"x_max":686,"o":"m 686 154 l 90 472 l 90 521 l 686 840 l 686 753 l 211 496 l 686 242 l 686 154 z "},"=":{"ha":776,"x_min":90,"x_max":686,"o":"m 90 594 l 90 672 l 686 672 l 686 594 l 90 594 m 90 318 l 90 397 l 686 397 l 686 318 l 90 318 z "},">":{"ha":776,"x_min":90,"x_max":686,"o":"m 90 154 l 90 242 l 565 496 l 90 753 l 90 840 l 686 521 l 686 472 l 90 154 z "},"?":{"ha":689,"x_min":60,"x_max":615,"o":"m 271 279 l 271 489 q 398 567 351 522 q 465 666 444 613 q 485 776 485 719 q 447 895 485 850 q 326 940 410 940 q 232 916 267 940 q 182 852 197 892 q 167 764 167 813 q 90 785 121 764 q 60 850 60 807 q 87 928 60 893 q 171 985 114 964 q 317 1006 228 1006 q 472 976 404 1006 q 577 890 539 946 q 615 756 615 835 q 585 621 615 679 q 495 518 554 563 q 350 438 436 474 l 350 279 l 271 279 m 310 -10 q 251 10 275 -10 q 226 82 226 31 q 251 153 226 133 q 310 172 275 172 q 367 153 342 172 q 392 82 392 133 q 367 10 392 31 q 310 -10 342 -10 z "},"[":{"ha":490,"x_min":139,"x_max":439,"o":"m 139 -178 l 139 1056 l 439 1056 l 439 1000 l 375 1000 q 319 993 344 1000 q 280 965 294 986 q 265 897 265 943 l 265 -21 q 280 -87 265 -65 q 319 -115 294 -108 q 375 -122 344 -122 l 439 -122 l 439 -178 l 139 -178 z "},"\\":{"ha":400,"x_min":0,"x_max":400,"o":"m 322 -168 l 0 1056 l 76 1056 l 400 -168 l 322 -168 z "},"]":{"ha":490,"x_min":51,"x_max":351,"o":"m 51 -178 l 51 -122 l 115 -122 q 172 -115 147 -122 q 210 -87 196 -108 q 225 -21 225 -65 l 225 897 q 210 965 225 943 q 172 993 196 986 q 115 1000 147 1000 l 51 1000 l 51 1056 l 351 1056 l 351 -178 l 51 -178 z "},"^":{"ha":776,"x_min":71,"x_max":703,"o":"m 71 371 l 364 992 l 410 992 l 703 371 l 615 371 l 386 872 l 160 371 l 71 371 z "},"_":{"ha":638,"x_min":-7,"x_max":644,"o":"m -7 -193 l -7 -115 l 644 -115 l 644 -193 l -7 -193 z "},"{":{"ha":599,"x_min":79,"x_max":525,"o":"m 439 -178 q 294 -124 344 -178 q 244 21 244 -69 l 244 263 q 222 352 244 321 q 163 397 200 383 q 79 413 126 411 l 79 467 q 163 481 126 468 q 222 526 200 494 q 244 615 244 558 l 244 858 q 294 1004 244 953 q 439 1056 344 1056 l 525 1056 l 525 999 l 485 999 q 397 962 424 999 q 371 851 371 925 l 371 613 q 333 499 371 544 q 218 442 294 454 l 218 440 q 333 382 296 428 q 371 267 371 336 l 371 26 q 397 -83 371 -46 q 485 -121 424 -121 l 525 -121 l 525 -178 l 439 -178 z "},"|":{"ha":776,"x_min":347,"x_max":428,"o":"m 347 -333 l 347 1056 l 428 1056 l 428 -333 l 347 -333 z "},"}":{"ha":592,"x_min":72,"x_max":519,"o":"m 72 -178 l 72 -121 l 115 -121 q 203 -83 176 -121 q 229 26 229 -46 l 229 267 q 266 382 229 336 q 381 440 303 428 l 381 442 q 267 499 306 454 q 229 613 229 544 l 229 851 q 203 962 229 925 q 114 999 176 999 l 72 999 l 72 1056 l 160 1056 q 305 1004 256 1056 q 354 858 354 953 l 354 615 q 376 526 354 558 q 436 481 399 494 q 519 467 474 468 l 519 413 q 436 397 474 411 q 376 352 399 383 q 354 263 354 321 l 354 21 q 305 -124 354 -69 q 160 -178 256 -178 l 72 -178 z "},"~":{"ha":776,"x_min":76,"x_max":699,"o":"m 76 375 q 89 457 81 415 q 115 535 97 499 q 164 593 133 571 q 243 615 194 615 q 303 605 276 615 q 358 574 331 594 q 417 524 385 553 q 475 474 447 496 q 532 453 503 453 q 576 472 560 453 q 603 528 593 492 q 619 615 613 565 l 699 615 q 685 539 694 581 q 658 460 676 497 q 610 399 640 422 q 531 375 579 375 q 471 386 499 375 q 417 417 443 397 q 367 463 392 438 q 326 500 346 483 q 286 527 306 517 q 243 538 267 538 q 183 497 203 538 q 154 375 163 457 l 76 375 z "},"‐":{"ha":431,"x_min":33,"x_max":396,"o":"m 33 329 l 33 428 l 396 428 l 396 329 l 33 329 z "},"­":{"ha":431,"x_min":33,"x_max":396,"o":"m 33 329 l 33 428 l 396 428 l 396 329 l 33 329 z "},"–":{"ha":694,"x_min":-7,"x_max":701,"o":"m -7 335 l -7 413 l 701 413 l 701 335 l -7 335 z "},"—":{"ha":1389,"x_min":-7,"x_max":1396,"o":"m -7 335 l -7 413 l 1396 413 l 1396 335 l -7 335 z "},"‘":{"ha":342,"x_min":78,"x_max":299,"o":"m 181 607 q 109 638 140 607 q 78 725 78 668 q 128 885 78 811 q 299 993 179 958 l 299 938 q 225 904 254 924 q 182 861 196 885 q 168 810 168 838 q 183 778 168 789 q 218 758 199 768 q 253 733 238 749 q 268 686 268 717 q 243 627 268 647 q 181 607 218 607 z "},"’":{"ha":342,"x_min":43,"x_max":264,"o":"m 43 606 l 43 661 q 117 695 89 676 q 160 738 146 714 q 174 788 174 761 q 158 819 174 808 q 124 840 143 831 q 89 866 104 850 q 74 913 74 882 q 99 972 74 951 q 161 992 125 992 q 233 961 201 992 q 264 872 264 931 q 213 714 264 786 q 43 606 163 642 z "},"“":{"ha":614,"x_min":78,"x_max":571,"o":"m 453 607 q 380 638 411 607 q 349 725 349 668 q 399 885 349 811 q 571 993 450 958 l 571 938 q 497 904 526 924 q 453 861 467 885 q 439 810 439 838 q 454 778 439 789 q 489 758 469 768 q 524 733 508 749 q 539 686 539 717 q 514 627 539 647 q 453 607 489 607 m 181 607 q 109 638 140 607 q 78 725 78 668 q 128 885 78 811 q 299 993 179 958 l 299 938 q 225 904 254 924 q 182 861 196 885 q 168 810 168 838 q 183 778 168 789 q 218 758 199 768 q 253 733 238 749 q 268 686 268 717 q 243 627 268 647 q 181 607 218 607 z "},"”":{"ha":614,"x_min":43,"x_max":536,"o":"m 315 606 l 315 661 q 389 695 360 676 q 432 738 418 714 q 446 788 446 761 q 431 819 446 808 q 396 840 415 831 q 361 866 376 850 q 346 913 346 882 q 371 972 346 951 q 432 992 396 992 q 505 961 474 992 q 536 872 536 931 q 485 714 536 786 q 315 606 435 642 m 43 606 l 43 661 q 117 695 89 676 q 160 738 146 714 q 174 788 174 761 q 158 819 174 808 q 124 840 143 831 q 89 866 104 850 q 74 913 74 882 q 99 972 74 951 q 161 992 125 992 q 233 961 201 992 q 264 872 264 931 q 213 714 264 786 q 43 606 163 642 z "},"…":{"ha":1165,"x_min":113,"x_max":1053,"o":"m 971 -10 q 912 10 936 -10 q 888 82 888 31 q 912 153 888 133 q 971 172 936 172 q 1028 153 1004 172 q 1053 82 1053 133 q 1028 10 1053 31 q 971 -10 1004 -10 m 194 -10 q 136 10 160 -10 q 113 82 113 31 q 136 153 113 133 q 194 172 160 172 q 253 153 228 172 q 278 82 278 133 q 253 10 278 31 q 194 -10 228 -10 m 583 -10 q 524 10 549 -10 q 500 82 500 31 q 524 153 500 133 q 583 172 549 172 q 641 153 617 172 q 665 82 665 133 q 641 10 665 31 q 583 -10 617 -10 z "},"×":{"ha":776,"x_min":97,"x_max":678,"o":"m 153 207 l 97 264 l 332 499 l 97 732 l 153 786 l 388 551 l 622 788 l 678 732 l 443 497 l 678 263 l 622 207 l 388 442 l 153 207 z "},"÷":{"ha":776,"x_min":90,"x_max":686,"o":"m 90 458 l 90 536 l 686 536 l 686 458 l 90 458 m 389 161 q 339 178 358 161 q 319 236 319 194 q 339 295 319 279 q 389 311 358 311 q 438 295 418 311 q 458 236 458 279 q 438 178 458 194 q 389 161 418 161 m 389 683 q 339 699 358 683 q 319 757 319 715 q 339 816 319 800 q 389 832 358 832 q 438 816 418 832 q 458 757 458 800 q 438 699 458 715 q 389 683 418 683 z "},"−":{"ha":776,"x_min":90,"x_max":686,"o":"m 90 458 l 90 536 l 686 536 l 686 458 l 90 458 z "},"₹":{"ha":776,"x_min":85,"x_max":731,"o":"m 546 0 q 417 10 464 0 q 340 48 369 21 q 281 126 311 75 l 86 469 l 86 506 l 197 506 q 330 524 278 506 q 409 583 382 542 q 440 693 436 625 l 85 693 l 85 754 l 439 754 q 423 832 436 799 q 384 887 410 865 q 318 919 358 908 q 221 931 278 931 l 85 931 l 85 992 l 731 992 l 731 931 l 489 931 q 535 885 517 911 q 565 826 554 858 q 579 754 576 793 l 731 754 l 731 693 l 578 693 q 539 571 572 626 q 435 481 506 515 q 249 443 365 447 l 411 168 q 480 85 446 113 q 558 57 514 57 l 579 57 l 579 0 l 546 0 z "},"◌":{"ha":825,"x_min":67,"x_max":758,"o":"m 413 678 q 388 689 399 678 q 376 714 376 700 q 388 740 376 729 q 413 750 399 750 q 438 740 428 750 q 449 714 449 729 q 438 689 449 700 q 413 678 428 678 m 529 653 q 504 664 515 653 q 493 689 493 675 q 504 715 493 704 q 529 725 515 725 q 555 715 544 725 q 565 689 565 704 q 555 664 565 675 q 529 653 544 653 m 632 588 q 607 599 618 588 q 596 624 596 610 q 607 649 596 639 q 632 660 618 660 q 658 649 647 660 q 668 624 668 639 q 658 599 668 610 q 632 588 647 588 m 697 485 q 672 496 683 485 q 661 521 661 507 q 672 547 661 536 q 697 557 683 557 q 723 547 713 557 q 733 521 733 536 q 723 496 733 507 q 697 485 713 485 m 722 368 q 697 379 708 368 q 686 404 686 390 q 697 430 686 419 q 722 440 708 440 q 748 430 738 440 q 758 404 758 419 q 748 379 758 390 q 722 368 738 368 m 697 251 q 672 263 683 251 q 661 288 661 274 q 672 313 661 303 q 697 324 683 324 q 723 313 713 324 q 733 288 733 303 q 723 263 733 274 q 697 251 713 251 m 632 149 q 607 160 618 149 q 596 185 596 171 q 607 210 596 200 q 632 221 618 221 q 658 210 647 221 q 668 185 668 200 q 658 160 668 171 q 632 149 647 149 m 529 83 q 504 94 515 83 q 493 119 493 106 q 504 145 493 135 q 529 156 515 156 q 555 145 544 156 q 565 119 565 135 q 555 94 565 106 q 529 83 544 83 m 413 58 q 388 69 399 58 q 376 94 376 81 q 388 120 376 110 q 413 131 399 131 q 438 120 428 131 q 449 94 449 110 q 438 69 449 81 q 413 58 428 58 m 296 83 q 271 94 282 83 q 260 119 260 106 q 271 145 260 135 q 296 156 282 156 q 322 145 311 156 q 332 119 332 135 q 322 94 332 106 q 296 83 311 83 m 193 149 q 168 160 179 149 q 157 185 157 171 q 168 210 157 200 q 193 221 179 221 q 219 210 208 221 q 229 185 229 200 q 219 160 229 171 q 193 149 208 149 m 128 251 q 103 263 114 251 q 92 288 92 274 q 103 313 92 303 q 128 324 114 324 q 153 313 143 324 q 164 288 164 303 q 153 263 164 274 q 128 251 143 251 m 103 368 q 78 379 89 368 q 67 404 67 390 q 78 430 67 419 q 103 440 89 440 q 128 430 118 440 q 139 404 139 419 q 128 379 139 390 q 103 368 118 368 m 128 485 q 103 496 114 485 q 92 521 92 507 q 103 547 92 536 q 128 557 114 557 q 153 547 143 557 q 164 521 164 536 q 153 496 164 507 q 128 485 143 485 m 193 588 q 168 599 179 588 q 157 624 157 610 q 168 649 157 639 q 193 660 179 660 q 219 649 208 660 q 229 624 229 639 q 219 599 229 610 q 193 588 208 588 m 296 653 q 271 664 282 653 q 260 689 260 675 q 271 715 260 704 q 296 725 282 725 q 322 715 311 725 q 332 689 332 704 q 322 664 332 675 q 296 653 311 653 z "},"​":{"ha":0,"x_min":0,"x_max":0,"o":""},"‍":{"ha":0,"x_min":0,"x_max":0,"o":""},"‌":{"ha":0,"x_min":0,"x_max":0,"o":""},"A":{"ha":979,"x_min":0,"x_max":979,"o":"m 0 0 l 0 58 l 26 58 q 71 67 54 58 q 101 99 88 75 q 132 167 115 122 l 440 992 l 549 992 l 863 132 q 886 87 874 103 q 917 65 899 71 q 961 58 935 58 l 979 58 l 979 0 l 597 0 l 597 58 l 629 58 q 692 74 671 58 q 713 125 713 90 q 711 141 713 133 q 708 158 710 149 q 701 176 706 167 l 646 332 l 281 332 l 228 186 q 221 164 224 175 q 217 144 218 153 q 215 126 215 135 q 238 75 215 92 q 307 58 261 58 l 339 58 l 339 0 l 0 0 m 307 401 l 621 401 l 535 644 q 508 724 521 686 q 484 796 494 761 q 465 864 474 831 q 449 799 458 831 q 429 734 440 768 q 401 657 418 700 l 307 401 z "},"Æ":{"ha":1321,"x_min":0,"x_max":1263,"o":"m 0 0 l 0 58 l 22 58 q 88 85 58 58 q 146 167 117 111 l 547 926 l 439 933 l 439 992 l 1208 992 l 1215 749 l 1143 749 l 1136 808 q 1103 888 1131 854 q 1014 922 1076 921 l 781 922 l 781 553 l 1115 553 l 1115 485 l 781 485 l 781 69 l 1049 69 q 1144 103 1114 69 q 1181 183 1174 138 l 1190 243 l 1263 243 l 1253 0 l 508 0 l 508 58 l 526 58 q 583 65 557 58 q 624 91 608 71 q 640 151 639 111 l 640 332 l 321 332 l 244 186 q 228 144 233 164 q 222 113 222 125 q 244 72 222 85 q 306 58 265 58 l 338 58 l 338 0 l 0 0 m 357 401 l 640 401 l 640 922 l 621 922 l 357 401 z "},"Á":{"ha":979,"x_min":0,"x_max":979,"o":"m 0 0 l 0 58 l 26 58 q 71 67 54 58 q 101 99 88 75 q 132 167 115 122 l 440 992 l 549 992 l 863 132 q 886 87 874 103 q 917 65 899 71 q 961 58 935 58 l 979 58 l 979 0 l 597 0 l 597 58 l 629 58 q 692 74 671 58 q 713 125 713 90 q 711 141 713 133 q 708 158 710 149 q 701 176 706 167 l 646 332 l 281 332 l 228 186 q 221 164 224 175 q 217 144 218 153 q 215 126 215 135 q 238 75 215 92 q 307 58 261 58 l 339 58 l 339 0 l 0 0 m 307 401 l 621 401 l 535 644 q 508 724 521 686 q 484 796 494 761 q 465 864 474 831 q 449 799 458 831 q 429 734 440 768 q 401 657 418 700 l 307 401 m 432 1089 q 475 1151 453 1115 q 518 1225 497 1188 q 553 1293 539 1263 l 701 1293 l 701 1279 q 664 1233 689 1261 q 608 1175 639 1206 q 544 1117 576 1144 q 485 1071 513 1090 l 432 1071 l 432 1089 z "},"Ă":{"ha":979,"x_min":0,"x_max":979,"o":"m 0 0 l 0 58 l 26 58 q 71 67 54 58 q 101 99 88 75 q 132 167 115 122 l 440 992 l 549 992 l 863 132 q 886 87 874 103 q 917 65 899 71 q 961 58 935 58 l 979 58 l 979 0 l 597 0 l 597 58 l 629 58 q 692 74 671 58 q 713 125 713 90 q 711 141 713 133 q 708 158 710 149 q 701 176 706 167 l 646 332 l 281 332 l 228 186 q 221 164 224 175 q 217 144 218 153 q 215 126 215 135 q 238 75 215 92 q 307 58 261 58 l 339 58 l 339 0 l 0 0 m 307 401 l 621 401 l 535 644 q 508 724 521 686 q 484 796 494 761 q 465 864 474 831 q 449 799 458 831 q 429 734 440 768 q 401 657 418 700 l 307 401 m 486 1071 q 378 1097 421 1071 q 314 1166 335 1122 q 292 1261 293 1210 l 356 1261 q 401 1189 367 1211 q 486 1167 435 1167 q 572 1189 538 1167 q 617 1261 606 1211 l 681 1261 q 658 1166 679 1210 q 595 1097 638 1122 q 486 1071 553 1071 z "},"Â":{"ha":979,"x_min":0,"x_max":979,"o":"m 0 0 l 0 58 l 26 58 q 71 67 54 58 q 101 99 88 75 q 132 167 115 122 l 440 992 l 549 992 l 863 132 q 886 87 874 103 q 917 65 899 71 q 961 58 935 58 l 979 58 l 979 0 l 597 0 l 597 58 l 629 58 q 692 74 671 58 q 713 125 713 90 q 711 141 713 133 q 708 158 710 149 q 701 176 706 167 l 646 332 l 281 332 l 228 186 q 221 164 224 175 q 217 144 218 153 q 215 126 215 135 q 238 75 215 92 q 307 58 261 58 l 339 58 l 339 0 l 0 0 m 307 401 l 621 401 l 535 644 q 508 724 521 686 q 484 796 494 761 q 465 864 474 831 q 449 799 458 831 q 429 734 440 768 q 401 657 418 700 l 307 401 m 286 1089 q 335 1151 308 1115 q 386 1225 361 1188 q 425 1293 411 1263 l 557 1293 q 597 1225 572 1263 q 648 1151 621 1188 q 696 1089 675 1115 l 696 1071 l 642 1071 q 588 1107 615 1086 q 536 1151 561 1128 q 490 1196 511 1174 q 444 1151 469 1174 q 393 1107 419 1128 q 340 1071 367 1086 l 286 1071 l 286 1089 z "},"Ä":{"ha":979,"x_min":0,"x_max":979,"o":"m 0 0 l 0 58 l 26 58 q 71 67 54 58 q 101 99 88 75 q 132 167 115 122 l 440 992 l 549 992 l 863 132 q 886 87 874 103 q 917 65 899 71 q 961 58 935 58 l 979 58 l 979 0 l 597 0 l 597 58 l 629 58 q 692 74 671 58 q 713 125 713 90 q 711 141 713 133 q 708 158 710 149 q 701 176 706 167 l 646 332 l 281 332 l 228 186 q 221 164 224 175 q 217 144 218 153 q 215 126 215 135 q 238 75 215 92 q 307 58 261 58 l 339 58 l 339 0 l 0 0 m 307 401 l 621 401 l 535 644 q 508 724 521 686 q 484 796 494 761 q 465 864 474 831 q 449 799 458 831 q 429 734 440 768 q 401 657 418 700 l 307 401 m 622 1107 q 572 1124 592 1107 q 551 1185 551 1142 q 572 1246 551 1229 q 622 1263 592 1263 q 672 1246 651 1263 q 693 1185 693 1229 q 672 1124 693 1142 q 622 1107 651 1107 m 358 1107 q 308 1124 328 1107 q 288 1185 288 1142 q 308 1246 288 1229 q 358 1263 328 1263 q 408 1246 388 1263 q 429 1185 429 1229 q 408 1124 429 1142 q 358 1107 388 1107 z "},"À":{"ha":979,"x_min":0,"x_max":979,"o":"m 0 0 l 0 58 l 26 58 q 71 67 54 58 q 101 99 88 75 q 132 167 115 122 l 440 992 l 549 992 l 863 132 q 886 87 874 103 q 917 65 899 71 q 961 58 935 58 l 979 58 l 979 0 l 597 0 l 597 58 l 629 58 q 692 74 671 58 q 713 125 713 90 q 711 141 713 133 q 708 158 710 149 q 701 176 706 167 l 646 332 l 281 332 l 228 186 q 221 164 224 175 q 217 144 218 153 q 215 126 215 135 q 238 75 215 92 q 307 58 261 58 l 339 58 l 339 0 l 0 0 m 307 401 l 621 401 l 535 644 q 508 724 521 686 q 484 796 494 761 q 465 864 474 831 q 449 799 458 831 q 429 734 440 768 q 401 657 418 700 l 307 401 m 493 1071 q 433 1117 465 1090 q 370 1175 401 1144 q 314 1233 339 1206 q 276 1279 289 1261 l 276 1293 l 425 1293 q 460 1225 440 1263 q 503 1151 481 1188 q 546 1089 526 1115 l 546 1071 l 493 1071 z "},"Ā":{"ha":979,"x_min":0,"x_max":979,"o":"m 0 0 l 0 58 l 26 58 q 71 67 54 58 q 101 99 88 75 q 132 167 115 122 l 440 992 l 549 992 l 863 132 q 886 87 874 103 q 917 65 899 71 q 961 58 935 58 l 979 58 l 979 0 l 597 0 l 597 58 l 629 58 q 692 74 671 58 q 713 125 713 90 q 711 141 713 133 q 708 158 710 149 q 701 176 706 167 l 646 332 l 281 332 l 228 186 q 221 164 224 175 q 217 144 218 153 q 215 126 215 135 q 238 75 215 92 q 307 58 261 58 l 339 58 l 339 0 l 0 0 m 307 401 l 621 401 l 535 644 q 508 724 521 686 q 484 796 494 761 q 465 864 474 831 q 449 799 458 831 q 429 734 440 768 q 401 657 418 700 l 307 401 m 285 1085 l 285 1167 l 688 1167 l 688 1085 l 285 1085 z "},"Ą":{"ha":979,"x_min":0,"x_max":979,"o":"m 0 0 l 0 58 l 26 58 q 71 67 54 58 q 101 99 88 75 q 132 167 115 122 l 440 992 l 549 992 l 863 132 q 886 87 874 103 q 917 65 899 71 q 961 58 935 58 l 979 58 l 979 0 l 597 0 l 597 58 l 629 58 q 692 74 671 58 q 713 125 713 90 q 711 141 713 133 q 708 158 710 149 q 701 176 706 167 l 646 332 l 281 332 l 228 186 q 221 164 224 175 q 217 144 218 153 q 215 126 215 135 q 238 75 215 92 q 307 58 261 58 l 339 58 l 339 0 l 0 0 m 307 401 l 621 401 l 535 644 q 508 724 521 686 q 484 796 494 761 q 465 864 474 831 q 449 799 458 831 q 429 734 440 768 q 401 657 418 700 l 307 401 m 835 -333 q 695 -297 746 -333 q 644 -181 644 -260 q 668 -100 644 -137 q 729 -36 692 -62 q 808 0 767 -10 l 888 0 q 828 -30 858 -8 q 778 -83 799 -51 q 758 -160 758 -115 q 785 -226 758 -206 q 854 -247 813 -247 q 895 -244 874 -247 q 942 -236 917 -242 l 942 -311 q 908 -323 928 -318 q 869 -331 889 -328 q 835 -333 850 -333 z "},"Å":{"ha":979,"x_min":0,"x_max":979,"o":"m 0 0 l 0 58 l 26 58 q 87 79 67 58 q 132 167 107 100 l 419 935 q 351 985 376 950 q 325 1075 325 1021 q 374 1188 325 1149 q 492 1226 422 1226 q 610 1188 561 1226 q 658 1075 658 1149 q 633 988 658 1024 q 568 938 608 953 l 863 132 q 899 74 878 89 q 961 58 921 58 l 979 58 l 979 0 l 597 0 l 597 58 l 629 58 q 692 74 671 58 q 713 125 713 90 q 710 149 713 136 q 701 176 707 161 l 646 332 l 281 332 l 228 186 q 221 164 224 175 q 217 144 218 153 q 215 126 215 135 q 238 75 215 92 q 307 58 261 58 l 339 58 l 339 0 l 0 0 m 307 401 l 621 401 l 535 644 q 508 724 521 686 q 484 796 494 761 q 465 864 474 831 q 449 799 458 831 q 429 734 440 768 q 401 657 418 700 l 307 401 m 492 992 q 556 1011 529 992 q 583 1075 583 1031 q 556 1139 583 1119 q 492 1158 529 1158 q 427 1139 454 1158 q 400 1075 400 1119 q 427 1011 400 1031 q 492 992 454 992 z "},"Ã":{"ha":979,"x_min":0,"x_max":979,"o":"m 0 0 l 0 58 l 26 58 q 71 67 54 58 q 101 99 88 75 q 132 167 115 122 l 440 992 l 549 992 l 863 132 q 886 87 874 103 q 917 65 899 71 q 961 58 935 58 l 979 58 l 979 0 l 597 0 l 597 58 l 629 58 q 692 74 671 58 q 713 125 713 90 q 711 141 713 133 q 708 158 710 149 q 701 176 706 167 l 646 332 l 281 332 l 228 186 q 221 164 224 175 q 217 144 218 153 q 215 126 215 135 q 238 75 215 92 q 307 58 261 58 l 339 58 l 339 0 l 0 0 m 307 401 l 621 401 l 535 644 q 508 724 521 686 q 484 796 494 761 q 465 864 474 831 q 449 799 458 831 q 429 734 440 768 q 401 657 418 700 l 307 401 m 592 1071 q 524 1084 554 1071 q 467 1115 493 1097 q 419 1145 442 1132 q 374 1158 396 1158 q 321 1135 332 1158 q 306 1085 310 1113 l 243 1085 q 262 1165 246 1128 q 309 1225 278 1201 q 390 1249 340 1249 q 458 1235 428 1249 q 513 1205 488 1222 q 562 1174 539 1188 q 607 1161 585 1161 q 659 1184 647 1161 q 675 1235 671 1207 l 738 1235 q 719 1156 735 1193 q 672 1094 703 1118 q 592 1071 642 1071 z "},"B":{"ha":908,"x_min":53,"x_max":824,"o":"m 53 0 l 53 58 l 71 58 q 128 65 103 58 q 169 94 154 72 q 185 158 185 115 l 185 839 q 169 901 185 881 q 127 927 153 921 q 71 933 101 933 l 53 933 l 53 992 l 425 992 q 694 931 606 992 q 782 743 782 871 q 760 639 782 682 q 699 569 738 596 q 610 525 660 542 l 610 519 q 764 441 704 503 q 824 268 824 379 q 735 67 824 133 q 467 0 647 0 l 53 0 m 460 69 q 626 115 578 69 q 675 272 675 161 q 656 392 675 344 q 590 462 636 439 q 463 485 544 485 l 325 485 l 325 69 l 460 69 m 421 554 q 549 574 503 554 q 614 635 594 593 q 633 743 633 676 q 585 884 633 846 q 418 922 536 922 l 325 922 l 325 554 l 421 554 z "},"C":{"ha":853,"x_min":79,"x_max":806,"o":"m 501 -14 q 269 50 364 -14 q 127 228 175 114 q 79 497 79 343 q 130 762 79 647 q 280 941 181 876 q 525 1006 379 1006 q 682 985 619 1006 q 775 930 744 965 q 806 850 806 894 q 771 779 806 806 q 685 753 736 753 q 669 837 685 796 q 619 905 654 878 q 522 932 583 932 q 354 881 418 932 q 262 733 290 831 q 233 497 233 636 q 263 278 233 374 q 357 131 293 183 q 522 78 421 78 q 638 94 590 78 q 717 138 685 111 q 774 196 750 165 q 792 176 785 189 q 800 142 800 163 q 782 88 800 115 q 728 38 764 61 q 635 1 692 15 q 501 -14 579 -14 z "},"Ć":{"ha":853,"x_min":79,"x_max":806,"o":"m 501 -14 q 269 50 364 -14 q 127 228 175 114 q 79 497 79 343 q 130 762 79 647 q 280 941 181 876 q 525 1006 379 1006 q 682 985 619 1006 q 775 930 744 965 q 806 850 806 894 q 771 779 806 806 q 685 753 736 753 q 669 837 685 796 q 619 905 654 878 q 522 932 583 932 q 354 881 418 932 q 262 733 290 831 q 233 497 233 636 q 263 278 233 374 q 357 131 293 183 q 522 78 421 78 q 638 94 590 78 q 717 138 685 111 q 774 196 750 165 q 792 176 785 189 q 800 142 800 163 q 782 88 800 115 q 728 38 764 61 q 635 1 692 15 q 501 -14 579 -14 m 446 1089 q 489 1151 467 1115 q 532 1225 511 1188 q 567 1293 553 1263 l 715 1293 l 715 1279 q 678 1233 703 1261 q 622 1175 653 1206 q 558 1117 590 1144 q 499 1071 526 1090 l 446 1071 l 446 1089 z "},"Č":{"ha":853,"x_min":79,"x_max":806,"o":"m 501 -14 q 269 50 364 -14 q 127 228 175 114 q 79 497 79 343 q 130 762 79 647 q 280 941 181 876 q 525 1006 379 1006 q 682 985 619 1006 q 775 930 744 965 q 806 850 806 894 q 771 779 806 806 q 685 753 736 753 q 669 837 685 796 q 619 905 654 878 q 522 932 583 932 q 354 881 418 932 q 262 733 290 831 q 233 497 233 636 q 263 278 233 374 q 357 131 293 183 q 522 78 421 78 q 638 94 590 78 q 717 138 685 111 q 774 196 750 165 q 792 176 785 189 q 800 142 800 163 q 782 88 800 115 q 728 38 764 61 q 635 1 692 15 q 501 -14 579 -14 m 435 1071 q 396 1140 421 1103 q 344 1213 371 1176 q 296 1275 318 1249 l 296 1293 l 350 1293 q 403 1256 376 1278 q 454 1212 429 1235 q 500 1167 479 1189 q 546 1212 521 1189 q 598 1256 571 1235 q 651 1293 625 1278 l 706 1293 l 706 1275 q 658 1213 685 1249 q 606 1140 631 1176 q 567 1071 582 1103 l 435 1071 z "},"Ç":{"ha":853,"x_min":79,"x_max":806,"o":"m 501 -14 q 269 50 364 -14 q 127 228 175 114 q 79 497 79 343 q 130 762 79 647 q 280 941 181 876 q 525 1006 379 1006 q 682 985 619 1006 q 775 930 744 965 q 806 850 806 894 q 771 779 806 806 q 685 753 736 753 q 669 837 685 796 q 619 905 654 878 q 522 932 583 932 q 354 881 418 932 q 262 733 290 831 q 233 497 233 636 q 263 278 233 374 q 357 131 293 183 q 522 78 421 78 q 638 94 590 78 q 717 138 685 111 q 774 196 750 165 q 792 176 785 189 q 800 142 800 163 q 782 88 800 115 q 728 38 764 61 q 635 1 692 15 q 501 -14 579 -14 m 457 -333 q 424 -331 443 -333 q 386 -326 406 -329 q 350 -318 367 -322 l 350 -247 q 401 -256 375 -253 q 444 -258 426 -258 q 507 -237 485 -258 q 529 -181 529 -215 q 499 -119 529 -140 q 425 -96 469 -99 l 454 13 l 519 13 l 506 -47 q 581 -67 551 -50 q 626 -110 611 -83 q 640 -175 640 -137 q 593 -291 640 -249 q 457 -333 546 -333 z "},"Ċ":{"ha":853,"x_min":79,"x_max":806,"o":"m 501 -14 q 269 50 364 -14 q 127 228 175 114 q 79 497 79 343 q 130 762 79 647 q 280 941 181 876 q 525 1006 379 1006 q 682 985 619 1006 q 775 930 744 965 q 806 850 806 894 q 771 779 806 806 q 685 753 736 753 q 669 837 685 796 q 619 905 654 878 q 522 932 583 932 q 354 881 418 932 q 262 733 290 831 q 233 497 233 636 q 263 278 233 374 q 357 131 293 183 q 522 78 421 78 q 638 94 590 78 q 717 138 685 111 q 774 196 750 165 q 792 176 785 189 q 800 142 800 163 q 782 88 800 115 q 728 38 764 61 q 635 1 692 15 q 501 -14 579 -14 m 521 1113 q 465 1132 488 1113 q 442 1199 442 1151 q 465 1266 442 1247 q 521 1285 488 1285 q 576 1266 553 1285 q 600 1199 600 1247 q 576 1132 600 1151 q 521 1113 553 1113 z "},"D":{"ha":1010,"x_min":53,"x_max":931,"o":"m 53 0 l 53 58 l 71 58 q 128 65 103 58 q 169 94 154 72 q 185 158 185 115 l 185 839 q 169 901 185 881 q 127 927 153 921 q 71 933 101 933 l 53 933 l 53 992 l 478 992 q 722 934 621 992 q 877 766 824 876 q 931 497 931 656 q 880 234 931 346 q 729 61 829 122 q 478 0 629 0 l 53 0 m 446 71 q 630 120 557 71 q 740 265 703 169 q 776 497 776 360 q 740 729 776 635 q 630 873 703 824 q 447 922 557 922 l 325 922 l 325 71 l 446 71 z "},"Ď":{"ha":1010,"x_min":53,"x_max":931,"o":"m 53 0 l 53 58 l 71 58 q 128 65 103 58 q 169 94 154 72 q 185 158 185 115 l 185 839 q 169 901 185 881 q 127 927 153 921 q 71 933 101 933 l 53 933 l 53 992 l 478 992 q 722 934 621 992 q 877 766 824 876 q 931 497 931 656 q 880 234 931 346 q 729 61 829 122 q 478 0 629 0 l 53 0 m 446 71 q 630 120 557 71 q 740 265 703 169 q 776 497 776 360 q 740 729 776 635 q 630 873 703 824 q 447 922 557 922 l 325 922 l 325 71 l 446 71 m 394 1071 q 356 1140 381 1103 q 304 1213 331 1176 q 256 1275 278 1249 l 256 1293 l 310 1293 q 363 1256 336 1278 q 414 1212 389 1235 q 460 1167 439 1189 q 506 1212 481 1189 q 558 1256 531 1235 q 611 1293 585 1278 l 665 1293 l 665 1275 q 617 1213 644 1249 q 566 1140 590 1176 q 526 1071 542 1103 l 394 1071 z "},"Đ":{"ha":1010,"x_min":53,"x_max":931,"o":"m 53 0 l 53 58 l 71 58 q 128 65 103 58 q 169 94 154 72 q 185 158 185 115 l 185 485 l 53 485 l 53 553 l 185 553 l 185 839 q 169 901 185 881 q 127 927 153 921 q 71 933 101 933 l 53 933 l 53 992 l 478 992 q 722 934 621 992 q 877 766 824 876 q 931 497 931 656 q 880 234 931 346 q 729 61 829 122 q 478 0 629 0 l 53 0 m 446 71 q 630 120 557 71 q 740 265 703 169 q 776 497 776 360 q 740 729 776 635 q 630 873 703 824 q 447 922 557 922 l 325 922 l 325 553 l 561 553 l 561 485 l 325 485 l 325 71 l 446 71 z "},"E":{"ha":865,"x_min":53,"x_max":807,"o":"m 53 0 l 53 58 l 71 58 q 127 65 101 58 q 169 91 153 71 q 185 151 185 111 l 185 833 q 169 899 185 878 q 128 926 154 919 q 71 933 103 933 l 53 933 l 53 992 l 753 992 l 760 749 l 688 749 l 681 808 q 648 888 675 854 q 558 922 621 922 l 325 922 l 325 553 l 660 553 l 660 485 l 325 485 l 325 69 l 593 69 q 688 103 658 69 q 725 183 718 138 l 735 243 l 807 243 l 797 0 l 53 0 z "},"É":{"ha":865,"x_min":53,"x_max":807,"o":"m 53 0 l 53 58 l 71 58 q 127 65 101 58 q 169 91 153 71 q 185 151 185 111 l 185 833 q 169 899 185 878 q 128 926 154 919 q 71 933 103 933 l 53 933 l 53 992 l 753 992 l 760 749 l 688 749 l 681 808 q 648 888 675 854 q 558 922 621 922 l 325 922 l 325 553 l 660 553 l 660 485 l 325 485 l 325 69 l 593 69 q 688 103 658 69 q 725 183 718 138 l 735 243 l 807 243 l 797 0 l 53 0 m 369 1089 q 413 1151 390 1115 q 456 1225 435 1188 q 490 1293 476 1263 l 639 1293 l 639 1279 q 601 1233 626 1261 q 545 1175 576 1206 q 482 1117 514 1144 q 422 1071 450 1090 l 369 1071 l 369 1089 z "},"Ě":{"ha":865,"x_min":53,"x_max":807,"o":"m 53 0 l 53 58 l 71 58 q 127 65 101 58 q 169 91 153 71 q 185 151 185 111 l 185 833 q 169 899 185 878 q 128 926 154 919 q 71 933 103 933 l 53 933 l 53 992 l 753 992 l 760 749 l 688 749 l 681 808 q 648 888 675 854 q 558 922 621 922 l 325 922 l 325 553 l 660 553 l 660 485 l 325 485 l 325 69 l 593 69 q 688 103 658 69 q 725 183 718 138 l 735 243 l 807 243 l 797 0 l 53 0 m 364 1071 q 325 1140 350 1103 q 274 1213 300 1176 q 225 1275 247 1249 l 225 1293 l 279 1293 q 332 1256 306 1278 q 383 1212 358 1235 q 429 1167 408 1189 q 475 1212 450 1189 q 527 1256 500 1235 q 581 1293 554 1278 l 635 1293 l 635 1275 q 587 1213 614 1249 q 535 1140 560 1176 q 496 1071 511 1103 l 364 1071 z "},"Ê":{"ha":865,"x_min":53,"x_max":807,"o":"m 53 0 l 53 58 l 71 58 q 127 65 101 58 q 169 91 153 71 q 185 151 185 111 l 185 833 q 169 899 185 878 q 128 926 154 919 q 71 933 103 933 l 53 933 l 53 992 l 753 992 l 760 749 l 688 749 l 681 808 q 648 888 675 854 q 558 922 621 922 l 325 922 l 325 553 l 660 553 l 660 485 l 325 485 l 325 69 l 593 69 q 688 103 658 69 q 725 183 718 138 l 735 243 l 807 243 l 797 0 l 53 0 m 238 1089 q 286 1151 260 1115 q 338 1225 313 1188 q 376 1293 363 1263 l 508 1293 q 548 1225 524 1263 q 599 1151 572 1188 q 647 1089 626 1115 l 647 1071 l 593 1071 q 540 1107 567 1086 q 488 1151 513 1128 q 442 1196 463 1174 q 396 1151 421 1174 q 344 1107 371 1128 q 292 1071 318 1086 l 238 1071 l 238 1089 z "},"Ë":{"ha":865,"x_min":53,"x_max":807,"o":"m 53 0 l 53 58 l 71 58 q 127 65 101 58 q 169 91 153 71 q 185 151 185 111 l 185 833 q 169 899 185 878 q 128 926 154 919 q 71 933 103 933 l 53 933 l 53 992 l 753 992 l 760 749 l 688 749 l 681 808 q 648 888 675 854 q 558 922 621 922 l 325 922 l 325 553 l 660 553 l 660 485 l 325 485 l 325 69 l 593 69 q 688 103 658 69 q 725 183 718 138 l 735 243 l 807 243 l 797 0 l 53 0 m 567 1107 q 516 1124 536 1107 q 496 1185 496 1142 q 516 1246 496 1229 q 567 1263 536 1263 q 617 1246 596 1263 q 638 1185 638 1229 q 617 1124 638 1142 q 567 1107 596 1107 m 303 1107 q 252 1124 272 1107 q 232 1185 232 1142 q 252 1246 232 1229 q 303 1263 272 1263 q 353 1246 332 1263 q 374 1185 374 1229 q 353 1124 374 1142 q 303 1107 332 1107 z "},"Ė":{"ha":865,"x_min":53,"x_max":807,"o":"m 53 0 l 53 58 l 71 58 q 127 65 101 58 q 169 91 153 71 q 185 151 185 111 l 185 833 q 169 899 185 878 q 128 926 154 919 q 71 933 103 933 l 53 933 l 53 992 l 753 992 l 760 749 l 688 749 l 681 808 q 648 888 675 854 q 558 922 621 922 l 325 922 l 325 553 l 660 553 l 660 485 l 325 485 l 325 69 l 593 69 q 688 103 658 69 q 725 183 718 138 l 735 243 l 807 243 l 797 0 l 53 0 m 447 1093 q 391 1113 414 1093 q 368 1179 368 1132 q 391 1247 368 1228 q 447 1265 414 1265 q 503 1247 479 1265 q 526 1179 526 1228 q 503 1113 526 1132 q 447 1093 479 1093 z "},"È":{"ha":865,"x_min":53,"x_max":807,"o":"m 53 0 l 53 58 l 71 58 q 127 65 101 58 q 169 91 153 71 q 185 151 185 111 l 185 833 q 169 899 185 878 q 128 926 154 919 q 71 933 103 933 l 53 933 l 53 992 l 753 992 l 760 749 l 688 749 l 681 808 q 648 888 675 854 q 558 922 621 922 l 325 922 l 325 553 l 660 553 l 660 485 l 325 485 l 325 69 l 593 69 q 688 103 658 69 q 725 183 718 138 l 735 243 l 807 243 l 797 0 l 53 0 m 450 1071 q 390 1117 422 1090 q 327 1175 358 1144 q 271 1233 296 1206 q 233 1279 246 1261 l 233 1293 l 382 1293 q 417 1225 397 1263 q 460 1151 438 1188 q 503 1089 483 1115 l 503 1071 l 450 1071 z "},"Ē":{"ha":865,"x_min":53,"x_max":807,"o":"m 53 0 l 53 58 l 71 58 q 127 65 101 58 q 169 91 153 71 q 185 151 185 111 l 185 833 q 169 899 185 878 q 128 926 154 919 q 71 933 103 933 l 53 933 l 53 992 l 753 992 l 760 749 l 688 749 l 681 808 q 648 888 675 854 q 558 922 621 922 l 325 922 l 325 553 l 660 553 l 660 485 l 325 485 l 325 69 l 593 69 q 688 103 658 69 q 725 183 718 138 l 735 243 l 807 243 l 797 0 l 53 0 m 240 1085 l 240 1167 l 643 1167 l 643 1085 l 240 1085 z "},"Ŋ":{"ha":1060,"x_min":53,"x_max":1021,"o":"m 646 -333 l 646 -268 l 665 -268 q 741 -245 710 -268 q 788 -166 772 -222 q 804 -12 804 -110 l 804 0 l 269 800 l 269 158 q 285 94 269 115 q 326 65 300 72 q 383 58 353 58 l 401 58 l 401 0 l 53 0 l 53 58 l 71 58 q 128 65 103 58 q 169 94 154 72 q 185 158 185 115 l 185 839 q 169 901 185 881 q 127 927 153 921 q 71 933 101 933 l 53 933 l 53 992 l 307 992 l 804 243 l 804 839 q 788 901 804 881 q 747 927 772 921 q 690 933 721 933 l 672 933 l 672 992 l 1021 992 l 1021 933 l 1003 933 q 946 926 972 933 q 904 899 919 919 q 889 833 889 878 l 889 -11 q 865 -206 889 -135 q 795 -305 842 -276 q 678 -333 749 -333 l 646 -333 z "},"Ę":{"ha":865,"x_min":53,"x_max":807,"o":"m 53 0 l 53 58 l 71 58 q 127 65 101 58 q 169 91 153 71 q 185 151 185 111 l 185 833 q 169 899 185 878 q 128 926 154 919 q 71 933 103 933 l 53 933 l 53 992 l 753 992 l 760 749 l 688 749 l 681 808 q 648 888 675 854 q 558 922 621 922 l 325 922 l 325 553 l 660 553 l 660 485 l 325 485 l 325 69 l 593 69 q 688 103 658 69 q 725 183 718 138 l 735 243 l 807 243 l 797 0 l 53 0 m 671 -333 q 531 -297 582 -333 q 481 -181 481 -260 q 504 -100 481 -137 q 565 -36 528 -62 q 644 0 601 -10 l 724 0 q 665 -30 694 -8 q 615 -83 635 -51 q 594 -160 594 -115 q 622 -226 594 -206 q 690 -247 649 -247 q 731 -244 710 -247 q 778 -236 753 -242 l 778 -311 q 744 -323 764 -318 q 706 -331 725 -328 q 671 -333 686 -333 z "},"Ð":{"ha":1010,"x_min":53,"x_max":931,"o":"m 53 0 l 53 58 l 71 58 q 128 65 103 58 q 169 94 154 72 q 185 158 185 115 l 185 485 l 53 485 l 53 553 l 185 553 l 185 839 q 169 901 185 881 q 127 927 153 921 q 71 933 101 933 l 53 933 l 53 992 l 478 992 q 722 934 621 992 q 877 766 824 876 q 931 497 931 656 q 880 234 931 346 q 729 61 829 122 q 478 0 629 0 l 53 0 m 446 71 q 630 120 557 71 q 740 265 703 169 q 776 497 776 360 q 740 729 776 635 q 630 873 703 824 q 447 922 557 922 l 325 922 l 325 553 l 561 553 l 561 485 l 325 485 l 325 71 l 446 71 z "},"F":{"ha":819,"x_min":53,"x_max":760,"o":"m 53 0 l 53 58 l 71 58 q 127 65 101 58 q 169 91 153 71 q 185 151 185 111 l 185 839 q 169 901 185 881 q 127 927 153 921 q 71 933 101 933 l 53 933 l 53 992 l 753 992 l 760 749 l 688 749 l 681 808 q 647 889 675 856 q 553 922 618 922 l 325 922 l 325 521 l 660 521 l 660 453 l 325 453 l 325 158 q 340 94 325 115 q 382 65 356 72 q 439 58 408 58 l 485 58 l 485 0 l 53 0 z "},"G":{"ha":992,"x_min":79,"x_max":965,"o":"m 557 -14 q 290 50 396 -14 q 131 228 183 114 q 79 497 79 343 q 134 762 79 647 q 297 941 189 876 q 565 1006 406 1006 q 736 985 668 1006 q 838 930 804 965 q 872 850 872 894 q 835 779 872 806 q 743 753 797 753 q 726 837 743 796 q 668 905 708 878 q 560 932 628 932 q 370 881 442 932 q 266 733 299 831 q 233 497 233 636 q 267 262 233 358 q 377 115 301 165 q 579 65 453 65 q 657 69 619 65 q 724 82 694 74 l 724 306 q 708 367 724 347 q 666 394 692 388 q 610 400 640 400 l 604 400 l 604 458 l 965 458 l 965 400 l 960 400 q 912 393 933 400 q 877 365 890 386 q 864 300 864 344 l 864 50 q 721 2 794 18 q 557 -14 647 -14 z "},"Ğ":{"ha":992,"x_min":79,"x_max":965,"o":"m 557 -14 q 290 50 396 -14 q 131 228 183 114 q 79 497 79 343 q 134 762 79 647 q 297 941 189 876 q 565 1006 406 1006 q 736 985 668 1006 q 838 930 804 965 q 872 850 872 894 q 835 779 872 806 q 743 753 797 753 q 726 837 743 796 q 668 905 708 878 q 560 932 628 932 q 370 881 442 932 q 266 733 299 831 q 233 497 233 636 q 267 262 233 358 q 377 115 301 165 q 579 65 453 65 q 657 69 619 65 q 724 82 694 74 l 724 306 q 708 367 724 347 q 666 394 692 388 q 610 400 640 400 l 604 400 l 604 458 l 965 458 l 965 400 l 960 400 q 912 393 933 400 q 877 365 890 386 q 864 300 864 344 l 864 50 q 721 2 794 18 q 557 -14 647 -14 m 547 1071 q 439 1097 482 1071 q 375 1166 396 1122 q 353 1261 354 1210 l 417 1261 q 462 1189 428 1211 q 547 1167 496 1167 q 633 1189 599 1167 q 678 1261 667 1211 l 742 1261 q 719 1166 740 1210 q 656 1097 699 1122 q 547 1071 614 1071 z "},"Ģ":{"ha":992,"x_min":79,"x_max":965,"o":"m 557 -14 q 290 50 396 -14 q 131 228 183 114 q 79 497 79 343 q 134 762 79 647 q 297 941 189 876 q 565 1006 406 1006 q 736 985 668 1006 q 838 930 804 965 q 872 850 872 894 q 835 779 872 806 q 743 753 797 753 q 726 837 743 796 q 668 905 708 878 q 560 932 628 932 q 370 881 442 932 q 266 733 299 831 q 233 497 233 636 q 267 262 233 358 q 377 115 301 165 q 579 65 453 65 q 657 69 619 65 q 724 82 694 74 l 724 306 q 708 367 724 347 q 666 394 692 388 q 610 400 640 400 l 604 400 l 604 458 l 965 458 l 965 400 l 960 400 q 912 393 933 400 q 877 365 890 386 q 864 300 864 344 l 864 50 q 721 2 794 18 q 557 -14 647 -14 m 446 -289 q 461 -224 454 -258 q 475 -153 468 -189 q 488 -85 482 -118 l 622 -85 l 622 -99 q 590 -165 610 -128 q 549 -240 571 -203 q 507 -307 526 -278 l 446 -307 l 446 -289 z "},"Ġ":{"ha":992,"x_min":79,"x_max":965,"o":"m 557 -14 q 290 50 396 -14 q 131 228 183 114 q 79 497 79 343 q 134 762 79 647 q 297 941 189 876 q 565 1006 406 1006 q 736 985 668 1006 q 838 930 804 965 q 872 850 872 894 q 835 779 872 806 q 743 753 797 753 q 726 837 743 796 q 668 905 708 878 q 560 932 628 932 q 370 881 442 932 q 266 733 299 831 q 233 497 233 636 q 267 262 233 358 q 377 115 301 165 q 579 65 453 65 q 657 69 619 65 q 724 82 694 74 l 724 306 q 708 367 724 347 q 666 394 692 388 q 610 400 640 400 l 604 400 l 604 458 l 965 458 l 965 400 l 960 400 q 912 393 933 400 q 877 365 890 386 q 864 300 864 344 l 864 50 q 721 2 794 18 q 557 -14 647 -14 m 560 1113 q 503 1132 526 1113 q 481 1199 481 1151 q 503 1266 481 1247 q 560 1285 526 1285 q 615 1266 592 1285 q 639 1199 639 1247 q 615 1132 639 1151 q 560 1113 592 1113 z "},"ẞ":{"ha":947,"x_min":21,"x_max":885,"o":"m 575 -14 q 433 7 483 -14 q 365 59 383 28 q 346 122 346 90 q 372 187 346 163 q 454 211 399 211 q 466 139 454 172 q 505 84 478 106 q 579 63 532 63 q 662 86 628 63 q 713 160 696 110 q 731 289 731 211 q 708 405 731 357 q 633 478 686 453 q 486 504 579 504 l 454 504 l 454 568 l 611 711 q 577 880 611 829 q 444 931 543 931 q 356 908 389 931 q 308 838 322 886 q 293 710 293 789 l 293 0 l 21 0 l 21 58 l 39 58 q 97 65 71 58 q 138 94 122 72 q 153 158 153 115 l 153 697 q 192 884 153 817 q 300 978 232 951 q 453 1006 368 1006 q 622 973 556 1006 q 720 878 688 940 q 753 725 753 815 l 583 578 q 754 535 688 572 q 853 433 821 497 q 885 282 885 368 q 841 120 885 186 q 726 20 797 54 q 575 -14 656 -14 z "},"H":{"ha":1101,"x_min":53,"x_max":1049,"o":"m 53 0 l 53 58 l 71 58 q 128 65 103 58 q 169 94 154 72 q 185 158 185 115 l 185 839 q 169 901 185 881 q 127 927 153 921 q 71 933 101 933 l 53 933 l 53 992 l 457 992 l 457 933 l 439 933 q 382 926 408 933 q 340 899 356 919 q 325 833 325 878 l 325 553 l 776 553 l 776 833 q 761 899 776 878 q 720 926 746 919 q 663 933 694 933 l 644 933 l 644 992 l 1049 992 l 1049 933 l 1031 933 q 974 926 1000 933 q 932 899 947 919 q 917 833 917 878 l 917 151 q 933 91 917 111 q 974 65 949 71 q 1031 58 1000 58 l 1049 58 l 1049 0 l 644 0 l 644 58 l 663 58 q 720 65 694 58 q 761 94 746 72 q 776 158 776 115 l 776 483 l 325 483 l 325 158 q 340 94 325 115 q 382 65 356 72 q 439 58 408 58 l 457 58 l 457 0 l 53 0 z "},"Ħ":{"ha":1101,"x_min":53,"x_max":1049,"o":"m 53 0 l 53 58 l 71 58 q 128 65 103 58 q 169 94 154 72 q 185 158 185 115 l 185 693 l 53 693 l 53 761 l 185 761 l 185 839 q 169 901 185 881 q 127 927 153 921 q 71 933 101 933 l 53 933 l 53 992 l 457 992 l 457 933 l 439 933 q 382 926 408 933 q 340 899 356 919 q 325 833 325 878 l 325 761 l 776 761 l 776 833 q 761 899 776 878 q 720 926 746 919 q 663 933 694 933 l 644 933 l 644 992 l 1049 992 l 1049 933 l 1031 933 q 974 926 1000 933 q 932 899 947 919 q 917 833 917 878 l 917 761 l 1049 761 l 1049 693 l 917 693 l 917 151 q 933 91 917 111 q 974 65 949 71 q 1031 58 1000 58 l 1049 58 l 1049 0 l 644 0 l 644 58 l 663 58 q 720 65 694 58 q 761 94 746 72 q 776 158 776 115 l 776 483 l 325 483 l 325 158 q 340 94 325 115 q 382 65 356 72 q 439 58 408 58 l 457 58 l 457 0 l 53 0 m 325 553 l 776 553 l 776 693 l 325 693 l 325 553 z "},"I":{"ha":510,"x_min":53,"x_max":457,"o":"m 53 0 l 53 58 l 71 58 q 128 65 103 58 q 169 94 154 72 q 185 158 185 115 l 185 833 q 169 899 185 878 q 128 926 154 919 q 71 933 103 933 l 53 933 l 53 992 l 457 992 l 457 933 l 439 933 q 382 926 408 933 q 340 899 356 919 q 325 833 325 878 l 325 158 q 340 94 325 115 q 382 65 356 72 q 439 58 408 58 l 457 58 l 457 0 l 53 0 z "},"Í":{"ha":510,"x_min":53,"x_max":457,"o":"m 53 0 l 53 58 l 71 58 q 128 65 103 58 q 169 94 154 72 q 185 158 185 115 l 185 833 q 169 899 185 878 q 128 926 154 919 q 71 933 103 933 l 53 933 l 53 992 l 457 992 l 457 933 l 439 933 q 382 926 408 933 q 340 899 356 919 q 325 833 325 878 l 325 158 q 340 94 325 115 q 382 65 356 72 q 439 58 408 58 l 457 58 l 457 0 l 53 0 m 183 1089 q 226 1151 204 1115 q 269 1225 249 1188 q 304 1293 290 1263 l 453 1293 l 453 1279 q 415 1233 440 1261 q 359 1175 390 1206 q 296 1117 328 1144 q 236 1071 264 1090 l 183 1071 l 183 1089 z "},"Î":{"ha":510,"x_min":49,"x_max":458,"o":"m 53 0 l 53 58 l 71 58 q 128 65 103 58 q 169 94 154 72 q 185 158 185 115 l 185 833 q 169 899 185 878 q 128 926 154 919 q 71 933 103 933 l 53 933 l 53 992 l 457 992 l 457 933 l 439 933 q 382 926 408 933 q 340 899 356 919 q 325 833 325 878 l 325 158 q 340 94 325 115 q 382 65 356 72 q 439 58 408 58 l 457 58 l 457 0 l 53 0 m 49 1089 q 97 1151 71 1115 q 149 1225 124 1188 q 188 1293 174 1263 l 319 1293 q 359 1225 335 1263 q 410 1151 383 1188 q 458 1089 438 1115 l 458 1071 l 404 1071 q 351 1107 378 1086 q 299 1151 324 1128 q 253 1196 274 1174 q 207 1151 232 1174 q 156 1107 182 1128 q 103 1071 129 1086 l 49 1071 l 49 1089 z "},"Ï":{"ha":510,"x_min":49,"x_max":457,"o":"m 53 0 l 53 58 l 71 58 q 128 65 103 58 q 169 94 154 72 q 185 158 185 115 l 185 833 q 169 899 185 878 q 128 926 154 919 q 71 933 103 933 l 53 933 l 53 992 l 457 992 l 457 933 l 439 933 q 382 926 408 933 q 340 899 356 919 q 325 833 325 878 l 325 158 q 340 94 325 115 q 382 65 356 72 q 439 58 408 58 l 457 58 l 457 0 l 53 0 m 383 1107 q 333 1124 353 1107 q 313 1185 313 1142 q 333 1246 313 1229 q 383 1263 353 1263 q 433 1246 413 1263 q 454 1185 454 1229 q 433 1124 454 1142 q 383 1107 413 1107 m 119 1107 q 69 1124 89 1107 q 49 1185 49 1142 q 69 1246 49 1229 q 119 1263 89 1263 q 169 1246 149 1263 q 190 1185 190 1229 q 169 1124 190 1142 q 119 1107 149 1107 z "},"İ":{"ha":510,"x_min":53,"x_max":457,"o":"m 53 0 l 53 58 l 71 58 q 128 65 103 58 q 169 94 154 72 q 185 158 185 115 l 185 833 q 169 899 185 878 q 128 926 154 919 q 71 933 103 933 l 53 933 l 53 992 l 457 992 l 457 933 l 439 933 q 382 926 408 933 q 340 899 356 919 q 325 833 325 878 l 325 158 q 340 94 325 115 q 382 65 356 72 q 439 58 408 58 l 457 58 l 457 0 l 53 0 m 254 1113 q 198 1132 221 1113 q 175 1199 175 1151 q 198 1266 175 1247 q 254 1285 221 1285 q 310 1266 286 1285 q 333 1199 333 1247 q 310 1132 333 1151 q 254 1113 286 1113 z "},"Ì":{"ha":510,"x_min":50,"x_max":457,"o":"m 53 0 l 53 58 l 71 58 q 128 65 103 58 q 169 94 154 72 q 185 158 185 115 l 185 833 q 169 899 185 878 q 128 926 154 919 q 71 933 103 933 l 53 933 l 53 992 l 457 992 l 457 933 l 439 933 q 382 926 408 933 q 340 899 356 919 q 325 833 325 878 l 325 158 q 340 94 325 115 q 382 65 356 72 q 439 58 408 58 l 457 58 l 457 0 l 53 0 m 267 1071 q 207 1117 239 1090 q 144 1175 175 1144 q 88 1233 113 1206 q 50 1279 63 1261 l 50 1293 l 199 1293 q 234 1225 214 1263 q 277 1151 254 1188 q 319 1089 300 1115 l 319 1071 l 267 1071 z "},"Ī":{"ha":510,"x_min":53,"x_max":457,"o":"m 53 0 l 53 58 l 71 58 q 128 65 103 58 q 169 94 154 72 q 185 158 185 115 l 185 833 q 169 899 185 878 q 128 926 154 919 q 71 933 103 933 l 53 933 l 53 992 l 457 992 l 457 933 l 439 933 q 382 926 408 933 q 340 899 356 919 q 325 833 325 878 l 325 158 q 340 94 325 115 q 382 65 356 72 q 439 58 408 58 l 457 58 l 457 0 l 53 0 m 53 1085 l 53 1167 l 456 1167 l 456 1085 l 53 1085 z "},"Į":{"ha":510,"x_min":53,"x_max":457,"o":"m 53 0 l 53 58 l 71 58 q 128 65 103 58 q 169 94 154 72 q 185 158 185 115 l 185 833 q 169 899 185 878 q 128 926 154 919 q 71 933 103 933 l 53 933 l 53 992 l 457 992 l 457 933 l 439 933 q 382 926 408 933 q 340 899 356 919 q 325 833 325 878 l 325 158 q 340 94 325 115 q 382 65 356 72 q 439 58 408 58 l 457 58 l 457 0 l 53 0 m 308 -333 q 169 -297 219 -333 q 118 -181 118 -260 q 142 -100 118 -137 q 202 -36 165 -62 q 282 0 239 -10 l 361 0 q 302 -30 332 -8 q 252 -83 272 -51 q 232 -160 232 -115 q 259 -226 232 -206 q 328 -247 286 -247 q 369 -244 347 -247 q 415 -236 390 -242 l 415 -311 q 382 -323 401 -318 q 343 -331 363 -328 q 308 -333 324 -333 z "},"J":{"ha":496,"x_min":-15,"x_max":457,"o":"m -15 -333 l -15 -268 l -3 -268 q 99 -245 57 -268 q 163 -166 140 -222 q 185 -12 185 -110 l 185 839 q 169 901 185 881 q 127 927 153 921 q 71 933 101 933 l 53 933 l 53 992 l 457 992 l 457 933 l 439 933 q 382 926 408 933 q 340 899 356 919 q 325 833 325 878 l 325 -11 q 301 -167 325 -104 q 233 -265 276 -229 q 133 -317 190 -301 q 8 -333 75 -333 l -15 -333 z "},"K":{"ha":972,"x_min":53,"x_max":989,"o":"m 53 0 l 53 58 l 71 58 q 127 65 101 58 q 169 91 153 71 q 185 151 185 111 l 185 839 q 169 901 185 881 q 127 927 153 921 q 71 933 101 933 l 53 933 l 53 992 l 457 992 l 457 933 l 439 933 q 382 926 408 933 q 340 899 356 919 q 325 833 325 878 l 325 442 l 613 771 q 659 831 643 806 q 682 874 675 856 q 689 904 689 892 q 672 928 689 922 q 621 935 656 935 l 621 992 l 928 992 l 928 935 q 867 919 896 935 q 808 874 839 903 q 742 804 778 844 l 540 578 l 833 169 q 885 108 860 133 q 935 71 910 83 q 986 58 961 58 l 989 58 l 989 0 l 974 0 q 859 6 904 0 q 784 25 814 11 q 731 63 754 39 q 682 125 708 88 l 443 468 l 325 351 l 325 158 q 340 94 325 115 q 382 65 356 72 q 439 58 408 58 l 457 58 l 457 0 l 53 0 z "},"Ķ":{"ha":972,"x_min":53,"x_max":989,"o":"m 53 0 l 53 58 l 71 58 q 127 65 101 58 q 169 91 153 71 q 185 151 185 111 l 185 839 q 169 901 185 881 q 127 927 153 921 q 71 933 101 933 l 53 933 l 53 992 l 457 992 l 457 933 l 439 933 q 382 926 408 933 q 340 899 356 919 q 325 833 325 878 l 325 442 l 613 771 q 659 831 643 806 q 682 874 675 856 q 689 904 689 892 q 672 928 689 922 q 621 935 656 935 l 621 992 l 928 992 l 928 935 q 867 919 896 935 q 808 874 839 903 q 742 804 778 844 l 540 578 l 833 169 q 885 108 860 133 q 935 71 910 83 q 986 58 961 58 l 989 58 l 989 0 l 974 0 q 859 6 904 0 q 784 25 814 11 q 731 63 754 39 q 682 125 708 88 l 443 468 l 325 351 l 325 158 q 340 94 325 115 q 382 65 356 72 q 439 58 408 58 l 457 58 l 457 0 l 53 0 m 415 -289 q 431 -224 424 -258 q 444 -153 438 -189 q 457 -85 451 -118 l 592 -85 l 592 -99 q 560 -165 579 -128 q 518 -240 540 -203 q 476 -307 496 -278 l 415 -307 l 415 -289 z "},"L":{"ha":865,"x_min":53,"x_max":807,"o":"m 53 0 l 53 58 l 71 58 q 128 65 103 58 q 169 94 154 72 q 185 158 185 115 l 185 833 q 169 899 185 878 q 128 926 154 919 q 71 933 103 933 l 53 933 l 53 992 l 457 992 l 457 933 l 439 933 q 383 927 408 933 q 341 901 357 921 q 325 839 325 881 l 325 69 l 599 69 q 666 88 640 69 q 704 136 692 107 q 721 194 717 165 l 735 299 l 807 299 l 797 0 l 53 0 z "},"Ĺ":{"ha":865,"x_min":53,"x_max":807,"o":"m 53 0 l 53 58 l 71 58 q 128 65 103 58 q 169 94 154 72 q 185 158 185 115 l 185 833 q 169 899 185 878 q 128 926 154 919 q 71 933 103 933 l 53 933 l 53 992 l 457 992 l 457 933 l 439 933 q 383 927 408 933 q 341 901 357 921 q 325 839 325 881 l 325 69 l 599 69 q 666 88 640 69 q 704 136 692 107 q 721 194 717 165 l 735 299 l 807 299 l 797 0 l 53 0 m 206 1089 q 249 1151 226 1115 q 292 1225 271 1188 q 326 1293 313 1263 l 475 1293 l 475 1279 q 438 1233 463 1261 q 381 1175 413 1206 q 318 1117 350 1144 q 258 1071 286 1090 l 206 1071 l 206 1089 z "},"Ľ":{"ha":865,"x_min":53,"x_max":807,"o":"m 53 0 l 53 58 l 71 58 q 128 65 103 58 q 169 94 154 72 q 185 158 185 115 l 185 833 q 169 899 185 878 q 128 926 154 919 q 71 933 103 933 l 53 933 l 53 992 l 457 992 l 457 933 l 439 933 q 383 927 408 933 q 341 901 357 921 q 325 839 325 881 l 325 69 l 599 69 q 666 88 640 69 q 704 136 692 107 q 721 194 717 165 l 735 299 l 807 299 l 797 0 l 53 0 m 586 788 q 601 853 594 818 q 615 923 608 888 q 628 992 622 958 l 749 992 l 749 978 q 717 911 736 949 q 675 836 697 874 q 633 769 653 799 l 586 769 l 586 788 z "},"Ļ":{"ha":865,"x_min":53,"x_max":807,"o":"m 53 0 l 53 58 l 71 58 q 128 65 103 58 q 169 94 154 72 q 185 158 185 115 l 185 833 q 169 899 185 878 q 128 926 154 919 q 71 933 103 933 l 53 933 l 53 992 l 457 992 l 457 933 l 439 933 q 383 927 408 933 q 341 901 357 921 q 325 839 325 881 l 325 69 l 599 69 q 666 88 640 69 q 704 136 692 107 q 721 194 717 165 l 735 299 l 807 299 l 797 0 l 53 0 m 354 -289 q 369 -224 363 -258 q 383 -153 376 -189 q 396 -85 390 -118 l 531 -85 l 531 -99 q 499 -165 518 -128 q 457 -240 479 -203 q 415 -307 435 -278 l 354 -307 l 354 -289 z "},"Ł":{"ha":865,"x_min":53,"x_max":807,"o":"m 53 0 l 53 58 l 71 58 q 128 65 103 58 q 169 94 154 72 q 185 158 185 115 l 185 393 l 53 318 l 53 396 l 185 472 l 185 833 q 169 899 185 878 q 128 926 154 919 q 71 933 103 933 l 53 933 l 53 992 l 457 992 l 457 933 l 439 933 q 383 927 408 933 q 341 901 357 921 q 325 839 325 881 l 325 553 l 542 679 l 542 599 l 325 474 l 325 69 l 599 69 q 666 88 640 69 q 704 136 692 107 q 721 194 717 165 l 735 299 l 807 299 l 797 0 l 53 0 z "},"M":{"ha":1303,"x_min":53,"x_max":1250,"o":"m 53 0 l 53 58 l 71 58 q 127 65 101 58 q 169 91 153 71 q 185 151 185 111 l 185 839 q 169 901 185 881 q 127 927 153 921 q 71 933 101 933 l 53 933 l 53 992 l 369 992 l 657 197 l 942 992 l 1250 992 l 1250 933 l 1232 933 q 1175 926 1201 933 q 1133 899 1149 919 q 1118 833 1118 878 l 1118 158 q 1133 94 1118 115 q 1175 65 1149 72 q 1232 58 1201 58 l 1250 58 l 1250 0 l 881 0 l 881 58 l 885 58 q 937 65 915 58 q 971 90 958 71 q 985 146 983 108 l 985 888 l 667 0 l 592 0 l 269 885 l 269 158 q 281 94 269 115 q 316 65 293 72 q 369 58 339 58 l 374 58 l 374 0 l 53 0 z "},"N":{"ha":1060,"x_min":53,"x_max":1021,"o":"m 53 0 l 53 58 l 71 58 q 128 65 103 58 q 169 94 154 72 q 185 158 185 115 l 185 839 q 169 901 185 881 q 127 927 153 921 q 71 933 101 933 l 53 933 l 53 992 l 307 992 l 804 224 l 804 839 q 788 901 804 881 q 747 927 772 921 q 690 933 721 933 l 672 933 l 672 992 l 1021 992 l 1021 933 l 1003 933 q 946 926 972 933 q 904 899 919 919 q 889 833 889 878 l 889 0 l 790 0 l 269 800 l 269 158 q 285 94 269 115 q 326 65 300 72 q 383 58 353 58 l 401 58 l 401 0 l 53 0 z "},"Ń":{"ha":1060,"x_min":53,"x_max":1021,"o":"m 53 0 l 53 58 l 71 58 q 128 65 103 58 q 169 94 154 72 q 185 158 185 115 l 185 839 q 169 901 185 881 q 127 927 153 921 q 71 933 101 933 l 53 933 l 53 992 l 307 992 l 804 224 l 804 839 q 788 901 804 881 q 747 927 772 921 q 690 933 721 933 l 672 933 l 672 992 l 1021 992 l 1021 933 l 1003 933 q 946 926 972 933 q 904 899 919 919 q 889 833 889 878 l 889 0 l 790 0 l 269 800 l 269 158 q 285 94 269 115 q 326 65 300 72 q 383 58 353 58 l 401 58 l 401 0 l 53 0 m 479 1089 q 522 1151 500 1115 q 565 1225 544 1188 q 600 1293 586 1263 l 749 1293 l 749 1279 q 711 1233 736 1261 q 655 1175 686 1206 q 592 1117 624 1144 q 532 1071 560 1090 l 479 1071 l 479 1089 z "},"Ň":{"ha":1060,"x_min":53,"x_max":1021,"o":"m 53 0 l 53 58 l 71 58 q 128 65 103 58 q 169 94 154 72 q 185 158 185 115 l 185 839 q 169 901 185 881 q 127 927 153 921 q 71 933 101 933 l 53 933 l 53 992 l 307 992 l 804 224 l 804 839 q 788 901 804 881 q 747 927 772 921 q 690 933 721 933 l 672 933 l 672 992 l 1021 992 l 1021 933 l 1003 933 q 946 926 972 933 q 904 899 919 919 q 889 833 889 878 l 889 0 l 790 0 l 269 800 l 269 158 q 285 94 269 115 q 326 65 300 72 q 383 58 353 58 l 401 58 l 401 0 l 53 0 m 496 1071 q 457 1140 482 1103 q 406 1213 432 1176 q 357 1275 379 1249 l 357 1293 l 411 1293 q 464 1256 438 1278 q 515 1212 490 1235 q 561 1167 540 1189 q 607 1212 582 1189 q 659 1256 632 1235 q 713 1293 686 1278 l 767 1293 l 767 1275 q 719 1213 746 1249 q 667 1140 692 1176 q 628 1071 643 1103 l 496 1071 z "},"Ņ":{"ha":1060,"x_min":53,"x_max":1021,"o":"m 53 0 l 53 58 l 71 58 q 128 65 103 58 q 169 94 154 72 q 185 158 185 115 l 185 839 q 169 901 185 881 q 127 927 153 921 q 71 933 101 933 l 53 933 l 53 992 l 307 992 l 804 224 l 804 839 q 788 901 804 881 q 747 927 772 921 q 690 933 721 933 l 672 933 l 672 992 l 1021 992 l 1021 933 l 1003 933 q 946 926 972 933 q 904 899 919 919 q 889 833 889 878 l 889 0 l 790 0 l 269 800 l 269 158 q 285 94 269 115 q 326 65 300 72 q 383 58 353 58 l 401 58 l 401 0 l 53 0 m 456 -289 q 471 -224 464 -258 q 485 -153 478 -189 q 497 -85 492 -118 l 632 -85 l 632 -99 q 600 -165 619 -128 q 558 -240 581 -203 q 517 -307 536 -278 l 456 -307 l 456 -289 z "},"Ñ":{"ha":1060,"x_min":53,"x_max":1021,"o":"m 53 0 l 53 58 l 71 58 q 128 65 103 58 q 169 94 154 72 q 185 158 185 115 l 185 839 q 169 901 185 881 q 127 927 153 921 q 71 933 101 933 l 53 933 l 53 992 l 307 992 l 804 224 l 804 839 q 788 901 804 881 q 747 927 772 921 q 690 933 721 933 l 672 933 l 672 992 l 1021 992 l 1021 933 l 1003 933 q 946 926 972 933 q 904 899 919 919 q 889 833 889 878 l 889 0 l 790 0 l 269 800 l 269 158 q 285 94 269 115 q 326 65 300 72 q 383 58 353 58 l 401 58 l 401 0 l 53 0 m 649 1071 q 581 1084 611 1071 q 524 1115 550 1097 q 476 1145 499 1132 q 431 1158 453 1158 q 378 1135 389 1158 q 363 1085 367 1113 l 300 1085 q 319 1165 303 1128 q 366 1225 335 1201 q 447 1249 397 1249 q 515 1235 485 1249 q 570 1205 544 1222 q 619 1174 596 1188 q 664 1161 642 1161 q 716 1184 704 1161 q 732 1235 728 1207 l 794 1235 q 776 1156 792 1193 q 729 1094 760 1118 q 649 1071 699 1071 z "},"O":{"ha":1031,"x_min":78,"x_max":951,"o":"m 515 -14 q 271 50 368 -14 q 126 229 174 114 q 78 499 78 344 q 126 767 78 653 q 272 944 174 881 q 517 1007 369 1007 q 753 944 657 1007 q 901 766 850 881 q 951 497 951 651 q 901 228 951 343 q 753 50 850 114 q 515 -14 656 -14 m 515 61 q 681 113 619 61 q 770 263 743 165 q 797 497 797 360 q 770 732 797 635 q 681 881 743 829 q 517 932 619 932 q 297 818 361 932 q 232 497 232 704 q 297 176 232 292 q 515 61 361 61 z "},"Œ":{"ha":1332,"x_min":78,"x_max":1274,"o":"m 515 -14 q 271 50 368 -14 q 126 229 174 114 q 78 499 78 344 q 126 767 78 653 q 272 944 174 881 q 517 1007 369 1007 q 591 1003 550 1007 q 660 992 632 999 l 1219 992 l 1226 749 l 1154 749 l 1147 808 q 1131 865 1144 839 q 1092 906 1118 890 q 1025 922 1067 922 l 792 922 l 792 553 l 1126 553 l 1126 485 l 792 485 l 792 69 l 1060 69 q 1155 103 1125 69 q 1192 183 1185 138 l 1201 243 l 1274 243 l 1264 0 l 658 0 q 589 -10 631 -6 q 515 -14 547 -14 m 515 61 q 590 67 556 61 q 651 82 625 72 l 651 908 q 591 926 625 919 q 517 932 557 932 q 297 818 361 932 q 232 497 232 704 q 297 176 232 292 q 515 61 361 61 z "},"Ó":{"ha":1031,"x_min":78,"x_max":951,"o":"m 515 -14 q 271 50 368 -14 q 126 229 174 114 q 78 499 78 344 q 126 767 78 653 q 272 944 174 881 q 517 1007 369 1007 q 753 944 657 1007 q 901 766 850 881 q 951 497 951 651 q 901 228 951 343 q 753 50 850 114 q 515 -14 656 -14 m 515 61 q 681 113 619 61 q 770 263 743 165 q 797 497 797 360 q 770 732 797 635 q 681 881 743 829 q 517 932 619 932 q 297 818 361 932 q 232 497 232 704 q 297 176 232 292 q 515 61 361 61 m 440 1089 q 483 1151 461 1115 q 526 1225 506 1188 q 561 1293 547 1263 l 710 1293 l 710 1279 q 672 1233 697 1261 q 616 1175 647 1206 q 553 1117 585 1144 q 493 1071 521 1090 l 440 1071 l 440 1089 z "},"Ô":{"ha":1031,"x_min":78,"x_max":951,"o":"m 515 -14 q 271 50 368 -14 q 126 229 174 114 q 78 499 78 344 q 126 767 78 653 q 272 944 174 881 q 517 1007 369 1007 q 753 944 657 1007 q 901 766 850 881 q 951 497 951 651 q 901 228 951 343 q 753 50 850 114 q 515 -14 656 -14 m 515 61 q 681 113 619 61 q 770 263 743 165 q 797 497 797 360 q 770 732 797 635 q 681 881 743 829 q 517 932 619 932 q 297 818 361 932 q 232 497 232 704 q 297 176 232 292 q 515 61 361 61 m 311 1089 q 360 1151 333 1115 q 411 1225 386 1188 q 450 1293 436 1263 l 582 1293 q 622 1225 597 1263 q 673 1151 646 1188 q 721 1089 700 1115 l 721 1071 l 667 1071 q 613 1107 640 1086 q 561 1151 586 1128 q 515 1196 536 1174 q 469 1151 494 1174 q 418 1107 444 1128 q 365 1071 392 1086 l 311 1071 l 311 1089 z "},"Ö":{"ha":1031,"x_min":78,"x_max":951,"o":"m 515 -14 q 271 50 368 -14 q 126 229 174 114 q 78 499 78 344 q 126 767 78 653 q 272 944 174 881 q 517 1007 369 1007 q 753 944 657 1007 q 901 766 850 881 q 951 497 951 651 q 901 228 951 343 q 753 50 850 114 q 515 -14 656 -14 m 515 61 q 681 113 619 61 q 770 263 743 165 q 797 497 797 360 q 770 732 797 635 q 681 881 743 829 q 517 932 619 932 q 297 818 361 932 q 232 497 232 704 q 297 176 232 292 q 515 61 361 61 m 643 1107 q 592 1124 613 1107 q 572 1185 572 1142 q 592 1246 572 1229 q 643 1263 613 1263 q 693 1246 672 1263 q 714 1185 714 1229 q 693 1124 714 1142 q 643 1107 672 1107 m 379 1107 q 328 1124 349 1107 q 308 1185 308 1142 q 328 1246 308 1229 q 379 1263 349 1263 q 429 1246 408 1263 q 450 1185 450 1229 q 429 1124 450 1142 q 379 1107 408 1107 z "},"Ò":{"ha":1031,"x_min":78,"x_max":951,"o":"m 515 -14 q 271 50 368 -14 q 126 229 174 114 q 78 499 78 344 q 126 767 78 653 q 272 944 174 881 q 517 1007 369 1007 q 753 944 657 1007 q 901 766 850 881 q 951 497 951 651 q 901 228 951 343 q 753 50 850 114 q 515 -14 656 -14 m 515 61 q 681 113 619 61 q 770 263 743 165 q 797 497 797 360 q 770 732 797 635 q 681 881 743 829 q 517 932 619 932 q 297 818 361 932 q 232 497 232 704 q 297 176 232 292 q 515 61 361 61 m 531 1071 q 471 1117 503 1090 q 408 1175 439 1144 q 351 1233 376 1206 q 314 1279 326 1261 l 314 1293 l 463 1293 q 498 1225 478 1263 q 541 1151 518 1188 q 583 1089 564 1115 l 583 1071 l 531 1071 z "},"Ő":{"ha":1031,"x_min":78,"x_max":951,"o":"m 515 -14 q 271 50 368 -14 q 126 229 174 114 q 78 499 78 344 q 126 767 78 653 q 272 944 174 881 q 517 1007 369 1007 q 753 944 657 1007 q 901 766 850 881 q 951 497 951 651 q 901 228 951 343 q 753 50 850 114 q 515 -14 656 -14 m 515 61 q 681 113 619 61 q 770 263 743 165 q 797 497 797 360 q 770 732 797 635 q 681 881 743 829 q 517 932 619 932 q 297 818 361 932 q 232 497 232 704 q 297 176 232 292 q 515 61 361 61 m 551 1089 q 614 1190 581 1133 q 669 1293 647 1246 l 818 1293 l 818 1279 q 769 1215 804 1256 q 692 1135 733 1175 q 619 1071 651 1096 l 551 1071 l 551 1089 m 301 1089 q 364 1190 331 1133 q 419 1293 397 1246 l 568 1293 l 568 1279 q 518 1215 554 1256 q 442 1135 482 1175 q 369 1071 401 1096 l 301 1071 l 301 1089 z "},"Ō":{"ha":1031,"x_min":78,"x_max":951,"o":"m 515 -14 q 271 50 368 -14 q 126 229 174 114 q 78 499 78 344 q 126 767 78 653 q 272 944 174 881 q 517 1007 369 1007 q 753 944 657 1007 q 901 766 850 881 q 951 497 951 651 q 901 228 951 343 q 753 50 850 114 q 515 -14 656 -14 m 515 61 q 681 113 619 61 q 770 263 743 165 q 797 497 797 360 q 770 732 797 635 q 681 881 743 829 q 517 932 619 932 q 297 818 361 932 q 232 497 232 704 q 297 176 232 292 q 515 61 361 61 m 311 1085 l 311 1167 l 714 1167 l 714 1085 l 311 1085 z "},"Ø":{"ha":1031,"x_min":78,"x_max":951,"o":"m 240 72 q 118 247 158 138 q 78 499 78 357 q 126 767 78 653 q 272 944 174 881 q 517 1007 369 1007 q 631 994 578 1007 q 729 957 685 981 l 781 1049 l 861 1049 l 789 918 q 910 745 868 853 q 951 497 951 638 q 901 228 951 343 q 753 50 850 114 q 515 -14 656 -14 q 399 -1 453 -14 q 300 33 344 11 l 251 -56 l 169 -56 l 240 72 m 515 61 q 681 113 619 61 q 770 263 743 165 q 797 497 797 360 q 782 681 797 600 q 733 818 767 763 l 346 115 q 515 61 411 61 m 685 876 q 612 918 654 904 q 517 932 569 932 q 297 818 361 932 q 232 497 232 704 q 247 313 232 393 q 297 175 263 232 l 685 876 z "},"Õ":{"ha":1031,"x_min":78,"x_max":951,"o":"m 515 -14 q 271 50 368 -14 q 126 229 174 114 q 78 499 78 344 q 126 767 78 653 q 272 944 174 881 q 517 1007 369 1007 q 753 944 657 1007 q 901 766 850 881 q 951 497 951 651 q 901 228 951 343 q 753 50 850 114 q 515 -14 656 -14 m 515 61 q 681 113 619 61 q 770 263 743 165 q 797 497 797 360 q 770 732 797 635 q 681 881 743 829 q 517 932 619 932 q 297 818 361 932 q 232 497 232 704 q 297 176 232 292 q 515 61 361 61 m 607 1071 q 539 1084 569 1071 q 483 1115 508 1097 q 434 1145 457 1132 q 389 1158 411 1158 q 336 1135 347 1158 q 321 1085 325 1113 l 258 1085 q 277 1165 261 1128 q 324 1225 293 1201 q 406 1249 356 1249 q 473 1235 443 1249 q 528 1205 503 1222 q 577 1174 554 1188 q 622 1161 600 1161 q 674 1184 663 1161 q 690 1235 686 1207 l 753 1235 q 734 1156 750 1193 q 688 1094 718 1118 q 607 1071 657 1071 z "},"P":{"ha":839,"x_min":53,"x_max":785,"o":"m 53 0 l 53 58 l 71 58 q 128 65 103 58 q 169 94 154 72 q 185 158 185 115 l 185 839 q 169 901 185 881 q 127 927 153 921 q 71 933 101 933 l 53 933 l 53 992 l 443 992 q 701 915 618 992 q 785 701 785 838 q 749 547 785 619 q 632 431 714 475 q 413 386 550 386 l 325 386 l 325 151 q 341 91 325 111 q 383 65 357 71 q 439 58 408 58 l 485 58 l 485 0 l 53 0 m 399 451 q 535 476 483 451 q 610 554 586 500 q 635 696 635 608 q 586 869 635 813 q 419 925 538 925 l 325 925 l 325 451 l 399 451 z "},"Q":{"ha":1031,"x_min":78,"x_max":951,"o":"m 776 -319 q 667 -304 721 -319 q 567 -254 613 -289 q 492 -160 522 -219 q 456 -11 463 -100 q 245 69 329 3 q 119 245 161 135 q 78 499 78 356 q 126 767 78 653 q 272 944 174 881 q 517 1007 369 1007 q 753 944 657 1007 q 901 766 850 881 q 951 497 951 651 q 912 256 951 363 q 796 83 872 150 q 608 -6 719 15 q 631 -124 614 -76 q 675 -201 649 -172 q 737 -242 701 -229 q 814 -254 772 -254 l 836 -254 l 836 -319 l 776 -319 m 515 61 q 734 176 671 61 q 797 497 797 292 q 770 732 797 635 q 681 881 743 829 q 517 932 619 932 q 351 881 414 932 q 260 732 288 829 q 232 497 232 635 q 297 176 232 292 q 515 61 361 61 z "},"R":{"ha":911,"x_min":53,"x_max":919,"o":"m 53 0 l 53 58 l 71 58 q 127 65 101 58 q 169 91 153 71 q 185 151 185 111 l 185 839 q 169 901 185 881 q 127 927 153 921 q 71 933 101 933 l 53 933 l 53 992 l 426 992 q 626 962 547 992 q 744 873 706 932 q 783 724 783 814 q 753 599 783 650 q 676 518 722 549 q 579 471 629 488 l 769 169 q 839 86 806 114 q 915 58 872 58 l 919 58 l 919 0 l 900 0 q 766 9 814 0 q 689 45 718 18 q 628 125 660 72 l 440 438 l 325 438 l 325 151 q 341 91 325 111 q 383 65 357 71 q 439 58 408 58 l 457 58 l 457 0 l 53 0 m 422 503 q 590 557 544 503 q 635 719 635 611 q 614 840 635 794 q 546 905 593 885 q 419 925 499 925 l 325 925 l 325 503 l 422 503 z "},"Ŕ":{"ha":911,"x_min":53,"x_max":919,"o":"m 53 0 l 53 58 l 71 58 q 127 65 101 58 q 169 91 153 71 q 185 151 185 111 l 185 839 q 169 901 185 881 q 127 927 153 921 q 71 933 101 933 l 53 933 l 53 992 l 426 992 q 626 962 547 992 q 744 873 706 932 q 783 724 783 814 q 753 599 783 650 q 676 518 722 549 q 579 471 629 488 l 769 169 q 839 86 806 114 q 915 58 872 58 l 919 58 l 919 0 l 900 0 q 766 9 814 0 q 689 45 718 18 q 628 125 660 72 l 440 438 l 325 438 l 325 151 q 341 91 325 111 q 383 65 357 71 q 439 58 408 58 l 457 58 l 457 0 l 53 0 m 422 503 q 590 557 544 503 q 635 719 635 611 q 614 840 635 794 q 546 905 593 885 q 419 925 499 925 l 325 925 l 325 503 l 422 503 m 356 1089 q 399 1151 376 1115 q 442 1225 421 1188 q 476 1293 463 1263 l 625 1293 l 625 1279 q 588 1233 613 1261 q 531 1175 563 1206 q 468 1117 500 1144 q 408 1071 436 1090 l 356 1071 l 356 1089 z "},"Ř":{"ha":911,"x_min":53,"x_max":919,"o":"m 53 0 l 53 58 l 71 58 q 127 65 101 58 q 169 91 153 71 q 185 151 185 111 l 185 839 q 169 901 185 881 q 127 927 153 921 q 71 933 101 933 l 53 933 l 53 992 l 426 992 q 626 962 547 992 q 744 873 706 932 q 783 724 783 814 q 753 599 783 650 q 676 518 722 549 q 579 471 629 488 l 769 169 q 839 86 806 114 q 915 58 872 58 l 919 58 l 919 0 l 900 0 q 766 9 814 0 q 689 45 718 18 q 628 125 660 72 l 440 438 l 325 438 l 325 151 q 341 91 325 111 q 383 65 357 71 q 439 58 408 58 l 457 58 l 457 0 l 53 0 m 422 503 q 590 557 544 503 q 635 719 635 611 q 614 840 635 794 q 546 905 593 885 q 419 925 499 925 l 325 925 l 325 503 l 422 503 m 357 1071 q 318 1140 343 1103 q 267 1213 293 1176 q 218 1275 240 1249 l 218 1293 l 272 1293 q 325 1256 299 1278 q 376 1212 351 1235 q 422 1167 401 1189 q 468 1212 443 1189 q 520 1256 493 1235 q 574 1293 547 1278 l 628 1293 l 628 1275 q 580 1213 607 1249 q 528 1140 553 1176 q 489 1071 504 1103 l 357 1071 z "},"Ŗ":{"ha":911,"x_min":53,"x_max":919,"o":"m 53 0 l 53 58 l 71 58 q 127 65 101 58 q 169 91 153 71 q 185 151 185 111 l 185 839 q 169 901 185 881 q 127 927 153 921 q 71 933 101 933 l 53 933 l 53 992 l 426 992 q 626 962 547 992 q 744 873 706 932 q 783 724 783 814 q 753 599 783 650 q 676 518 722 549 q 579 471 629 488 l 769 169 q 839 86 806 114 q 915 58 872 58 l 919 58 l 919 0 l 900 0 q 766 9 814 0 q 689 45 718 18 q 628 125 660 72 l 440 438 l 325 438 l 325 151 q 341 91 325 111 q 383 65 357 71 q 439 58 408 58 l 457 58 l 457 0 l 53 0 m 422 503 q 590 557 544 503 q 635 719 635 611 q 614 840 635 794 q 546 905 593 885 q 419 925 499 925 l 325 925 l 325 503 l 422 503 m 361 -289 q 376 -224 369 -258 q 390 -153 383 -189 q 403 -85 397 -118 l 538 -85 l 538 -99 q 506 -165 525 -128 q 464 -240 486 -203 q 422 -307 442 -278 l 361 -307 l 361 -289 z "},"S":{"ha":756,"x_min":67,"x_max":685,"o":"m 343 -14 q 223 0 275 -14 q 136 40 171 14 q 84 103 101 67 q 67 182 67 139 q 78 231 67 210 q 113 263 90 251 q 167 275 135 275 q 189 167 169 218 q 249 85 208 117 q 354 54 289 54 q 500 99 447 54 q 553 229 553 144 q 533 316 553 281 q 466 382 513 351 q 338 446 419 413 q 194 524 251 482 q 110 622 138 565 q 82 754 82 678 q 122 890 82 833 q 230 976 161 946 q 386 1006 299 1006 q 527 983 469 1006 q 615 926 585 961 q 646 850 646 890 q 616 783 646 806 q 536 760 586 760 q 522 843 536 803 q 473 910 507 883 q 381 936 439 936 q 256 893 300 936 q 211 778 211 850 q 231 684 211 722 q 299 616 251 646 q 426 553 346 586 q 566 480 508 519 q 654 389 624 440 q 685 265 685 338 q 643 115 685 176 q 524 19 601 53 q 343 -14 447 -14 z "},"Ś":{"ha":756,"x_min":67,"x_max":685,"o":"m 343 -14 q 223 0 275 -14 q 136 40 171 14 q 84 103 101 67 q 67 182 67 139 q 78 231 67 210 q 113 263 90 251 q 167 275 135 275 q 189 167 169 218 q 249 85 208 117 q 354 54 289 54 q 500 99 447 54 q 553 229 553 144 q 533 316 553 281 q 466 382 513 351 q 338 446 419 413 q 194 524 251 482 q 110 622 138 565 q 82 754 82 678 q 122 890 82 833 q 230 976 161 946 q 386 1006 299 1006 q 527 983 469 1006 q 615 926 585 961 q 646 850 646 890 q 616 783 646 806 q 536 760 586 760 q 522 843 536 803 q 473 910 507 883 q 381 936 439 936 q 256 893 300 936 q 211 778 211 850 q 231 684 211 722 q 299 616 251 646 q 426 553 346 586 q 566 480 508 519 q 654 389 624 440 q 685 265 685 338 q 643 115 685 176 q 524 19 601 53 q 343 -14 447 -14 m 306 1089 q 349 1151 326 1115 q 392 1225 371 1188 q 426 1293 413 1263 l 575 1293 l 575 1279 q 538 1233 563 1261 q 481 1175 513 1206 q 418 1117 450 1144 q 358 1071 386 1090 l 306 1071 l 306 1089 z "},"Š":{"ha":756,"x_min":67,"x_max":685,"o":"m 343 -14 q 223 0 275 -14 q 136 40 171 14 q 84 103 101 67 q 67 182 67 139 q 78 231 67 210 q 113 263 90 251 q 167 275 135 275 q 189 167 169 218 q 249 85 208 117 q 354 54 289 54 q 500 99 447 54 q 553 229 553 144 q 533 316 553 281 q 466 382 513 351 q 338 446 419 413 q 194 524 251 482 q 110 622 138 565 q 82 754 82 678 q 122 890 82 833 q 230 976 161 946 q 386 1006 299 1006 q 527 983 469 1006 q 615 926 585 961 q 646 850 646 890 q 616 783 646 806 q 536 760 586 760 q 522 843 536 803 q 473 910 507 883 q 381 936 439 936 q 256 893 300 936 q 211 778 211 850 q 231 684 211 722 q 299 616 251 646 q 426 553 346 586 q 566 480 508 519 q 654 389 624 440 q 685 265 685 338 q 643 115 685 176 q 524 19 601 53 q 343 -14 447 -14 m 317 1071 q 278 1140 303 1103 q 226 1213 253 1176 q 178 1275 200 1249 l 178 1293 l 232 1293 q 285 1256 258 1278 q 336 1212 311 1235 q 382 1167 361 1189 q 428 1212 403 1189 q 480 1256 453 1235 q 533 1293 507 1278 l 588 1293 l 588 1275 q 540 1213 567 1249 q 488 1140 513 1176 q 449 1071 464 1103 l 317 1071 z "},"Ş":{"ha":756,"x_min":67,"x_max":685,"o":"m 343 -14 q 223 0 275 -14 q 136 40 171 14 q 84 103 101 67 q 67 182 67 139 q 78 231 67 210 q 113 263 90 251 q 167 275 135 275 q 189 167 169 218 q 249 85 208 117 q 354 54 289 54 q 500 99 447 54 q 553 229 553 144 q 533 316 553 281 q 466 382 513 351 q 338 446 419 413 q 194 524 251 482 q 110 622 138 565 q 82 754 82 678 q 122 890 82 833 q 230 976 161 946 q 386 1006 299 1006 q 527 983 469 1006 q 615 926 585 961 q 646 850 646 890 q 616 783 646 806 q 536 760 586 760 q 522 843 536 803 q 473 910 507 883 q 381 936 439 936 q 256 893 300 936 q 211 778 211 850 q 231 684 211 722 q 299 616 251 646 q 426 553 346 586 q 566 480 508 519 q 654 389 624 440 q 685 265 685 338 q 643 115 685 176 q 524 19 601 53 q 343 -14 447 -14 m 329 -333 q 277 -329 307 -333 q 222 -318 247 -325 l 222 -247 q 273 -256 247 -253 q 317 -258 299 -258 q 379 -237 357 -258 q 401 -181 401 -215 q 372 -119 401 -140 q 297 -96 342 -99 l 326 13 l 392 13 l 378 -47 q 453 -67 424 -50 q 498 -110 483 -83 q 513 -175 513 -137 q 465 -291 513 -249 q 329 -333 418 -333 z "},"Ș":{"ha":756,"x_min":67,"x_max":685,"o":"m 343 -14 q 223 0 275 -14 q 136 40 171 14 q 84 103 101 67 q 67 182 67 139 q 78 231 67 210 q 113 263 90 251 q 167 275 135 275 q 189 167 169 218 q 249 85 208 117 q 354 54 289 54 q 500 99 447 54 q 553 229 553 144 q 533 316 553 281 q 466 382 513 351 q 338 446 419 413 q 194 524 251 482 q 110 622 138 565 q 82 754 82 678 q 122 890 82 833 q 230 976 161 946 q 386 1006 299 1006 q 527 983 469 1006 q 615 926 585 961 q 646 850 646 890 q 616 783 646 806 q 536 760 586 760 q 522 843 536 803 q 473 910 507 883 q 381 936 439 936 q 256 893 300 936 q 211 778 211 850 q 231 684 211 722 q 299 616 251 646 q 426 553 346 586 q 566 480 508 519 q 654 389 624 440 q 685 265 685 338 q 643 115 685 176 q 524 19 601 53 q 343 -14 447 -14 m 276 -289 q 292 -224 285 -258 q 306 -153 299 -189 q 318 -85 313 -118 l 453 -85 l 453 -99 q 421 -165 440 -128 q 379 -240 401 -203 q 338 -307 357 -278 l 276 -307 l 276 -289 z "},"T":{"ha":851,"x_min":28,"x_max":824,"o":"m 208 0 l 208 58 l 240 58 q 297 65 271 58 q 338 91 322 71 q 354 151 354 111 l 354 922 l 221 922 q 136 888 160 922 q 107 808 113 854 l 100 749 l 28 749 l 35 992 l 817 992 l 824 749 l 751 749 l 744 808 q 715 888 739 854 q 629 922 692 922 l 494 922 l 494 158 q 510 94 494 115 q 551 65 525 72 q 608 58 578 58 l 640 58 l 640 0 l 208 0 z "},"Ť":{"ha":851,"x_min":28,"x_max":824,"o":"m 208 0 l 208 58 l 240 58 q 297 65 271 58 q 338 91 322 71 q 354 151 354 111 l 354 922 l 221 922 q 136 888 160 922 q 107 808 113 854 l 100 749 l 28 749 l 35 992 l 817 992 l 824 749 l 751 749 l 744 808 q 715 888 739 854 q 629 922 692 922 l 494 922 l 494 158 q 510 94 494 115 q 551 65 525 72 q 608 58 578 58 l 640 58 l 640 0 l 208 0 m 358 1071 q 319 1140 344 1103 q 268 1213 294 1176 q 219 1275 242 1249 l 219 1293 l 274 1293 q 326 1256 300 1278 q 378 1212 353 1235 q 424 1167 403 1189 q 469 1212 444 1189 q 522 1256 494 1235 q 575 1293 549 1278 l 629 1293 l 629 1275 q 581 1213 608 1249 q 530 1140 554 1176 q 490 1071 506 1103 l 358 1071 z "},"Ț":{"ha":851,"x_min":28,"x_max":824,"o":"m 208 0 l 208 58 l 240 58 q 297 65 271 58 q 338 91 322 71 q 354 151 354 111 l 354 922 l 221 922 q 136 888 160 922 q 107 808 113 854 l 100 749 l 28 749 l 35 992 l 817 992 l 824 749 l 751 749 l 744 808 q 715 888 739 854 q 629 922 692 922 l 494 922 l 494 158 q 510 94 494 115 q 551 65 525 72 q 608 58 578 58 l 640 58 l 640 0 l 208 0 m 315 -289 q 331 -224 324 -258 q 344 -153 338 -189 q 357 -85 351 -118 l 492 -85 l 492 -99 q 460 -165 479 -128 q 418 -240 440 -203 q 376 -307 396 -278 l 315 -307 l 315 -289 z "},"Þ":{"ha":839,"x_min":53,"x_max":785,"o":"m 53 0 l 53 58 l 71 58 q 128 65 103 58 q 169 94 154 72 q 185 158 185 115 l 185 833 q 169 899 185 878 q 128 926 154 919 q 71 933 103 933 l 53 933 l 53 992 l 471 992 l 471 933 l 439 933 q 382 926 408 933 q 340 899 356 919 q 325 833 325 878 l 325 792 l 443 792 q 701 722 618 792 q 785 515 785 651 q 749 365 785 433 q 632 255 714 296 q 413 214 550 214 l 325 214 l 325 158 q 340 94 325 115 q 382 65 356 72 q 439 58 408 58 l 471 58 l 471 0 l 53 0 m 399 279 q 535 300 483 279 q 610 372 586 321 q 635 510 635 422 q 586 676 635 626 q 419 725 538 725 l 325 725 l 325 279 l 399 279 z "},"U":{"ha":996,"x_min":21,"x_max":975,"o":"m 503 -14 q 315 17 393 -14 q 194 118 236 49 q 153 300 153 188 l 153 839 q 137 901 153 881 q 95 927 121 921 q 39 933 69 933 l 21 933 l 21 992 l 425 992 l 425 933 l 407 933 q 350 926 376 933 q 308 899 324 919 q 293 833 293 878 l 293 292 q 358 120 293 171 q 525 69 424 69 q 657 97 606 69 q 733 174 708 125 q 758 286 758 224 l 758 839 q 742 901 758 881 q 701 927 726 921 q 644 933 675 933 l 626 933 l 626 992 l 975 992 l 975 933 l 957 933 q 900 926 926 933 q 858 899 874 919 q 843 833 843 878 l 843 283 q 804 125 843 192 q 690 22 765 58 q 503 -14 614 -14 z "},"Ú":{"ha":996,"x_min":21,"x_max":975,"o":"m 503 -14 q 315 17 393 -14 q 194 118 236 49 q 153 300 153 188 l 153 839 q 137 901 153 881 q 95 927 121 921 q 39 933 69 933 l 21 933 l 21 992 l 425 992 l 425 933 l 407 933 q 350 926 376 933 q 308 899 324 919 q 293 833 293 878 l 293 292 q 358 120 293 171 q 525 69 424 69 q 657 97 606 69 q 733 174 708 125 q 758 286 758 224 l 758 839 q 742 901 758 881 q 701 927 726 921 q 644 933 675 933 l 626 933 l 626 992 l 975 992 l 975 933 l 957 933 q 900 926 926 933 q 858 899 874 919 q 843 833 843 878 l 843 283 q 804 125 843 192 q 690 22 765 58 q 503 -14 614 -14 m 440 1089 q 483 1151 461 1115 q 526 1225 506 1188 q 561 1293 547 1263 l 710 1293 l 710 1279 q 672 1233 697 1261 q 616 1175 647 1206 q 553 1117 585 1144 q 493 1071 521 1090 l 440 1071 l 440 1089 z "},"Ŭ":{"ha":996,"x_min":21,"x_max":975,"o":"m 503 -14 q 315 17 393 -14 q 194 118 236 49 q 153 300 153 188 l 153 839 q 137 901 153 881 q 95 927 121 921 q 39 933 69 933 l 21 933 l 21 992 l 425 992 l 425 933 l 407 933 q 350 926 376 933 q 308 899 324 919 q 293 833 293 878 l 293 292 q 358 120 293 171 q 525 69 424 69 q 657 97 606 69 q 733 174 708 125 q 758 286 758 224 l 758 839 q 742 901 758 881 q 701 927 726 921 q 644 933 675 933 l 626 933 l 626 992 l 975 992 l 975 933 l 957 933 q 900 926 926 933 q 858 899 874 919 q 843 833 843 878 l 843 283 q 804 125 843 192 q 690 22 765 58 q 503 -14 614 -14 m 515 1071 q 407 1097 450 1071 q 343 1166 364 1122 q 321 1261 322 1210 l 385 1261 q 430 1189 396 1211 q 515 1167 464 1167 q 601 1189 567 1167 q 646 1261 635 1211 l 710 1261 q 688 1166 708 1210 q 624 1097 667 1122 q 515 1071 582 1071 z "},"Û":{"ha":996,"x_min":21,"x_max":975,"o":"m 503 -14 q 315 17 393 -14 q 194 118 236 49 q 153 300 153 188 l 153 839 q 137 901 153 881 q 95 927 121 921 q 39 933 69 933 l 21 933 l 21 992 l 425 992 l 425 933 l 407 933 q 350 926 376 933 q 308 899 324 919 q 293 833 293 878 l 293 292 q 358 120 293 171 q 525 69 424 69 q 657 97 606 69 q 733 174 708 125 q 758 286 758 224 l 758 839 q 742 901 758 881 q 701 927 726 921 q 644 933 675 933 l 626 933 l 626 992 l 975 992 l 975 933 l 957 933 q 900 926 926 933 q 858 899 874 919 q 843 833 843 878 l 843 283 q 804 125 843 192 q 690 22 765 58 q 503 -14 614 -14 m 319 1089 q 368 1151 342 1115 q 419 1225 394 1188 q 458 1293 444 1263 l 590 1293 q 630 1225 606 1263 q 681 1151 654 1188 q 729 1089 708 1115 l 729 1071 l 675 1071 q 622 1107 649 1086 q 569 1151 594 1128 q 524 1196 544 1174 q 478 1151 503 1174 q 426 1107 453 1128 q 374 1071 400 1086 l 319 1071 l 319 1089 z "},"Ü":{"ha":996,"x_min":21,"x_max":975,"o":"m 503 -14 q 315 17 393 -14 q 194 118 236 49 q 153 300 153 188 l 153 839 q 137 901 153 881 q 95 927 121 921 q 39 933 69 933 l 21 933 l 21 992 l 425 992 l 425 933 l 407 933 q 350 926 376 933 q 308 899 324 919 q 293 833 293 878 l 293 292 q 358 120 293 171 q 525 69 424 69 q 657 97 606 69 q 733 174 708 125 q 758 286 758 224 l 758 839 q 742 901 758 881 q 701 927 726 921 q 644 933 675 933 l 626 933 l 626 992 l 975 992 l 975 933 l 957 933 q 900 926 926 933 q 858 899 874 919 q 843 833 843 878 l 843 283 q 804 125 843 192 q 690 22 765 58 q 503 -14 614 -14 m 658 1107 q 608 1124 628 1107 q 588 1185 588 1142 q 608 1246 588 1229 q 658 1263 628 1263 q 708 1246 688 1263 q 729 1185 729 1229 q 708 1124 729 1142 q 658 1107 688 1107 m 394 1107 q 344 1124 364 1107 q 324 1185 324 1142 q 344 1246 324 1229 q 394 1263 364 1263 q 444 1246 424 1263 q 465 1185 465 1229 q 444 1124 465 1142 q 394 1107 424 1107 z "},"Ù":{"ha":996,"x_min":21,"x_max":975,"o":"m 503 -14 q 315 17 393 -14 q 194 118 236 49 q 153 300 153 188 l 153 839 q 137 901 153 881 q 95 927 121 921 q 39 933 69 933 l 21 933 l 21 992 l 425 992 l 425 933 l 407 933 q 350 926 376 933 q 308 899 324 919 q 293 833 293 878 l 293 292 q 358 120 293 171 q 525 69 424 69 q 657 97 606 69 q 733 174 708 125 q 758 286 758 224 l 758 839 q 742 901 758 881 q 701 927 726 921 q 644 933 675 933 l 626 933 l 626 992 l 975 992 l 975 933 l 957 933 q 900 926 926 933 q 858 899 874 919 q 843 833 843 878 l 843 283 q 804 125 843 192 q 690 22 765 58 q 503 -14 614 -14 m 525 1071 q 465 1117 497 1090 q 402 1175 433 1144 q 346 1233 371 1206 q 308 1279 321 1261 l 308 1293 l 457 1293 q 492 1225 472 1263 q 535 1151 513 1188 q 578 1089 558 1115 l 578 1071 l 525 1071 z "},"Ű":{"ha":996,"x_min":21,"x_max":975,"o":"m 503 -14 q 315 17 393 -14 q 194 118 236 49 q 153 300 153 188 l 153 839 q 137 901 153 881 q 95 927 121 921 q 39 933 69 933 l 21 933 l 21 992 l 425 992 l 425 933 l 407 933 q 350 926 376 933 q 308 899 324 919 q 293 833 293 878 l 293 292 q 358 120 293 171 q 525 69 424 69 q 657 97 606 69 q 733 174 708 125 q 758 286 758 224 l 758 839 q 742 901 758 881 q 701 927 726 921 q 644 933 675 933 l 626 933 l 626 992 l 975 992 l 975 933 l 957 933 q 900 926 926 933 q 858 899 874 919 q 843 833 843 878 l 843 283 q 804 125 843 192 q 690 22 765 58 q 503 -14 614 -14 m 561 1089 q 624 1190 590 1133 q 679 1293 657 1246 l 828 1293 l 828 1279 q 778 1215 814 1256 q 702 1135 743 1175 q 629 1071 661 1096 l 561 1071 l 561 1089 m 311 1089 q 374 1190 340 1133 q 429 1293 407 1246 l 578 1293 l 578 1279 q 528 1215 564 1256 q 451 1135 492 1175 q 379 1071 411 1096 l 311 1071 l 311 1089 z "},"Ū":{"ha":996,"x_min":21,"x_max":975,"o":"m 503 -14 q 315 17 393 -14 q 194 118 236 49 q 153 300 153 188 l 153 839 q 137 901 153 881 q 95 927 121 921 q 39 933 69 933 l 21 933 l 21 992 l 425 992 l 425 933 l 407 933 q 350 926 376 933 q 308 899 324 919 q 293 833 293 878 l 293 292 q 358 120 293 171 q 525 69 424 69 q 657 97 606 69 q 733 174 708 125 q 758 286 758 224 l 758 839 q 742 901 758 881 q 701 927 726 921 q 644 933 675 933 l 626 933 l 626 992 l 975 992 l 975 933 l 957 933 q 900 926 926 933 q 858 899 874 919 q 843 833 843 878 l 843 283 q 804 125 843 192 q 690 22 765 58 q 503 -14 614 -14 m 322 1085 l 322 1167 l 725 1167 l 725 1085 l 322 1085 z "},"Ų":{"ha":1007,"x_min":32,"x_max":986,"o":"m 514 -14 q 326 17 404 -14 q 206 118 247 49 q 164 300 164 188 l 164 839 q 148 901 164 881 q 106 927 132 921 q 50 933 81 933 l 32 933 l 32 992 l 436 992 l 436 933 l 418 933 q 361 926 388 933 q 319 899 335 919 q 304 833 304 878 l 304 292 q 369 120 304 171 q 536 69 435 69 q 668 97 617 69 q 744 174 719 125 q 769 286 769 224 l 769 839 q 753 901 769 881 q 712 927 738 921 q 656 933 686 933 l 638 933 l 638 992 l 986 992 l 986 933 l 968 933 q 911 926 938 933 q 869 899 885 919 q 854 833 854 878 l 854 283 q 815 125 854 192 q 701 22 776 58 q 514 -14 625 -14 m 568 -333 q 428 -297 479 -333 q 378 -181 378 -260 q 401 -100 378 -137 q 462 -36 425 -62 q 542 0 499 -10 l 621 0 q 562 -30 592 -8 q 512 -83 532 -51 q 492 -160 492 -115 q 519 -226 492 -206 q 588 -247 546 -247 q 628 -244 607 -247 q 675 -236 650 -242 l 675 -311 q 642 -323 661 -318 q 603 -331 622 -328 q 568 -333 583 -333 z "},"Ů":{"ha":996,"x_min":21,"x_max":975,"o":"m 503 -14 q 315 17 393 -14 q 194 118 236 49 q 153 300 153 188 l 153 839 q 137 901 153 881 q 95 927 121 921 q 39 933 69 933 l 21 933 l 21 992 l 425 992 l 425 933 l 407 933 q 350 926 376 933 q 308 899 324 919 q 293 833 293 878 l 293 292 q 358 120 293 171 q 525 69 424 69 q 657 97 606 69 q 733 174 708 125 q 758 286 758 224 l 758 839 q 742 901 758 881 q 701 927 726 921 q 644 933 675 933 l 626 933 l 626 992 l 975 992 l 975 933 l 957 933 q 900 926 926 933 q 858 899 874 919 q 843 833 843 878 l 843 283 q 804 125 843 192 q 690 22 765 58 q 503 -14 614 -14 m 515 1057 q 397 1096 446 1057 q 349 1208 349 1135 q 397 1321 349 1282 q 515 1360 446 1360 q 633 1321 585 1360 q 682 1208 682 1282 q 633 1096 682 1135 q 515 1057 585 1057 m 515 1125 q 580 1144 553 1125 q 607 1208 607 1164 q 580 1272 607 1253 q 515 1292 553 1292 q 451 1272 478 1292 q 424 1208 424 1253 q 451 1144 424 1164 q 515 1125 478 1125 z "},"V":{"ha":938,"x_min":0,"x_max":938,"o":"m 117 860 q 94 905 107 889 q 64 927 82 921 q 18 933 46 933 l 0 933 l 0 992 l 382 992 l 382 933 l 350 933 q 288 917 308 933 q 267 867 267 901 q 268 851 267 860 q 272 835 269 843 q 278 815 275 826 l 431 364 q 456 283 444 324 q 476 206 467 243 q 493 136 486 169 q 509 206 500 169 q 530 281 518 242 q 557 364 542 321 l 710 806 q 717 828 714 817 q 721 849 719 839 q 722 865 722 858 q 699 917 722 901 q 631 933 676 933 l 599 933 l 599 992 l 938 992 l 938 933 l 911 933 q 867 925 885 933 q 835 894 849 917 q 806 825 821 871 l 518 0 l 417 0 l 117 860 z "},"W":{"ha":1454,"x_min":13,"x_max":1442,"o":"m 129 860 q 108 905 121 889 q 76 927 94 921 q 31 933 58 933 l 13 933 l 13 992 l 394 992 l 394 933 l 363 933 q 300 917 321 933 q 279 867 279 901 q 283 843 279 856 q 290 815 286 831 l 418 371 q 441 288 431 329 q 461 208 451 247 q 478 136 471 169 q 503 255 489 190 q 535 386 517 319 l 700 982 l 800 982 l 974 381 q 1008 249 993 313 q 1033 136 1024 185 q 1049 205 1040 169 q 1067 280 1057 240 q 1089 364 1076 319 l 1211 793 q 1221 832 1215 810 q 1226 865 1226 854 q 1203 917 1226 901 q 1135 933 1181 933 l 1103 933 l 1103 992 l 1442 992 l 1442 933 l 1415 933 q 1370 926 1389 933 q 1338 894 1351 918 q 1310 825 1324 871 l 1075 0 l 950 0 l 724 778 l 511 0 l 383 0 l 129 860 z "},"Ẃ":{"ha":1454,"x_min":13,"x_max":1442,"o":"m 129 860 q 108 905 121 889 q 76 927 94 921 q 31 933 58 933 l 13 933 l 13 992 l 394 992 l 394 933 l 363 933 q 300 917 321 933 q 279 867 279 901 q 283 843 279 856 q 290 815 286 831 l 418 371 q 441 288 431 329 q 461 208 451 247 q 478 136 471 169 q 503 255 489 190 q 535 386 517 319 l 700 982 l 800 982 l 974 381 q 1008 249 993 313 q 1033 136 1024 185 q 1049 205 1040 169 q 1067 280 1057 240 q 1089 364 1076 319 l 1211 793 q 1221 832 1215 810 q 1226 865 1226 854 q 1203 917 1226 901 q 1135 933 1181 933 l 1103 933 l 1103 992 l 1442 992 l 1442 933 l 1415 933 q 1370 926 1389 933 q 1338 894 1351 918 q 1310 825 1324 871 l 1075 0 l 950 0 l 724 778 l 511 0 l 383 0 l 129 860 m 728 1089 q 771 1151 749 1115 q 814 1225 793 1188 q 849 1293 835 1263 l 997 1293 l 997 1279 q 960 1233 985 1261 q 903 1175 935 1206 q 840 1117 872 1144 q 781 1071 808 1090 l 728 1071 l 728 1089 z "},"Ŵ":{"ha":1454,"x_min":13,"x_max":1442,"o":"m 129 860 q 108 905 121 889 q 76 927 94 921 q 31 933 58 933 l 13 933 l 13 992 l 394 992 l 394 933 l 363 933 q 300 917 321 933 q 279 867 279 901 q 283 843 279 856 q 290 815 286 831 l 418 371 q 441 288 431 329 q 461 208 451 247 q 478 136 471 169 q 503 255 489 190 q 535 386 517 319 l 700 982 l 800 982 l 974 381 q 1008 249 993 313 q 1033 136 1024 185 q 1049 205 1040 169 q 1067 280 1057 240 q 1089 364 1076 319 l 1211 793 q 1221 832 1215 810 q 1226 865 1226 854 q 1203 917 1226 901 q 1135 933 1181 933 l 1103 933 l 1103 992 l 1442 992 l 1442 933 l 1415 933 q 1370 926 1389 933 q 1338 894 1351 918 q 1310 825 1324 871 l 1075 0 l 950 0 l 724 778 l 511 0 l 383 0 l 129 860 m 547 1089 q 596 1151 569 1115 q 647 1225 622 1188 q 686 1293 672 1263 l 818 1293 q 858 1225 833 1263 q 909 1151 882 1188 q 957 1089 936 1115 l 957 1071 l 903 1071 q 849 1107 876 1086 q 797 1151 822 1128 q 751 1196 772 1174 q 706 1151 731 1174 q 654 1107 681 1128 q 601 1071 628 1086 l 547 1071 l 547 1089 z "},"Ẅ":{"ha":1454,"x_min":13,"x_max":1442,"o":"m 129 860 q 108 905 121 889 q 76 927 94 921 q 31 933 58 933 l 13 933 l 13 992 l 394 992 l 394 933 l 363 933 q 300 917 321 933 q 279 867 279 901 q 283 843 279 856 q 290 815 286 831 l 418 371 q 441 288 431 329 q 461 208 451 247 q 478 136 471 169 q 503 255 489 190 q 535 386 517 319 l 700 982 l 800 982 l 974 381 q 1008 249 993 313 q 1033 136 1024 185 q 1049 205 1040 169 q 1067 280 1057 240 q 1089 364 1076 319 l 1211 793 q 1221 832 1215 810 q 1226 865 1226 854 q 1203 917 1226 901 q 1135 933 1181 933 l 1103 933 l 1103 992 l 1442 992 l 1442 933 l 1415 933 q 1370 926 1389 933 q 1338 894 1351 918 q 1310 825 1324 871 l 1075 0 l 950 0 l 724 778 l 511 0 l 383 0 l 129 860 m 911 1107 q 860 1124 881 1107 q 840 1185 840 1142 q 860 1246 840 1229 q 911 1263 881 1263 q 961 1246 940 1263 q 982 1185 982 1229 q 961 1124 982 1142 q 911 1107 940 1107 m 647 1107 q 597 1124 617 1107 q 576 1185 576 1142 q 597 1246 576 1229 q 647 1263 617 1263 q 697 1246 676 1263 q 718 1185 718 1229 q 697 1124 718 1142 q 647 1107 676 1107 z "},"Ẁ":{"ha":1454,"x_min":13,"x_max":1442,"o":"m 129 860 q 108 905 121 889 q 76 927 94 921 q 31 933 58 933 l 13 933 l 13 992 l 394 992 l 394 933 l 363 933 q 300 917 321 933 q 279 867 279 901 q 283 843 279 856 q 290 815 286 831 l 418 371 q 441 288 431 329 q 461 208 451 247 q 478 136 471 169 q 503 255 489 190 q 535 386 517 319 l 700 982 l 800 982 l 974 381 q 1008 249 993 313 q 1033 136 1024 185 q 1049 205 1040 169 q 1067 280 1057 240 q 1089 364 1076 319 l 1211 793 q 1221 832 1215 810 q 1226 865 1226 854 q 1203 917 1226 901 q 1135 933 1181 933 l 1103 933 l 1103 992 l 1442 992 l 1442 933 l 1415 933 q 1370 926 1389 933 q 1338 894 1351 918 q 1310 825 1324 871 l 1075 0 l 950 0 l 724 778 l 511 0 l 383 0 l 129 860 m 783 1071 q 724 1117 756 1090 q 660 1175 692 1144 q 604 1233 629 1206 q 567 1279 579 1261 l 567 1293 l 715 1293 q 751 1225 731 1263 q 794 1151 771 1188 q 836 1089 817 1115 l 836 1071 l 783 1071 z "},"X":{"ha":917,"x_min":11,"x_max":906,"o":"m 11 0 l 11 58 l 19 58 q 76 67 53 58 q 119 98 99 76 q 164 156 139 119 l 396 488 l 167 860 q 131 902 150 886 q 90 926 111 918 q 47 933 68 933 l 29 933 l 29 992 l 406 992 l 406 933 l 401 933 q 338 922 354 933 q 322 893 322 910 q 328 863 322 879 q 356 811 333 847 l 481 608 l 613 808 q 638 853 628 832 q 647 893 647 875 q 626 926 647 918 q 572 933 604 933 l 568 933 l 568 992 l 872 992 l 872 933 l 860 933 q 812 924 833 933 q 769 894 790 915 q 722 833 749 872 l 521 543 l 776 132 q 816 89 797 106 q 853 65 835 72 q 888 58 871 58 l 906 58 l 906 0 l 531 0 l 531 58 l 538 58 q 600 70 579 58 q 621 104 621 82 q 613 137 621 119 q 575 200 604 154 l 438 421 l 283 193 q 260 149 272 175 q 247 101 247 124 q 269 69 247 79 q 338 58 292 58 l 342 58 l 342 0 l 11 0 z "},"Y":{"ha":868,"x_min":-7,"x_max":872,"o":"m 221 0 l 221 58 l 253 58 q 309 65 283 58 q 351 91 335 71 q 367 151 367 111 l 367 414 l 110 860 q 81 902 94 886 q 51 926 68 918 q 11 933 35 933 l -7 933 l -7 992 l 375 992 l 375 933 l 324 933 q 274 920 286 933 q 263 889 263 907 q 271 850 263 869 q 288 815 279 831 l 390 629 q 431 544 414 586 q 460 471 449 503 q 496 543 472 500 q 543 629 519 586 l 632 789 q 651 834 646 813 q 657 872 657 856 q 635 918 657 903 q 574 933 614 933 l 533 933 l 533 992 l 872 992 l 872 933 l 856 933 q 819 924 836 933 q 783 890 801 914 q 740 825 764 867 l 507 414 l 507 158 q 522 94 507 115 q 564 65 538 72 q 621 58 590 58 l 653 58 l 653 0 l 221 0 z "},"Ý":{"ha":868,"x_min":-7,"x_max":872,"o":"m 221 0 l 221 58 l 253 58 q 309 65 283 58 q 351 91 335 71 q 367 151 367 111 l 367 414 l 110 860 q 81 902 94 886 q 51 926 68 918 q 11 933 35 933 l -7 933 l -7 992 l 375 992 l 375 933 l 324 933 q 274 920 286 933 q 263 889 263 907 q 271 850 263 869 q 288 815 279 831 l 390 629 q 431 544 414 586 q 460 471 449 503 q 496 543 472 500 q 543 629 519 586 l 632 789 q 651 834 646 813 q 657 872 657 856 q 635 918 657 903 q 574 933 614 933 l 533 933 l 533 992 l 872 992 l 872 933 l 856 933 q 819 924 836 933 q 783 890 801 914 q 740 825 764 867 l 507 414 l 507 158 q 522 94 507 115 q 564 65 538 72 q 621 58 590 58 l 653 58 l 653 0 l 221 0 m 385 1089 q 428 1151 406 1115 q 471 1225 450 1188 q 506 1293 492 1263 l 654 1293 l 654 1279 q 617 1233 642 1261 q 560 1175 592 1206 q 497 1117 529 1144 q 438 1071 465 1090 l 385 1071 l 385 1089 z "}}}
